G04 #@! TF.FileFunction,Copper,L2,Bot,Signal*
%FSLAX46Y46*%
G04 Gerber Fmt 4.6, Leading zero omitted, Abs format (unit mm)*
G04 Created by KiCad (PCBNEW 4.0.7) date 03/14/18 21:03:42*
%MOMM*%
%LPD*%
G01*
G04 APERTURE LIST*
%ADD10C,0.100000*%
%ADD11C,0.300000*%
%ADD12C,2.500000*%
%ADD13O,2.000000X1.700000*%
%ADD14R,2.000000X1.700000*%
%ADD15R,1.750000X2.000000*%
%ADD16O,1.750000X2.000000*%
%ADD17C,2.000000*%
%ADD18O,1.400000X2.500000*%
%ADD19C,4.064000*%
%ADD20C,1.000000*%
%ADD21C,1.500000*%
%ADD22C,0.600000*%
%ADD23C,0.800000*%
%ADD24C,0.700000*%
%ADD25C,0.254000*%
G04 APERTURE END LIST*
D10*
D11*
X81287356Y-55058571D02*
X80787356Y-56558571D01*
X80287356Y-55058571D01*
X79215928Y-56487143D02*
X79358785Y-56558571D01*
X79644499Y-56558571D01*
X79787356Y-56487143D01*
X79858785Y-56344286D01*
X79858785Y-55772857D01*
X79787356Y-55630000D01*
X79644499Y-55558571D01*
X79358785Y-55558571D01*
X79215928Y-55630000D01*
X79144499Y-55772857D01*
X79144499Y-55915714D01*
X79858785Y-56058571D01*
X78501642Y-56558571D02*
X78501642Y-55558571D01*
X78501642Y-55844286D02*
X78430214Y-55701429D01*
X78358785Y-55630000D01*
X78215928Y-55558571D01*
X78073071Y-55558571D01*
X76501643Y-55201429D02*
X76430214Y-55130000D01*
X76287357Y-55058571D01*
X75930214Y-55058571D01*
X75787357Y-55130000D01*
X75715928Y-55201429D01*
X75644500Y-55344286D01*
X75644500Y-55487143D01*
X75715928Y-55701429D01*
X76573071Y-56558571D01*
X75644500Y-56558571D01*
X75001643Y-56415714D02*
X74930215Y-56487143D01*
X75001643Y-56558571D01*
X75073072Y-56487143D01*
X75001643Y-56415714D01*
X75001643Y-56558571D01*
X74001643Y-55058571D02*
X73858786Y-55058571D01*
X73715929Y-55130000D01*
X73644500Y-55201429D01*
X73573071Y-55344286D01*
X73501643Y-55630000D01*
X73501643Y-55987143D01*
X73573071Y-56272857D01*
X73644500Y-56415714D01*
X73715929Y-56487143D01*
X73858786Y-56558571D01*
X74001643Y-56558571D01*
X74144500Y-56487143D01*
X74215929Y-56415714D01*
X74287357Y-56272857D01*
X74358786Y-55987143D01*
X74358786Y-55630000D01*
X74287357Y-55344286D01*
X74215929Y-55201429D01*
X74144500Y-55130000D01*
X74001643Y-55058571D01*
X72215929Y-56558571D02*
X72215929Y-55772857D01*
X72287358Y-55630000D01*
X72430215Y-55558571D01*
X72715929Y-55558571D01*
X72858786Y-55630000D01*
X72215929Y-56487143D02*
X72358786Y-56558571D01*
X72715929Y-56558571D01*
X72858786Y-56487143D01*
X72930215Y-56344286D01*
X72930215Y-56201429D01*
X72858786Y-56058571D01*
X72715929Y-55987143D01*
X72358786Y-55987143D01*
X72215929Y-55915714D01*
X93201429Y-21562143D02*
X92987143Y-21633571D01*
X92630000Y-21633571D01*
X92487143Y-21562143D01*
X92415714Y-21490714D01*
X92344286Y-21347857D01*
X92344286Y-21205000D01*
X92415714Y-21062143D01*
X92487143Y-20990714D01*
X92630000Y-20919286D01*
X92915714Y-20847857D01*
X93058572Y-20776429D01*
X93130000Y-20705000D01*
X93201429Y-20562143D01*
X93201429Y-20419286D01*
X93130000Y-20276429D01*
X93058572Y-20205000D01*
X92915714Y-20133571D01*
X92558572Y-20133571D01*
X92344286Y-20205000D01*
X90844286Y-21490714D02*
X90915715Y-21562143D01*
X91130001Y-21633571D01*
X91272858Y-21633571D01*
X91487143Y-21562143D01*
X91630001Y-21419286D01*
X91701429Y-21276429D01*
X91772858Y-20990714D01*
X91772858Y-20776429D01*
X91701429Y-20490714D01*
X91630001Y-20347857D01*
X91487143Y-20205000D01*
X91272858Y-20133571D01*
X91130001Y-20133571D01*
X90915715Y-20205000D01*
X90844286Y-20276429D01*
X90201429Y-20133571D02*
X90201429Y-21347857D01*
X90130001Y-21490714D01*
X90058572Y-21562143D01*
X89915715Y-21633571D01*
X89630001Y-21633571D01*
X89487143Y-21562143D01*
X89415715Y-21490714D01*
X89344286Y-21347857D01*
X89344286Y-20133571D01*
X87915714Y-21633571D02*
X88630000Y-21633571D01*
X88630000Y-20133571D01*
X86701428Y-21633571D02*
X87415714Y-21633571D01*
X87415714Y-20133571D01*
X85344285Y-21490714D02*
X85415714Y-21562143D01*
X85630000Y-21633571D01*
X85772857Y-21633571D01*
X85987142Y-21562143D01*
X86130000Y-21419286D01*
X86201428Y-21276429D01*
X86272857Y-20990714D01*
X86272857Y-20776429D01*
X86201428Y-20490714D01*
X86130000Y-20347857D01*
X85987142Y-20205000D01*
X85772857Y-20133571D01*
X85630000Y-20133571D01*
X85415714Y-20205000D01*
X85344285Y-20276429D01*
X84415714Y-20133571D02*
X84130000Y-20133571D01*
X83987142Y-20205000D01*
X83844285Y-20347857D01*
X83772857Y-20633571D01*
X83772857Y-21133571D01*
X83844285Y-21419286D01*
X83987142Y-21562143D01*
X84130000Y-21633571D01*
X84415714Y-21633571D01*
X84558571Y-21562143D01*
X84701428Y-21419286D01*
X84772857Y-21133571D01*
X84772857Y-20633571D01*
X84701428Y-20347857D01*
X84558571Y-20205000D01*
X84415714Y-20133571D01*
X83129999Y-21633571D02*
X83129999Y-20133571D01*
X82629999Y-21205000D01*
X82129999Y-20133571D01*
X82129999Y-21633571D01*
X75667856Y-23856143D02*
X74524999Y-23856143D01*
X75096428Y-24427571D02*
X75096428Y-23284714D01*
X73953570Y-22927571D02*
X73024999Y-22927571D01*
X73524999Y-23499000D01*
X73310713Y-23499000D01*
X73167856Y-23570429D01*
X73096427Y-23641857D01*
X73024999Y-23784714D01*
X73024999Y-24141857D01*
X73096427Y-24284714D01*
X73167856Y-24356143D01*
X73310713Y-24427571D01*
X73739285Y-24427571D01*
X73882142Y-24356143D01*
X73953570Y-24284714D01*
X72596428Y-22927571D02*
X72096428Y-24427571D01*
X71596428Y-22927571D01*
X71239285Y-22927571D02*
X70310714Y-22927571D01*
X70810714Y-23499000D01*
X70596428Y-23499000D01*
X70453571Y-23570429D01*
X70382142Y-23641857D01*
X70310714Y-23784714D01*
X70310714Y-24141857D01*
X70382142Y-24284714D01*
X70453571Y-24356143D01*
X70596428Y-24427571D01*
X71025000Y-24427571D01*
X71167857Y-24356143D01*
X71239285Y-24284714D01*
D12*
X72453500Y-26289000D03*
D13*
X103251000Y-61595000D03*
X103251000Y-59055000D03*
X103251000Y-56515000D03*
X103251000Y-53975000D03*
X103251000Y-51435000D03*
X103251000Y-48895000D03*
X103251000Y-46355000D03*
X103251000Y-43815000D03*
X103251000Y-41275000D03*
X103251000Y-38735000D03*
X103251000Y-36195000D03*
X103251000Y-33655000D03*
X103251000Y-31115000D03*
D14*
X103251000Y-28575000D03*
D15*
X32194500Y-63754000D03*
D16*
X29694500Y-63754000D03*
D15*
X38608000Y-33401000D03*
D16*
X41108000Y-33401000D03*
X43608000Y-33401000D03*
D15*
X61214000Y-26289000D03*
D16*
X58714000Y-26289000D03*
X56214000Y-26289000D03*
X53714000Y-26289000D03*
X51214000Y-26289000D03*
X48714000Y-26289000D03*
X46214000Y-26289000D03*
X43714000Y-26289000D03*
X41214000Y-26289000D03*
X38714000Y-26289000D03*
D17*
X107315000Y-28384500D03*
X107315000Y-38544500D03*
X83756500Y-25844500D03*
X93916500Y-25844500D03*
X83756500Y-29273500D03*
X93916500Y-29273500D03*
X83756500Y-50736500D03*
X93916500Y-50736500D03*
X83756500Y-40830500D03*
X93916500Y-40830500D03*
X83756500Y-37528500D03*
X93916500Y-37528500D03*
X83756500Y-32639000D03*
X93916500Y-32639000D03*
X83756500Y-60769500D03*
X93916500Y-60769500D03*
X83756500Y-54038500D03*
X93916500Y-54038500D03*
X83756500Y-47434500D03*
X93916500Y-47434500D03*
D18*
X28448000Y-41275000D03*
X28448000Y-56515000D03*
X30988000Y-41275000D03*
X30988000Y-56515000D03*
X33528000Y-41275000D03*
X33528000Y-56515000D03*
X36068000Y-41275000D03*
X36068000Y-56515000D03*
X38608000Y-41275000D03*
X38608000Y-56515000D03*
X41148000Y-41275000D03*
X41148000Y-56515000D03*
X43688000Y-41275000D03*
X43688000Y-56515000D03*
X46228000Y-41275000D03*
X46228000Y-56515000D03*
X48768000Y-41275000D03*
X48768000Y-56515000D03*
X51308000Y-41275000D03*
X51308000Y-56515000D03*
X53848000Y-41275000D03*
X53848000Y-56515000D03*
X56388000Y-41275000D03*
X56388000Y-56515000D03*
X58928000Y-41275000D03*
X58928000Y-56515000D03*
X61468000Y-41275000D03*
X61468000Y-56515000D03*
X64008000Y-41275000D03*
X64008000Y-56515000D03*
D19*
X23114000Y-22225000D03*
X22733000Y-67818000D03*
D20*
X61468000Y-41275000D02*
X61468000Y-39687500D01*
X72453500Y-28702000D02*
X72453500Y-26289000D01*
X61468000Y-39687500D02*
X72453500Y-28702000D01*
X30988000Y-41275000D02*
X30988000Y-46863000D01*
X101473000Y-31115000D02*
X103251000Y-31115000D01*
X99695000Y-29337000D02*
X101473000Y-31115000D01*
X99695000Y-26416000D02*
X99695000Y-29337000D01*
X101600000Y-24511000D02*
X99695000Y-26416000D01*
X108712000Y-24511000D02*
X101600000Y-24511000D01*
X114300000Y-30099000D02*
X108712000Y-24511000D01*
X114300000Y-62738000D02*
X114300000Y-30099000D01*
X108077000Y-68961000D02*
X114300000Y-62738000D01*
X96774000Y-68961000D02*
X108077000Y-68961000D01*
X91821000Y-73914000D02*
X96774000Y-68961000D01*
X30734000Y-73914000D02*
X91821000Y-73914000D01*
X23241000Y-66421000D02*
X30734000Y-73914000D01*
X23241000Y-52832000D02*
X23241000Y-66421000D01*
X26543000Y-49530000D02*
X23241000Y-52832000D01*
X28321000Y-49530000D02*
X26543000Y-49530000D01*
X30988000Y-46863000D02*
X28321000Y-49530000D01*
D21*
X30988000Y-41275000D02*
X30988000Y-26098500D01*
X30988000Y-26098500D02*
X34671000Y-22415500D01*
X34671000Y-22415500D02*
X39370000Y-22415500D01*
X39370000Y-22415500D02*
X41214000Y-24259500D01*
X41214000Y-24259500D02*
X41214000Y-26289000D01*
X103251000Y-31115000D02*
X108267500Y-31115000D01*
X108267500Y-31115000D02*
X109855000Y-32702500D01*
X109855000Y-32702500D02*
X109855000Y-60769500D01*
X109855000Y-60769500D02*
X106045000Y-64579500D01*
X106045000Y-64579500D02*
X94742000Y-64579500D01*
X94742000Y-64579500D02*
X89662000Y-69659500D01*
X89662000Y-69659500D02*
X45339000Y-69659500D01*
X45339000Y-69659500D02*
X36068000Y-60388500D01*
X36068000Y-60388500D02*
X36068000Y-56515000D01*
D20*
X30988000Y-56515000D02*
X30988000Y-58229500D01*
X32194500Y-59436000D02*
X32194500Y-63754000D01*
X30988000Y-58229500D02*
X32194500Y-59436000D01*
X28448000Y-56515000D02*
X28448000Y-59245500D01*
X29694500Y-60492000D02*
X29694500Y-63754000D01*
X28448000Y-59245500D02*
X29694500Y-60492000D01*
X28361000Y-56602000D02*
X28448000Y-56515000D01*
X38608000Y-33401000D02*
X38608000Y-41275000D01*
X41108000Y-33401000D02*
X41108000Y-41235000D01*
X41108000Y-41235000D02*
X41148000Y-41275000D01*
D22*
X41108000Y-41235000D02*
X41148000Y-41275000D01*
D20*
X43608000Y-33401000D02*
X43608000Y-41195000D01*
X43608000Y-41195000D02*
X43688000Y-41275000D01*
D22*
X43608000Y-41195000D02*
X43688000Y-41275000D01*
D20*
X56388000Y-41275000D02*
X56388000Y-35496500D01*
X61214000Y-30670500D02*
X61214000Y-26289000D01*
X56388000Y-35496500D02*
X61214000Y-30670500D01*
X53848000Y-41275000D02*
X53848000Y-34861500D01*
X58714000Y-29995500D02*
X58714000Y-26289000D01*
X53848000Y-34861500D02*
X58714000Y-29995500D01*
X51308000Y-41275000D02*
X51308000Y-34417000D01*
X56214000Y-29511000D02*
X56214000Y-26289000D01*
X51308000Y-34417000D02*
X56214000Y-29511000D01*
X48768000Y-41275000D02*
X48768000Y-33718500D01*
X53714000Y-28772500D02*
X53714000Y-26289000D01*
X48768000Y-33718500D02*
X53714000Y-28772500D01*
X46228000Y-41275000D02*
X46228000Y-32829500D01*
X51214000Y-27843500D02*
X51214000Y-26289000D01*
X46228000Y-32829500D02*
X51214000Y-27843500D01*
X46214000Y-26289000D02*
X46214000Y-22937500D01*
X79248000Y-21018500D02*
X81311750Y-23082250D01*
X48133000Y-21018500D02*
X79248000Y-21018500D01*
X46214000Y-22937500D02*
X48133000Y-21018500D01*
X83756500Y-40830500D02*
X88582500Y-40830500D01*
X81534000Y-22860000D02*
X81311750Y-23082250D01*
X81311750Y-23082250D02*
X64008000Y-40386000D01*
X89916000Y-22860000D02*
X81534000Y-22860000D01*
X91186000Y-24130000D02*
X89916000Y-22860000D01*
X91186000Y-38227000D02*
X91186000Y-24130000D01*
X88582500Y-40830500D02*
X91186000Y-38227000D01*
X64008000Y-40386000D02*
X64008000Y-41275000D01*
X61468000Y-56515000D02*
X61468000Y-54356000D01*
X66992500Y-53340000D02*
X82804000Y-37528500D01*
X62484000Y-53340000D02*
X66992500Y-53340000D01*
X61468000Y-54356000D02*
X62484000Y-53340000D01*
X82804000Y-37528500D02*
X83756500Y-37528500D01*
X36068000Y-41275000D02*
X36068000Y-44831000D01*
X109156500Y-28384500D02*
X107315000Y-28384500D01*
X112141000Y-31369000D02*
X109156500Y-28384500D01*
X112141000Y-61976000D02*
X112141000Y-31369000D01*
X107315000Y-66802000D02*
X112141000Y-61976000D01*
X95885000Y-66802000D02*
X107315000Y-66802000D01*
X90805000Y-71882000D02*
X95885000Y-66802000D01*
X33528000Y-71882000D02*
X90805000Y-71882000D01*
X26035000Y-64389000D02*
X33528000Y-71882000D01*
X26035000Y-53848000D02*
X26035000Y-64389000D01*
X27178000Y-52705000D02*
X26035000Y-53848000D01*
X28194000Y-52705000D02*
X27178000Y-52705000D01*
X36068000Y-44831000D02*
X28194000Y-52705000D01*
X36068000Y-41275000D02*
X36068000Y-37782500D01*
X35369500Y-26289000D02*
X38714000Y-26289000D01*
X34036000Y-27622500D02*
X35369500Y-26289000D01*
X34036000Y-35750500D02*
X34036000Y-27622500D01*
X36068000Y-37782500D02*
X34036000Y-35750500D01*
X103251000Y-28575000D02*
X107124500Y-28575000D01*
X107124500Y-28575000D02*
X107315000Y-28384500D01*
D22*
X107505500Y-28575000D02*
X107696000Y-28384500D01*
X38714000Y-26289000D02*
X37846000Y-26289000D01*
D20*
X107315000Y-38544500D02*
X107315000Y-44894500D01*
X105854500Y-46355000D02*
X103251000Y-46355000D01*
X107315000Y-44894500D02*
X105854500Y-46355000D01*
D23*
X83756500Y-25844500D02*
X86423500Y-25844500D01*
X58928000Y-53467000D02*
X58928000Y-56515000D01*
X60960000Y-51435000D02*
X58928000Y-53467000D01*
X65405000Y-51435000D02*
X60960000Y-51435000D01*
X81788000Y-35052000D02*
X65405000Y-51435000D01*
X86233000Y-35052000D02*
X81788000Y-35052000D01*
X88011000Y-33274000D02*
X86233000Y-35052000D01*
X88011000Y-27432000D02*
X88011000Y-33274000D01*
X86423500Y-25844500D02*
X88011000Y-27432000D01*
D20*
X93916500Y-25844500D02*
X96075500Y-25844500D01*
X101219000Y-33655000D02*
X103251000Y-33655000D01*
X97091500Y-29527500D02*
X101219000Y-33655000D01*
X97091500Y-26860500D02*
X97091500Y-29527500D01*
X96075500Y-25844500D02*
X97091500Y-26860500D01*
D23*
X53848000Y-56515000D02*
X53848000Y-53213000D01*
X82486500Y-29273500D02*
X83756500Y-29273500D01*
X64643000Y-47117000D02*
X82486500Y-29273500D01*
X59944000Y-47117000D02*
X64643000Y-47117000D01*
X53848000Y-53213000D02*
X59944000Y-47117000D01*
D20*
X93916500Y-29273500D02*
X93916500Y-29337000D01*
X93916500Y-29337000D02*
X100774500Y-36195000D01*
X100774500Y-36195000D02*
X103251000Y-36195000D01*
D22*
X93916500Y-29273500D02*
X94297500Y-29273500D01*
D24*
X43688000Y-56515000D02*
X43688000Y-60833000D01*
X87820500Y-50736500D02*
X83756500Y-50736500D01*
X90233500Y-53149500D02*
X87820500Y-50736500D01*
X90233500Y-63119000D02*
X90233500Y-53149500D01*
X87185500Y-66167000D02*
X90233500Y-63119000D01*
X49022000Y-66167000D02*
X87185500Y-66167000D01*
X43688000Y-60833000D02*
X49022000Y-66167000D01*
D20*
X93916500Y-50736500D02*
X96520000Y-50736500D01*
X99758500Y-53975000D02*
X103251000Y-53975000D01*
X96520000Y-50736500D02*
X99758500Y-53975000D01*
X103251000Y-43815000D02*
X99123500Y-43815000D01*
X96266000Y-40957500D02*
X94043500Y-40957500D01*
X99123500Y-43815000D02*
X96266000Y-40957500D01*
X94043500Y-40957500D02*
X93916500Y-40830500D01*
X103251000Y-41275000D02*
X99377500Y-41275000D01*
X95631000Y-37528500D02*
X93916500Y-37528500D01*
X99377500Y-41275000D02*
X95631000Y-37528500D01*
D23*
X56388000Y-56515000D02*
X56388000Y-53594000D01*
X81788000Y-32639000D02*
X83756500Y-32639000D01*
X64897000Y-49530000D02*
X81788000Y-32639000D01*
X60452000Y-49530000D02*
X64897000Y-49530000D01*
X56388000Y-53594000D02*
X60452000Y-49530000D01*
D20*
X103251000Y-38735000D02*
X99631500Y-38735000D01*
X99631500Y-38735000D02*
X93916500Y-33020000D01*
X93916500Y-33020000D02*
X93916500Y-32639000D01*
D22*
X93916500Y-32639000D02*
X94170500Y-32639000D01*
X102463600Y-38862000D02*
X102819200Y-39217600D01*
D20*
X51308000Y-56515000D02*
X51308000Y-58356500D01*
X53721000Y-60769500D02*
X83756500Y-60769500D01*
X51308000Y-58356500D02*
X53721000Y-60769500D01*
X93916500Y-60769500D02*
X95885000Y-60769500D01*
X96710500Y-61595000D02*
X103251000Y-61595000D01*
X95885000Y-60769500D02*
X96710500Y-61595000D01*
D24*
X46228000Y-56515000D02*
X46228000Y-60198000D01*
X86804500Y-54038500D02*
X83756500Y-54038500D01*
X88646000Y-55880000D02*
X86804500Y-54038500D01*
X88646000Y-62484000D02*
X88646000Y-55880000D01*
X86487000Y-64643000D02*
X88646000Y-62484000D01*
X50673000Y-64643000D02*
X86487000Y-64643000D01*
X46228000Y-60198000D02*
X50673000Y-64643000D01*
D20*
X93916500Y-54038500D02*
X96393000Y-54038500D01*
X98869500Y-56515000D02*
X103251000Y-56515000D01*
X96393000Y-54038500D02*
X98869500Y-56515000D01*
D24*
X41148000Y-56515000D02*
X41148000Y-61214000D01*
X89344500Y-47434500D02*
X83756500Y-47434500D01*
X91630500Y-49720500D02*
X89344500Y-47434500D01*
X91630500Y-64071500D02*
X91630500Y-49720500D01*
X88074500Y-67627500D02*
X91630500Y-64071500D01*
X47561500Y-67627500D02*
X88074500Y-67627500D01*
X41148000Y-61214000D02*
X47561500Y-67627500D01*
D20*
X93916500Y-47434500D02*
X96774000Y-47434500D01*
X100774500Y-51435000D02*
X103251000Y-51435000D01*
X96774000Y-47434500D02*
X100774500Y-51435000D01*
X64008000Y-56515000D02*
X68008500Y-56515000D01*
X101282500Y-48895000D02*
X103251000Y-48895000D01*
X96710500Y-44323000D02*
X101282500Y-48895000D01*
X80200500Y-44323000D02*
X96710500Y-44323000D01*
X68008500Y-56515000D02*
X80200500Y-44323000D01*
D25*
G36*
X39436231Y-22606000D02*
X34607500Y-22606000D01*
X34558090Y-22616006D01*
X34517697Y-22643197D01*
X30771197Y-26389697D01*
X30743334Y-26431711D01*
X30734008Y-26478073D01*
X30608419Y-37655500D01*
X26733500Y-37655500D01*
X26684090Y-37665506D01*
X26642465Y-37693947D01*
X26615185Y-37736341D01*
X26606500Y-37782500D01*
X26606500Y-43751500D01*
X26616506Y-43800910D01*
X26644947Y-43842535D01*
X26687341Y-43869815D01*
X26733500Y-43878500D01*
X30734000Y-43878500D01*
X30734000Y-46622278D01*
X27948479Y-49593500D01*
X26589935Y-49593500D01*
X26540525Y-49603506D01*
X26505788Y-49625377D01*
X23373840Y-52395946D01*
X23343494Y-52436112D01*
X23261522Y-52606887D01*
X23249161Y-52655761D01*
X23256789Y-52705594D01*
X23283203Y-52748533D01*
X23324242Y-52777812D01*
X23373439Y-52788818D01*
X23423042Y-52779816D01*
X23458665Y-52758270D01*
X23939500Y-52346126D01*
X23939500Y-64770000D01*
X23949506Y-64819410D01*
X23977120Y-64860223D01*
X30736940Y-71556867D01*
X30744006Y-71591759D01*
X30776901Y-71637514D01*
X33274000Y-73844252D01*
X33274000Y-74154080D01*
X33284006Y-74203490D01*
X33312447Y-74245115D01*
X33354841Y-74272395D01*
X33401663Y-74281078D01*
X91567663Y-73977498D01*
X91617020Y-73967235D01*
X91653285Y-73943688D01*
X95082285Y-70768688D01*
X95085803Y-70765303D01*
X96446202Y-69404904D01*
X96507592Y-69404206D01*
X96556886Y-69393639D01*
X96592434Y-69370402D01*
X96760861Y-69214451D01*
X107769919Y-69092804D01*
X107819216Y-69082253D01*
X107855039Y-69058778D01*
X114069023Y-63275466D01*
X114098375Y-63234480D01*
X114109500Y-63182500D01*
X114109500Y-30416500D01*
X114099494Y-30367090D01*
X114074390Y-30328835D01*
X108803890Y-24804335D01*
X108762544Y-24775491D01*
X108712000Y-24765000D01*
X101536500Y-24765000D01*
X101487090Y-24775006D01*
X101450569Y-24798486D01*
X99314000Y-26761820D01*
X99314000Y-19979200D01*
X114954000Y-19979200D01*
X114954000Y-74615000D01*
X21004600Y-74615000D01*
X21004600Y-69861585D01*
X21220293Y-70077655D01*
X22200173Y-70484536D01*
X23261172Y-70485462D01*
X24241761Y-70080291D01*
X24992655Y-69330707D01*
X25231898Y-68754546D01*
X30582797Y-74195376D01*
X30624577Y-74223588D01*
X30674041Y-74233323D01*
X30723396Y-74223047D01*
X30764864Y-74194378D01*
X30791911Y-74151835D01*
X30800312Y-74109211D01*
X30811385Y-73621988D01*
X30802505Y-73572363D01*
X30771929Y-73527065D01*
X25379274Y-68399623D01*
X25399536Y-68350827D01*
X25400462Y-67289828D01*
X24995291Y-66309239D01*
X24245707Y-65558345D01*
X23265827Y-65151464D01*
X22204828Y-65150538D01*
X21224239Y-65555709D01*
X21004600Y-65774965D01*
X21004600Y-56294064D01*
X22952058Y-56294064D01*
X22952059Y-56296445D01*
X23007506Y-62035222D01*
X23017989Y-62084533D01*
X23046830Y-62125881D01*
X23089486Y-62152750D01*
X23139235Y-62160907D01*
X23188238Y-62149066D01*
X23228773Y-62119093D01*
X23254453Y-62075711D01*
X23261499Y-62034588D01*
X23303350Y-53078403D01*
X23293575Y-53028947D01*
X23265329Y-52987190D01*
X23223062Y-52959712D01*
X23173436Y-52950843D01*
X23124268Y-52961981D01*
X23083308Y-52991370D01*
X23061857Y-53022854D01*
X23043425Y-53061255D01*
X23031063Y-53110170D01*
X22995896Y-53848675D01*
X22985240Y-53863297D01*
X22973685Y-53915082D01*
X22952058Y-56294064D01*
X21004600Y-56294064D01*
X21004600Y-23886919D01*
X21601293Y-24484655D01*
X22581173Y-24891536D01*
X23642172Y-24892462D01*
X24622761Y-24487291D01*
X25373655Y-23737707D01*
X25780536Y-22757827D01*
X25781462Y-21696828D01*
X25376291Y-20716239D01*
X24640538Y-19979200D01*
X39493335Y-19979200D01*
X39436231Y-22606000D01*
X39436231Y-22606000D01*
G37*
X39436231Y-22606000D02*
X34607500Y-22606000D01*
X34558090Y-22616006D01*
X34517697Y-22643197D01*
X30771197Y-26389697D01*
X30743334Y-26431711D01*
X30734008Y-26478073D01*
X30608419Y-37655500D01*
X26733500Y-37655500D01*
X26684090Y-37665506D01*
X26642465Y-37693947D01*
X26615185Y-37736341D01*
X26606500Y-37782500D01*
X26606500Y-43751500D01*
X26616506Y-43800910D01*
X26644947Y-43842535D01*
X26687341Y-43869815D01*
X26733500Y-43878500D01*
X30734000Y-43878500D01*
X30734000Y-46622278D01*
X27948479Y-49593500D01*
X26589935Y-49593500D01*
X26540525Y-49603506D01*
X26505788Y-49625377D01*
X23373840Y-52395946D01*
X23343494Y-52436112D01*
X23261522Y-52606887D01*
X23249161Y-52655761D01*
X23256789Y-52705594D01*
X23283203Y-52748533D01*
X23324242Y-52777812D01*
X23373439Y-52788818D01*
X23423042Y-52779816D01*
X23458665Y-52758270D01*
X23939500Y-52346126D01*
X23939500Y-64770000D01*
X23949506Y-64819410D01*
X23977120Y-64860223D01*
X30736940Y-71556867D01*
X30744006Y-71591759D01*
X30776901Y-71637514D01*
X33274000Y-73844252D01*
X33274000Y-74154080D01*
X33284006Y-74203490D01*
X33312447Y-74245115D01*
X33354841Y-74272395D01*
X33401663Y-74281078D01*
X91567663Y-73977498D01*
X91617020Y-73967235D01*
X91653285Y-73943688D01*
X95082285Y-70768688D01*
X95085803Y-70765303D01*
X96446202Y-69404904D01*
X96507592Y-69404206D01*
X96556886Y-69393639D01*
X96592434Y-69370402D01*
X96760861Y-69214451D01*
X107769919Y-69092804D01*
X107819216Y-69082253D01*
X107855039Y-69058778D01*
X114069023Y-63275466D01*
X114098375Y-63234480D01*
X114109500Y-63182500D01*
X114109500Y-30416500D01*
X114099494Y-30367090D01*
X114074390Y-30328835D01*
X108803890Y-24804335D01*
X108762544Y-24775491D01*
X108712000Y-24765000D01*
X101536500Y-24765000D01*
X101487090Y-24775006D01*
X101450569Y-24798486D01*
X99314000Y-26761820D01*
X99314000Y-19979200D01*
X114954000Y-19979200D01*
X114954000Y-74615000D01*
X21004600Y-74615000D01*
X21004600Y-69861585D01*
X21220293Y-70077655D01*
X22200173Y-70484536D01*
X23261172Y-70485462D01*
X24241761Y-70080291D01*
X24992655Y-69330707D01*
X25231898Y-68754546D01*
X30582797Y-74195376D01*
X30624577Y-74223588D01*
X30674041Y-74233323D01*
X30723396Y-74223047D01*
X30764864Y-74194378D01*
X30791911Y-74151835D01*
X30800312Y-74109211D01*
X30811385Y-73621988D01*
X30802505Y-73572363D01*
X30771929Y-73527065D01*
X25379274Y-68399623D01*
X25399536Y-68350827D01*
X25400462Y-67289828D01*
X24995291Y-66309239D01*
X24245707Y-65558345D01*
X23265827Y-65151464D01*
X22204828Y-65150538D01*
X21224239Y-65555709D01*
X21004600Y-65774965D01*
X21004600Y-56294064D01*
X22952058Y-56294064D01*
X22952059Y-56296445D01*
X23007506Y-62035222D01*
X23017989Y-62084533D01*
X23046830Y-62125881D01*
X23089486Y-62152750D01*
X23139235Y-62160907D01*
X23188238Y-62149066D01*
X23228773Y-62119093D01*
X23254453Y-62075711D01*
X23261499Y-62034588D01*
X23303350Y-53078403D01*
X23293575Y-53028947D01*
X23265329Y-52987190D01*
X23223062Y-52959712D01*
X23173436Y-52950843D01*
X23124268Y-52961981D01*
X23083308Y-52991370D01*
X23061857Y-53022854D01*
X23043425Y-53061255D01*
X23031063Y-53110170D01*
X22995896Y-53848675D01*
X22985240Y-53863297D01*
X22973685Y-53915082D01*
X22952058Y-56294064D01*
X21004600Y-56294064D01*
X21004600Y-23886919D01*
X21601293Y-24484655D01*
X22581173Y-24891536D01*
X23642172Y-24892462D01*
X24622761Y-24487291D01*
X25373655Y-23737707D01*
X25780536Y-22757827D01*
X25781462Y-21696828D01*
X25376291Y-20716239D01*
X24640538Y-19979200D01*
X39493335Y-19979200D01*
X39436231Y-22606000D01*
G36*
X36007503Y-60127558D02*
X45801024Y-70231000D01*
X35242500Y-70231000D01*
X35242500Y-60025557D01*
X36007503Y-60127558D01*
X36007503Y-60127558D01*
G37*
X36007503Y-60127558D02*
X45801024Y-70231000D01*
X35242500Y-70231000D01*
X35242500Y-60025557D01*
X36007503Y-60127558D01*
G36*
X50492926Y-49720500D02*
X40132000Y-49720500D01*
X40082590Y-49730506D01*
X40042197Y-49757697D01*
X36740197Y-53059697D01*
X36712334Y-53101711D01*
X36703000Y-53149500D01*
X36703000Y-54813113D01*
X36461550Y-54683020D01*
X36401329Y-54672284D01*
X36195000Y-54795626D01*
X36195000Y-56388000D01*
X36215000Y-56388000D01*
X36215000Y-56642000D01*
X36195000Y-56642000D01*
X36195000Y-56662000D01*
X35941000Y-56662000D01*
X35941000Y-56642000D01*
X35921000Y-56642000D01*
X35921000Y-56388000D01*
X35941000Y-56388000D01*
X35941000Y-54795626D01*
X35734671Y-54672284D01*
X35674450Y-54683020D01*
X35496500Y-54778899D01*
X35496500Y-53467000D01*
X35486494Y-53417590D01*
X35458053Y-53375965D01*
X35415659Y-53348685D01*
X35369500Y-53340000D01*
X31667723Y-53340000D01*
X39804993Y-44894500D01*
X55258601Y-44894500D01*
X50492926Y-49720500D01*
X50492926Y-49720500D01*
G37*
X50492926Y-49720500D02*
X40132000Y-49720500D01*
X40082590Y-49730506D01*
X40042197Y-49757697D01*
X36740197Y-53059697D01*
X36712334Y-53101711D01*
X36703000Y-53149500D01*
X36703000Y-54813113D01*
X36461550Y-54683020D01*
X36401329Y-54672284D01*
X36195000Y-54795626D01*
X36195000Y-56388000D01*
X36215000Y-56388000D01*
X36215000Y-56642000D01*
X36195000Y-56642000D01*
X36195000Y-56662000D01*
X35941000Y-56662000D01*
X35941000Y-56642000D01*
X35921000Y-56642000D01*
X35921000Y-56388000D01*
X35941000Y-56388000D01*
X35941000Y-54795626D01*
X35734671Y-54672284D01*
X35674450Y-54683020D01*
X35496500Y-54778899D01*
X35496500Y-53467000D01*
X35486494Y-53417590D01*
X35458053Y-53375965D01*
X35415659Y-53348685D01*
X35369500Y-53340000D01*
X31667723Y-53340000D01*
X39804993Y-44894500D01*
X55258601Y-44894500D01*
X50492926Y-49720500D01*
M02*
