G04 #@! TF.FileFunction,Copper,L1,Top,Signal*
%FSLAX46Y46*%
G04 Gerber Fmt 4.6, Leading zero omitted, Abs format (unit mm)*
G04 Created by KiCad (PCBNEW 4.0.7) date 03/14/18 21:03:42*
%MOMM*%
%LPD*%
G01*
G04 APERTURE LIST*
%ADD10C,0.100000*%
%ADD11C,2.500000*%
%ADD12O,2.000000X1.700000*%
%ADD13R,2.000000X1.700000*%
%ADD14R,1.750000X2.000000*%
%ADD15O,1.750000X2.000000*%
%ADD16C,2.000000*%
%ADD17O,1.400000X2.500000*%
%ADD18C,4.064000*%
%ADD19C,0.800000*%
%ADD20C,1.000000*%
G04 APERTURE END LIST*
D10*
D11*
X72453500Y-26289000D03*
D12*
X103251000Y-61595000D03*
X103251000Y-59055000D03*
X103251000Y-56515000D03*
X103251000Y-53975000D03*
X103251000Y-51435000D03*
X103251000Y-48895000D03*
X103251000Y-46355000D03*
X103251000Y-43815000D03*
X103251000Y-41275000D03*
X103251000Y-38735000D03*
X103251000Y-36195000D03*
X103251000Y-33655000D03*
X103251000Y-31115000D03*
D13*
X103251000Y-28575000D03*
D14*
X32194500Y-63754000D03*
D15*
X29694500Y-63754000D03*
D14*
X38608000Y-33401000D03*
D15*
X41108000Y-33401000D03*
X43608000Y-33401000D03*
D14*
X61214000Y-26289000D03*
D15*
X58714000Y-26289000D03*
X56214000Y-26289000D03*
X53714000Y-26289000D03*
X51214000Y-26289000D03*
X48714000Y-26289000D03*
X46214000Y-26289000D03*
X43714000Y-26289000D03*
X41214000Y-26289000D03*
X38714000Y-26289000D03*
D16*
X107315000Y-28384500D03*
X107315000Y-38544500D03*
X83756500Y-25844500D03*
X93916500Y-25844500D03*
X83756500Y-29273500D03*
X93916500Y-29273500D03*
X83756500Y-50736500D03*
X93916500Y-50736500D03*
X83756500Y-40830500D03*
X93916500Y-40830500D03*
X83756500Y-37528500D03*
X93916500Y-37528500D03*
X83756500Y-32639000D03*
X93916500Y-32639000D03*
X83756500Y-60769500D03*
X93916500Y-60769500D03*
X83756500Y-54038500D03*
X93916500Y-54038500D03*
X83756500Y-47434500D03*
X93916500Y-47434500D03*
D17*
X28448000Y-41275000D03*
X28448000Y-56515000D03*
X30988000Y-41275000D03*
X30988000Y-56515000D03*
X33528000Y-41275000D03*
X33528000Y-56515000D03*
X36068000Y-41275000D03*
X36068000Y-56515000D03*
X38608000Y-41275000D03*
X38608000Y-56515000D03*
X41148000Y-41275000D03*
X41148000Y-56515000D03*
X43688000Y-41275000D03*
X43688000Y-56515000D03*
X46228000Y-41275000D03*
X46228000Y-56515000D03*
X48768000Y-41275000D03*
X48768000Y-56515000D03*
X51308000Y-41275000D03*
X51308000Y-56515000D03*
X53848000Y-41275000D03*
X53848000Y-56515000D03*
X56388000Y-41275000D03*
X56388000Y-56515000D03*
X58928000Y-41275000D03*
X58928000Y-56515000D03*
X61468000Y-41275000D03*
X61468000Y-56515000D03*
X64008000Y-41275000D03*
X64008000Y-56515000D03*
D18*
X23114000Y-22225000D03*
X22733000Y-67818000D03*
D19*
X48714000Y-26289000D02*
X48714000Y-24057000D01*
X38608000Y-54419500D02*
X38608000Y-56515000D01*
X40703500Y-52324000D02*
X38608000Y-54419500D01*
X51498500Y-52324000D02*
X40703500Y-52324000D01*
X58674000Y-45148500D02*
X51498500Y-52324000D01*
X63944500Y-45148500D02*
X58674000Y-45148500D01*
X73723500Y-35369500D02*
X63944500Y-45148500D01*
X73723500Y-33401000D02*
X73723500Y-35369500D01*
X63500000Y-23177500D02*
X73723500Y-33401000D01*
X49593500Y-23177500D02*
X63500000Y-23177500D01*
X48714000Y-24057000D02*
X49593500Y-23177500D01*
D20*
X43714000Y-26289000D02*
X43714000Y-23405500D01*
X79502000Y-37528500D02*
X83756500Y-37528500D01*
X78422500Y-36449000D02*
X79502000Y-37528500D01*
X78422500Y-24892000D02*
X78422500Y-36449000D01*
X74485500Y-20955000D02*
X78422500Y-24892000D01*
X46164500Y-20955000D02*
X74485500Y-20955000D01*
X43714000Y-23405500D02*
X46164500Y-20955000D01*
X48768000Y-56515000D02*
X48768000Y-59055000D01*
X97790000Y-59055000D02*
X103251000Y-59055000D01*
X96329500Y-57594500D02*
X97790000Y-59055000D01*
X88900000Y-57594500D02*
X96329500Y-57594500D01*
X87630000Y-58864500D02*
X88900000Y-57594500D01*
X87630000Y-61722000D02*
X87630000Y-58864500D01*
X85979000Y-63373000D02*
X87630000Y-61722000D01*
X53086000Y-63373000D02*
X85979000Y-63373000D01*
X48768000Y-59055000D02*
X53086000Y-63373000D01*
M02*
