<?xml version="1.0" standalone="no"?>
<!DOCTYPE svg PUBLIC "-//W3C//DTD SVG 20010904//EN"
 "http://www.w3.org/TR/2001/REC-SVG-20010904/DTD/svg10.dtd">
<svg version="1.0" xmlns="http://www.w3.org/2000/svg"
 width="512.000000pt" height="512.000000pt" viewBox="0 0 512.000000 512.000000"
 preserveAspectRatio="xMidYMid meet">
<metadata>
Created by potrace 1.11, written by Peter Selinger 2001-2013
</metadata>
<g transform="translate(0.000000,512.000000) scale(0.100000,-0.100000)"
fill="#000000" stroke="none">
<path d="M2531 5043 c-69 -36 -76 -55 -77 -234 0 -87 -3 -161 -5 -164 -3 -2
-48 -7 -100 -10 -177 -9 -240 -16 -369 -37 -36 -5 -76 -12 -90 -14 -52 -7
-258 -64 -340 -93 -47 -17 -129 -53 -182 -80 -404 -204 -634 -542 -676 -996
-3 -38 -6 -466 -6 -950 1 -761 3 -893 17 -975 46 -268 147 -482 310 -657 43
-46 189 -159 262 -204 83 -49 225 -113 335 -148 l66 -21 1 -124 c1 -143 12
-175 72 -205 28 -15 51 -19 85 -15 95 9 128 60 127 196 -1 49 2 87 7 84 7 -4
65 -12 162 -22 257 -27 749 -21 900 11 14 3 45 7 70 10 146 18 415 95 560 162
449 205 684 538 736 1043 3 30 6 431 6 890 0 727 -2 881 -17 1010 -8 61 -29
150 -56 233 -94 288 -296 516 -591 667 -84 44 -259 114 -308 125 -8 2 -49 12
-90 24 -91 24 -205 47 -280 56 -30 3 -66 8 -80 10 -42 6 -142 15 -192 17 l-48
1 -1 151 c-1 163 -2 180 -19 211 -31 55 -128 80 -189 48z m-78 -1205 c0 -183
-2 -338 -2 -344 -1 -7 -103 -11 -339 -11 -238 0 -344 -3 -359 -12 -96 -51 -99
-199 -6 -254 31 -17 72 -18 845 -18 515 -1 822 3 839 9 78 31 107 143 56 219
-37 55 -49 56 -413 56 l-334 0 0 344 0 345 78 -6 c87 -7 157 -15 188 -21 11
-2 45 -7 75 -11 30 -3 62 -10 72 -16 9 -5 17 -7 17 -4 0 6 111 -26 170 -49
238 -93 378 -193 475 -340 118 -180 119 -185 119 -1220 0 -951 -3 -993 -70
-1141 -29 -63 -104 -167 -158 -217 -53 -50 -153 -116 -241 -160 -67 -33 -223
-92 -268 -101 -12 -3 -53 -11 -92 -19 -38 -9 -101 -19 -140 -22 -38 -4 -79
-10 -90 -12 -39 -10 -541 -12 -637 -3 -130 12 -215 24 -259 36 -15 4 -17 43
-17 414 l-1 409 640 1 639 0 0 -123 c0 -99 3 -129 18 -156 48 -90 189 -93 247
-5 19 28 21 45 20 235 -1 189 -3 208 -23 250 -42 88 23 82 -892 81 -444 0
-821 -3 -837 -6 -41 -9 -80 -53 -90 -101 -5 -22 -8 -231 -7 -465 1 -234 -1
-428 -3 -432 -5 -9 -112 47 -191 99 -148 98 -267 263 -301 416 -23 101 -26
219 -26 1047 1 992 0 975 76 1130 76 153 236 289 449 380 61 26 112 45 150 55
3 1 23 6 45 13 48 13 86 21 140 28 22 2 45 7 52 9 7 2 45 7 85 11 40 3 74 7
75 8 2 1 53 3 115 5 l113 2 -2 -333z"/>
<path d="M1746 2708 c-95 -49 -93 -198 4 -246 32 -16 59 -18 169 -17 141 1
159 7 203 66 47 62 18 163 -56 198 -57 27 -266 27 -320 -1z"/>
<path d="M2482 2721 c-33 -9 -79 -57 -92 -96 -23 -69 24 -154 95 -173 17 -5
85 -8 152 -7 132 1 152 8 195 66 45 62 24 153 -46 193 -37 22 -53 24 -161 23
-66 0 -130 -3 -143 -6z"/>
<path d="M3134 2715 c-90 -39 -115 -162 -45 -229 39 -37 69 -43 212 -41 111 1
129 4 156 23 81 57 82 176 2 233 -31 22 -44 24 -165 25 -85 1 -141 -3 -160
-11z"/>
</g>
</svg>
