%FSLAX44Y44*%
%MOMM*%
G71*
G01*
G75*
G04 Layer_Physical_Order=2*
G04 Layer_Color=16711680*
%ADD10R,2.5000X2.3000*%
%ADD11R,1.2500X1.7500*%
%ADD12R,2.3000X2.5000*%
%ADD13R,1.7500X1.2500*%
%ADD14R,0.4318X1.4224*%
%ADD15R,2.4130X3.0988*%
%ADD16R,1.7272X0.5334*%
%ADD17R,2.0000X2.2000*%
%ADD18O,1.7000X0.3000*%
%ADD19R,1.5700X1.8800*%
%ADD20R,2.0000X4.1000*%
%ADD21C,0.4000*%
%ADD22C,1.8000*%
%ADD23C,1.2500*%
%ADD24C,0.5080*%
%ADD25C,1.7000*%
%ADD26C,0.3000*%
%ADD27C,0.6000*%
%ADD28C,0.1524*%
%ADD29C,2.2000*%
%ADD30C,1.5000*%
%ADD31C,0.7000*%
%ADD32C,1.2500*%
%ADD33C,0.6500*%
G04:AMPARAMS|DCode=34|XSize=3.2mm|YSize=1.6mm|CornerRadius=0.4mm|HoleSize=0mm|Usage=FLASHONLY|Rotation=90.000|XOffset=0mm|YOffset=0mm|HoleType=Round|Shape=RoundedRectangle|*
%AMROUNDEDRECTD34*
21,1,3.2000,0.8000,0,0,90.0*
21,1,2.4000,1.6000,0,0,90.0*
1,1,0.8000,0.4000,1.2000*
1,1,0.8000,0.4000,-1.2000*
1,1,0.8000,-0.4000,-1.2000*
1,1,0.8000,-0.4000,1.2000*
%
%ADD34ROUNDEDRECTD34*%
G04:AMPARAMS|DCode=35|XSize=3.2mm|YSize=1.6mm|CornerRadius=0.4mm|HoleSize=0mm|Usage=FLASHONLY|Rotation=180.000|XOffset=0mm|YOffset=0mm|HoleType=Round|Shape=RoundedRectangle|*
%AMROUNDEDRECTD35*
21,1,3.2000,0.8000,0,0,180.0*
21,1,2.4000,1.6000,0,0,180.0*
1,1,0.8000,-1.2000,0.4000*
1,1,0.8000,1.2000,0.4000*
1,1,0.8000,1.2000,-0.4000*
1,1,0.8000,-1.2000,-0.4000*
%
%ADD35ROUNDEDRECTD35*%
%ADD36C,1.7000*%
G04:AMPARAMS|DCode=37|XSize=1.6mm|YSize=1.6mm|CornerRadius=0.16mm|HoleSize=0mm|Usage=FLASHONLY|Rotation=180.000|XOffset=0mm|YOffset=0mm|HoleType=Round|Shape=RoundedRectangle|*
%AMROUNDEDRECTD37*
21,1,1.6000,1.2800,0,0,180.0*
21,1,1.2800,1.6000,0,0,180.0*
1,1,0.3200,-0.6400,0.6400*
1,1,0.3200,0.6400,0.6400*
1,1,0.3200,0.6400,-0.6400*
1,1,0.3200,-0.6400,-0.6400*
%
%ADD37ROUNDEDRECTD37*%
%ADD38C,0.8500*%
%ADD39C,1.1000*%
%ADD40C,0.8050*%
%ADD41C,0.8000*%
G36*
X297500Y25000D02*
Y-37463D01*
X296327Y-37949D01*
X278092Y-19714D01*
X277852Y-17896D01*
X277040Y-15935D01*
X275748Y-14252D01*
X274065Y-12960D01*
X272104Y-12148D01*
X270000Y-11870D01*
X267896Y-12148D01*
X265935Y-12960D01*
X264251Y-14252D01*
X262960Y-15935D01*
X262148Y-17896D01*
X261870Y-20000D01*
X262148Y-22104D01*
X262960Y-24065D01*
X264251Y-25749D01*
X265935Y-27040D01*
X267896Y-27852D01*
X269714Y-28092D01*
X294076Y-52454D01*
Y-94480D01*
X292960Y-95935D01*
X292148Y-97896D01*
X291870Y-100000D01*
X292148Y-102104D01*
X292960Y-104065D01*
X294252Y-105749D01*
X295935Y-107040D01*
X297500Y-107689D01*
Y-140000D01*
X292500Y-145000D01*
X222500D01*
X217500Y-140000D01*
Y25000D01*
X222500Y30000D01*
X292500D01*
X297500Y25000D01*
D02*
G37*
G36*
X80000Y140000D02*
Y85000D01*
X115000Y50000D01*
X130000D01*
X190000Y50000D01*
X200000Y40000D01*
X215000Y25000D01*
Y-140000D01*
X210000Y-145000D01*
X115676D01*
X115114Y-143861D01*
X115822Y-142939D01*
X116609Y-141039D01*
X116877Y-139000D01*
Y-115000D01*
X116609Y-112961D01*
X115822Y-111061D01*
X114570Y-109430D01*
X112939Y-108178D01*
X111039Y-107391D01*
X109000Y-107123D01*
X101000D01*
X98961Y-107391D01*
X97061Y-108178D01*
X95430Y-109430D01*
X94178Y-111061D01*
X93391Y-112961D01*
X93123Y-115000D01*
Y-139000D01*
X93391Y-141039D01*
X94178Y-142939D01*
X94886Y-143861D01*
X94324Y-145000D01*
X72500D01*
X67500Y-140000D01*
Y-73801D01*
X67500Y-73800D01*
X68696Y-72011D01*
X69116Y-69900D01*
Y-57100D01*
X68696Y-54989D01*
X67500Y-53200D01*
X67500Y-53199D01*
X67500Y53274D01*
X68646Y54989D01*
X69066Y57100D01*
Y69900D01*
X68646Y72011D01*
X67500Y73726D01*
Y75000D01*
X62500Y80000D01*
Y140000D01*
X67500Y145000D01*
X75000D01*
X80000Y140000D01*
D02*
G37*
G36*
X302712Y142419D02*
X302953Y142406D01*
X303398Y142330D01*
X303817Y142228D01*
X304007Y142165D01*
X304185Y142101D01*
X304350Y142038D01*
X304503Y141974D01*
X304630Y141923D01*
X304744Y141873D01*
X304833Y141834D01*
X304897Y141796D01*
X304935Y141784D01*
X304947Y141771D01*
X305163Y141644D01*
X305379Y141504D01*
X305570Y141365D01*
X305747Y141212D01*
X305912Y141060D01*
X306078Y140895D01*
X306217Y140742D01*
X306344Y140603D01*
X306446Y140463D01*
X306548Y140336D01*
X306636Y140222D01*
X306700Y140120D01*
X306751Y140031D01*
X306801Y139968D01*
X306814Y139930D01*
X306827Y139917D01*
X306941Y139688D01*
X307043Y139460D01*
X307144Y139231D01*
X307221Y139015D01*
X307335Y138596D01*
X307386Y138393D01*
X307411Y138202D01*
X307449Y138037D01*
X307462Y137885D01*
X307475Y137745D01*
X307487Y137631D01*
X307500Y137529D01*
Y137466D01*
Y137415D01*
Y137402D01*
X307487Y137161D01*
X307475Y136920D01*
X307398Y136462D01*
X307297Y136043D01*
X307233Y135853D01*
X307170Y135662D01*
X307106Y135497D01*
X307043Y135345D01*
X306992Y135218D01*
X306941Y135104D01*
X306903Y135015D01*
X306865Y134951D01*
X306852Y134913D01*
X306840Y134900D01*
X306713Y134684D01*
X306573Y134481D01*
X306420Y134291D01*
X306268Y134113D01*
X306116Y133948D01*
X305963Y133795D01*
X305811Y133656D01*
X305658Y133529D01*
X305532Y133414D01*
X305392Y133313D01*
X305278Y133237D01*
X305176Y133173D01*
X305100Y133110D01*
X305036Y133071D01*
X304998Y133059D01*
X304985Y133046D01*
X304757Y132932D01*
X304528Y132830D01*
X304312Y132741D01*
X304084Y132665D01*
X303665Y132551D01*
X303461Y132500D01*
X303284Y132475D01*
X303106Y132437D01*
X302953Y132424D01*
X302826Y132411D01*
X302699Y132398D01*
X302610Y132386D01*
X302484D01*
X302242Y132398D01*
X302001Y132411D01*
X301544Y132487D01*
X301112Y132589D01*
X300921Y132652D01*
X300744Y132716D01*
X300578Y132779D01*
X300426Y132843D01*
X300299Y132894D01*
X300185Y132944D01*
X300096Y132983D01*
X300032Y133021D01*
X299994Y133033D01*
X299982Y133046D01*
X299766Y133173D01*
X299562Y133313D01*
X299372Y133465D01*
X299181Y133618D01*
X299016Y133770D01*
X298864Y133922D01*
X298737Y134075D01*
X298610Y134227D01*
X298496Y134354D01*
X298394Y134494D01*
X298318Y134608D01*
X298254Y134710D01*
X298191Y134786D01*
X298153Y134850D01*
X298140Y134888D01*
X298127Y134900D01*
X298013Y135129D01*
X297899Y135358D01*
X297810Y135573D01*
X297734Y135802D01*
X297619Y136221D01*
X297569Y136424D01*
X297543Y136602D01*
X297505Y136780D01*
X297492Y136932D01*
X297480Y137059D01*
X297467Y137186D01*
X297454Y137275D01*
Y137339D01*
Y137389D01*
Y137402D01*
X297467Y137643D01*
X297480Y137885D01*
X297556Y138342D01*
X297670Y138774D01*
X297734Y138964D01*
X297785Y139155D01*
X297848Y139320D01*
X297911Y139472D01*
X297975Y139599D01*
X298026Y139714D01*
X298064Y139803D01*
X298102Y139866D01*
X298115Y139904D01*
X298127Y139917D01*
X298254Y140133D01*
X298407Y140349D01*
X298547Y140539D01*
X298699Y140717D01*
X298864Y140882D01*
X299016Y141034D01*
X299169Y141174D01*
X299321Y141301D01*
X299461Y141403D01*
X299588Y141504D01*
X299702Y141580D01*
X299804Y141657D01*
X299893Y141707D01*
X299956Y141746D01*
X299994Y141758D01*
X300007Y141771D01*
X300236Y141885D01*
X300464Y141987D01*
X300680Y142076D01*
X300909Y142152D01*
X301315Y142266D01*
X301518Y142317D01*
X301696Y142355D01*
X301861Y142381D01*
X302014Y142393D01*
X302153Y142406D01*
X302268Y142419D01*
X302356Y142431D01*
X302484D01*
X302712Y142419D01*
D02*
G37*
G36*
X465000Y140000D02*
Y74598D01*
X464441Y74039D01*
X463157Y72117D01*
X462706Y69850D01*
Y20812D01*
X461650Y20107D01*
X460574Y20552D01*
X458470Y20830D01*
X456366Y20552D01*
X454405Y19740D01*
X452721Y18448D01*
X451430Y16765D01*
X450617Y14804D01*
X450378Y12986D01*
X436501Y-891D01*
X435217Y-2813D01*
X434766Y-5080D01*
Y-42283D01*
X433708Y-42987D01*
D01*
D01*
X430714Y-41747D01*
X427500Y-41324D01*
X424286Y-41747D01*
X421292Y-42987D01*
X418720Y-44960D01*
X416747Y-47532D01*
X415507Y-50526D01*
X415084Y-53740D01*
X415507Y-56954D01*
X416747Y-59948D01*
X418720Y-62520D01*
X421292Y-64493D01*
X423977Y-65605D01*
Y-66875D01*
X421292Y-67987D01*
X418720Y-69960D01*
X416747Y-72532D01*
X415507Y-75526D01*
X415084Y-78740D01*
X415507Y-81954D01*
X416747Y-84948D01*
X418720Y-87520D01*
X421292Y-89493D01*
X423977Y-90605D01*
Y-91875D01*
X421292Y-92987D01*
X418720Y-94960D01*
X416747Y-97532D01*
X415507Y-100526D01*
X415084Y-103740D01*
X415507Y-106954D01*
X416747Y-109948D01*
X418720Y-112520D01*
X421292Y-114493D01*
X424286Y-115733D01*
X427500Y-116156D01*
X430714Y-115733D01*
X433708Y-114493D01*
X436280Y-112520D01*
X438253Y-109948D01*
X439493Y-106954D01*
X439916Y-103740D01*
X439493Y-100526D01*
X438253Y-97532D01*
X436280Y-94960D01*
X433708Y-92987D01*
X431023Y-91875D01*
Y-90605D01*
X433708Y-89493D01*
X436280Y-87520D01*
X438253Y-84948D01*
X439493Y-81954D01*
X439916Y-78740D01*
X439493Y-75526D01*
X439375Y-75242D01*
X444879Y-69739D01*
X446163Y-67817D01*
X446614Y-65550D01*
Y-7534D01*
X458756Y4608D01*
X460574Y4848D01*
X461650Y5293D01*
X462706Y4588D01*
Y-40519D01*
X461751Y-41357D01*
X461500Y-41324D01*
X458287Y-41747D01*
X455292Y-42987D01*
X452720Y-44960D01*
X450747Y-47532D01*
X449507Y-50526D01*
X449084Y-53740D01*
X449507Y-56954D01*
X450747Y-59948D01*
X452720Y-62520D01*
X455292Y-64493D01*
X457977Y-65605D01*
Y-66875D01*
X455292Y-67987D01*
X452720Y-69960D01*
X450747Y-72532D01*
X449507Y-75526D01*
X449084Y-78740D01*
X449507Y-81954D01*
X450747Y-84948D01*
X452720Y-87520D01*
X455292Y-89493D01*
X457977Y-90605D01*
Y-91875D01*
X455292Y-92987D01*
X452720Y-94960D01*
X450747Y-97532D01*
X449507Y-100526D01*
X449084Y-103740D01*
X449507Y-106954D01*
X450747Y-109948D01*
X452720Y-112520D01*
X455292Y-114493D01*
X458287Y-115733D01*
X461500Y-116156D01*
X464045Y-115821D01*
X465000Y-116658D01*
Y-140000D01*
X460000Y-145000D01*
X305000D01*
X300000Y-140000D01*
Y-108130D01*
X302104Y-107852D01*
X304065Y-107040D01*
X305749Y-105749D01*
X307040Y-104065D01*
X307852Y-102104D01*
X308130Y-100000D01*
X307852Y-97896D01*
X307040Y-95935D01*
X305924Y-94480D01*
Y-50000D01*
X305473Y-47733D01*
X304189Y-45811D01*
X300000Y-41623D01*
Y42500D01*
X306428Y48928D01*
X307517Y48275D01*
X307404Y47903D01*
X307118Y45000D01*
X307404Y42097D01*
X308251Y39305D01*
X309626Y36732D01*
X311477Y34477D01*
X313732Y32626D01*
X316305Y31251D01*
X319097Y30404D01*
X322000Y30118D01*
X324903Y30404D01*
X327695Y31251D01*
X330268Y32626D01*
X332523Y34477D01*
X334374Y36732D01*
X335749Y39305D01*
X336596Y42097D01*
X336882Y45000D01*
X336596Y47903D01*
X335749Y50695D01*
X334374Y53268D01*
X332523Y55523D01*
X330268Y57374D01*
X327695Y58749D01*
X324903Y59596D01*
X322000Y59882D01*
X319097Y59596D01*
X318725Y59483D01*
X318072Y60572D01*
X342500Y85000D01*
Y140000D01*
X347500Y145000D01*
X460000D01*
X465000Y140000D01*
D02*
G37*
G36*
X165000Y140000D02*
X165000Y67500D01*
X152500Y55000D01*
X115494D01*
X85000Y85494D01*
Y140000D01*
X90000Y145000D01*
X160000D01*
X165000Y140000D01*
D02*
G37*
G36*
X575000Y140000D02*
Y100000D01*
X590000Y85000D01*
X630000D01*
X635000Y80000D01*
Y45861D01*
X633944Y45155D01*
X632149Y45899D01*
X630110Y46167D01*
X606110D01*
X604071Y45899D01*
X602171Y45112D01*
X600540Y43860D01*
X599288Y42229D01*
X598501Y40329D01*
X598233Y38290D01*
Y30290D01*
X597978Y30000D01*
X527500D01*
X515000Y17500D01*
Y-5000D01*
X520000D01*
Y15000D01*
X530000Y25000D01*
X600325D01*
X600540Y24720D01*
X602171Y23468D01*
X604071Y22681D01*
X606110Y22413D01*
X630110D01*
X632149Y22681D01*
X633944Y23425D01*
X635000Y22719D01*
Y-80000D01*
X630000Y-85000D01*
X590000D01*
X575000Y-100000D01*
Y-140000D01*
X570000Y-145000D01*
X475000D01*
X470000Y-140000D01*
X469900Y-139700D01*
X469920Y-112795D01*
X470280Y-112520D01*
X472253Y-109948D01*
X473493Y-106954D01*
X473916Y-103740D01*
X473493Y-100526D01*
X472253Y-97532D01*
X470280Y-94960D01*
X469933Y-94695D01*
X469939Y-87781D01*
X470280Y-87520D01*
X472253Y-84948D01*
X473493Y-81954D01*
X473916Y-78740D01*
X473493Y-75526D01*
X473375Y-75242D01*
X479169Y-69449D01*
X480453Y-67527D01*
X480904Y-65260D01*
Y-10000D01*
Y63586D01*
X496484Y79166D01*
X513377D01*
X513660Y78485D01*
X514952Y76802D01*
X516635Y75510D01*
X518596Y74697D01*
X520700Y74420D01*
X522804Y74697D01*
X524765Y75510D01*
X526449Y76802D01*
X527740Y78485D01*
X528553Y80446D01*
X528829Y82550D01*
X528553Y84654D01*
X527740Y86615D01*
X526449Y88298D01*
Y89502D01*
X527740Y91185D01*
X528553Y93146D01*
X528829Y95250D01*
X528553Y97354D01*
X527740Y99315D01*
X526449Y100998D01*
X524765Y102290D01*
X522804Y103103D01*
X520700Y103379D01*
X518596Y103103D01*
X516635Y102290D01*
X514952Y100998D01*
X513660Y99315D01*
X512851Y97364D01*
X490220D01*
X487953Y96913D01*
X486031Y95629D01*
X471173Y80771D01*
X470000Y81257D01*
Y140000D01*
X475000Y145000D01*
X570000D01*
X575000Y140000D01*
D02*
G37*
%LPC*%
G36*
X356870Y26927D02*
X354831Y26659D01*
X352931Y25872D01*
X351300Y24620D01*
X350048Y22989D01*
X349261Y21089D01*
X349068Y19626D01*
X314581Y-14861D01*
X313297Y-16783D01*
X312846Y-19050D01*
Y-45280D01*
X311730Y-46735D01*
X310917Y-48696D01*
X310641Y-50800D01*
X310917Y-52904D01*
X311730Y-54865D01*
X313022Y-56549D01*
X314705Y-57840D01*
X316666Y-58653D01*
X318770Y-58930D01*
X320874Y-58653D01*
X322835Y-57840D01*
X324519Y-56549D01*
X325810Y-54865D01*
X326623Y-52904D01*
X326899Y-50800D01*
X326623Y-48696D01*
X325810Y-46735D01*
X324694Y-45280D01*
Y-21504D01*
X357446Y11249D01*
X358909Y11441D01*
X360809Y12228D01*
X362440Y13480D01*
X363692Y15111D01*
X364479Y17011D01*
X364747Y19050D01*
X364479Y21089D01*
X363692Y22989D01*
X362440Y24620D01*
X360809Y25872D01*
X358909Y26659D01*
X356870Y26927D01*
D02*
G37*
G36*
X302585Y141593D02*
X302280D01*
X302090Y141568D01*
X301721Y141504D01*
X301366Y141415D01*
X301061Y141327D01*
X300921Y141276D01*
X300794Y141225D01*
X300693Y141174D01*
X300604Y141136D01*
X300528Y141098D01*
X300477Y141073D01*
X300439Y141060D01*
X300426Y141047D01*
X300070Y140819D01*
X299753Y140577D01*
X299486Y140323D01*
X299270Y140069D01*
X299093Y139841D01*
X299029Y139752D01*
X298966Y139663D01*
X298927Y139599D01*
X298889Y139549D01*
X298864Y139510D01*
Y139498D01*
X298762Y139307D01*
X298673Y139117D01*
X298534Y138748D01*
X298432Y138393D01*
X298369Y138075D01*
X298343Y137936D01*
X298318Y137796D01*
X298305Y137682D01*
Y137593D01*
X298293Y137504D01*
Y137453D01*
Y137415D01*
Y137402D01*
Y137199D01*
X298318Y136996D01*
X298381Y136615D01*
X298470Y136259D01*
X298521Y136107D01*
X298572Y135954D01*
X298623Y135815D01*
X298673Y135688D01*
X298724Y135586D01*
X298762Y135497D01*
X298801Y135421D01*
X298826Y135370D01*
X298839Y135332D01*
X298851Y135319D01*
X299080Y134964D01*
X299321Y134659D01*
X299575Y134392D01*
X299829Y134176D01*
X300058Y133999D01*
X300147Y133935D01*
X300236Y133872D01*
X300299Y133834D01*
X300350Y133795D01*
X300388Y133783D01*
X300401Y133770D01*
X300591Y133668D01*
X300769Y133592D01*
X301137Y133453D01*
X301493Y133364D01*
X301810Y133287D01*
X301950Y133275D01*
X302090Y133249D01*
X302204Y133237D01*
X302293D01*
X302382Y133224D01*
X302484D01*
X302687Y133237D01*
X302877Y133249D01*
X303258Y133313D01*
X303614Y133402D01*
X303931Y133503D01*
X304071Y133554D01*
X304185Y133592D01*
X304300Y133643D01*
X304389Y133681D01*
X304465Y133719D01*
X304515Y133745D01*
X304554Y133770D01*
X304566D01*
X304922Y133999D01*
X305227Y134253D01*
X305493Y134507D01*
X305709Y134761D01*
X305887Y134977D01*
X305951Y135078D01*
X306014Y135154D01*
X306052Y135231D01*
X306090Y135281D01*
X306103Y135307D01*
X306116Y135319D01*
X306217Y135510D01*
X306294Y135688D01*
X306433Y136069D01*
X306522Y136412D01*
X306598Y136729D01*
X306611Y136882D01*
X306636Y137008D01*
X306649Y137123D01*
Y137212D01*
X306662Y137301D01*
Y137351D01*
Y137389D01*
Y137402D01*
X306649Y137605D01*
X306636Y137809D01*
X306573Y138190D01*
X306484Y138545D01*
X306433Y138710D01*
X306382Y138863D01*
X306332Y139002D01*
X306281Y139129D01*
X306230Y139231D01*
X306192Y139320D01*
X306154Y139396D01*
X306128Y139447D01*
X306103Y139485D01*
Y139498D01*
X305874Y139853D01*
X305620Y140158D01*
X305366Y140425D01*
X305112Y140653D01*
X304884Y140819D01*
X304795Y140895D01*
X304706Y140946D01*
X304643Y140996D01*
X304579Y141022D01*
X304554Y141047D01*
X304541D01*
X304350Y141149D01*
X304160Y141225D01*
X303792Y141365D01*
X303449Y141466D01*
X303131Y141530D01*
X302992Y141542D01*
X302864Y141568D01*
X302763Y141580D01*
X302661D01*
X302585Y141593D01*
D02*
G37*
G36*
X121970Y-26184D02*
X109170D01*
X107059Y-26604D01*
X105270Y-27800D01*
X104074Y-29589D01*
X103654Y-31700D01*
Y-44500D01*
X104074Y-46611D01*
X105270Y-48400D01*
X107059Y-49596D01*
X109170Y-50016D01*
X121970D01*
X124081Y-49596D01*
X125870Y-48400D01*
X127066Y-46611D01*
X127486Y-44500D01*
Y-31700D01*
X127066Y-29589D01*
X125870Y-27800D01*
X124081Y-26604D01*
X121970Y-26184D01*
D02*
G37*
G36*
X120700Y24616D02*
X107900D01*
X105789Y24196D01*
X104000Y23000D01*
X102804Y21211D01*
X102384Y19100D01*
Y6300D01*
X102804Y4189D01*
X104000Y2400D01*
X105789Y1204D01*
X107900Y784D01*
X120700D01*
X122811Y1204D01*
X124600Y2400D01*
X125796Y4189D01*
X126216Y6300D01*
Y19100D01*
X125796Y21211D01*
X124600Y23000D01*
X122811Y24196D01*
X120700Y24616D01*
D02*
G37*
G36*
Y-784D02*
X107900D01*
X105789Y-1204D01*
X104000Y-2400D01*
X102804Y-4189D01*
X102384Y-6300D01*
Y-19100D01*
X102804Y-21211D01*
X104000Y-23000D01*
X105789Y-24196D01*
X107900Y-24616D01*
X120700D01*
X122811Y-24196D01*
X124600Y-23000D01*
X125796Y-21211D01*
X126216Y-19100D01*
Y-6300D01*
X125796Y-4189D01*
X124600Y-2400D01*
X122811Y-1204D01*
X120700Y-784D01*
D02*
G37*
G36*
X375000Y47903D02*
X372955Y47633D01*
X371049Y46844D01*
X369412Y45588D01*
X368156Y43951D01*
X367367Y42045D01*
X367097Y40000D01*
X367367Y37955D01*
X368156Y36049D01*
X369412Y34412D01*
X371049Y33156D01*
X372326Y32627D01*
Y-29830D01*
X371210Y-31285D01*
X370397Y-33246D01*
X370121Y-35350D01*
X370397Y-37454D01*
X371210Y-39415D01*
X372502Y-41098D01*
X374185Y-42390D01*
X376146Y-43203D01*
X378250Y-43480D01*
X380354Y-43203D01*
X382315Y-42390D01*
X383998Y-41098D01*
X385290Y-39415D01*
X386103Y-37454D01*
X386380Y-35350D01*
X386103Y-33246D01*
X385290Y-31285D01*
X384174Y-29830D01*
Y36750D01*
X383723Y39017D01*
X382863Y40305D01*
X382633Y42045D01*
X381844Y43951D01*
X380588Y45588D01*
X378951Y46844D01*
X377045Y47633D01*
X375000Y47903D01*
D02*
G37*
G36*
X562610Y63478D02*
X559658Y63089D01*
X556906Y61949D01*
X554544Y60136D01*
X552731Y57774D01*
X551591Y55023D01*
X551202Y52070D01*
X551591Y49117D01*
X552731Y46366D01*
X554544Y44004D01*
X556906Y42191D01*
X559658Y41051D01*
X562610Y40662D01*
X565563Y41051D01*
X568314Y42191D01*
X570676Y44004D01*
X572489Y46366D01*
X573629Y49117D01*
X574018Y52070D01*
X573629Y55023D01*
X572489Y57774D01*
X570676Y60136D01*
X568314Y61949D01*
X565563Y63089D01*
X562610Y63478D01*
D02*
G37*
%LPD*%
G36*
X302699Y140209D02*
X302966Y140171D01*
X303207Y140120D01*
X303423Y140056D01*
X303588Y139993D01*
X303715Y139942D01*
X303766Y139917D01*
X303804Y139904D01*
X303817Y139891D01*
X303830D01*
X304046Y139752D01*
X304236Y139599D01*
X304389Y139434D01*
X304528Y139282D01*
X304630Y139142D01*
X304706Y139015D01*
X304757Y138939D01*
X304769Y138926D01*
Y138913D01*
X304884Y138659D01*
X304960Y138406D01*
X305023Y138152D01*
X305062Y137910D01*
X305087Y137707D01*
Y137618D01*
X305100Y137542D01*
Y137478D01*
Y137428D01*
Y137402D01*
Y137389D01*
X305087Y137148D01*
X305074Y136907D01*
X305036Y136691D01*
X304985Y136488D01*
X304935Y136310D01*
X304871Y136132D01*
X304808Y135967D01*
X304731Y135827D01*
X304668Y135700D01*
X304604Y135599D01*
X304541Y135497D01*
X304490Y135421D01*
X304439Y135358D01*
X304401Y135319D01*
X304389Y135294D01*
X304376Y135281D01*
X304236Y135154D01*
X304084Y135040D01*
X303931Y134938D01*
X303766Y134850D01*
X303601Y134773D01*
X303449Y134710D01*
X303144Y134621D01*
X303004Y134595D01*
X302877Y134570D01*
X302763Y134557D01*
X302661Y134545D01*
X302585Y134532D01*
X302471D01*
X302141Y134557D01*
X301836Y134608D01*
X301569Y134684D01*
X301341Y134786D01*
X301150Y134875D01*
X301074Y134913D01*
X301010Y134951D01*
X300959Y134977D01*
X300921Y135002D01*
X300909Y135027D01*
X300896D01*
X300667Y135231D01*
X300490Y135446D01*
X300337Y135662D01*
X300223Y135878D01*
X300147Y136069D01*
X300109Y136158D01*
X300083Y136221D01*
X300070Y136285D01*
X300058Y136323D01*
X300045Y136348D01*
Y136361D01*
X300871Y136602D01*
X300934Y136386D01*
X301036Y136196D01*
X301125Y136031D01*
X301226Y135904D01*
X301328Y135789D01*
X301404Y135713D01*
X301455Y135662D01*
X301480Y135650D01*
X301658Y135535D01*
X301836Y135446D01*
X302001Y135396D01*
X302166Y135345D01*
X302306Y135319D01*
X302420Y135307D01*
X302522D01*
X302788Y135332D01*
X303030Y135383D01*
X303233Y135472D01*
X303411Y135573D01*
X303550Y135662D01*
X303652Y135751D01*
X303715Y135802D01*
X303741Y135827D01*
X303893Y136043D01*
X304007Y136285D01*
X304084Y136539D01*
X304135Y136793D01*
X304173Y137021D01*
X304185Y137110D01*
Y137199D01*
X304198Y137262D01*
Y137326D01*
Y137351D01*
Y137364D01*
X304173Y137720D01*
X304122Y138037D01*
X304046Y138304D01*
X303944Y138532D01*
X303855Y138698D01*
X303779Y138825D01*
X303728Y138901D01*
X303703Y138926D01*
X303601Y139028D01*
X303500Y139104D01*
X303296Y139244D01*
X303080Y139345D01*
X302877Y139409D01*
X302699Y139447D01*
X302560Y139460D01*
X302509Y139472D01*
X302433D01*
X302242Y139460D01*
X302064Y139434D01*
X301912Y139383D01*
X301785Y139345D01*
X301671Y139295D01*
X301582Y139244D01*
X301531Y139218D01*
X301518Y139206D01*
X301379Y139091D01*
X301264Y138977D01*
X301150Y138850D01*
X301074Y138723D01*
X301010Y138609D01*
X300959Y138520D01*
X300934Y138469D01*
X300921Y138444D01*
X300134Y138647D01*
X300236Y138901D01*
X300350Y139129D01*
X300490Y139333D01*
X300617Y139485D01*
X300744Y139625D01*
X300845Y139714D01*
X300921Y139777D01*
X300934Y139790D01*
X300947D01*
X301175Y139930D01*
X301417Y140044D01*
X301671Y140120D01*
X301899Y140171D01*
X302103Y140196D01*
X302191Y140209D01*
X302255Y140222D01*
X302407D01*
X302699Y140209D01*
D02*
G37*
D21*
X440690Y-5080D02*
X458470Y12700D01*
X440690Y-65550D02*
Y-5080D01*
X427500Y-78740D02*
X440690Y-65550D01*
X318770Y-19050D02*
X356870Y19050D01*
X318770Y-50800D02*
Y-19050D01*
X468630Y69850D02*
X490220Y91440D01*
X468630Y-46610D02*
Y69850D01*
X461500Y-53740D02*
X468630Y-46610D01*
X474980Y66040D02*
X494030Y85090D01*
X474980Y-65260D02*
Y66040D01*
X461500Y-78740D02*
X474980Y-65260D01*
X378250Y-35350D02*
Y36750D01*
X490220Y91440D02*
X516890D01*
X494030Y85090D02*
X518160D01*
X520700Y82550D01*
X516890Y91440D02*
X520700Y95250D01*
X375000Y40000D02*
X378250Y36750D01*
X270000Y-20000D02*
X300000Y-50000D01*
Y-100000D02*
Y-50000D01*
D23*
X202500Y-62500D02*
X230000D01*
X202500Y-67500D02*
Y-62500D01*
X230000D02*
X243750Y-48750D01*
X225000Y-67500D02*
X230000Y-62500D01*
X202500Y-67500D02*
X225000D01*
X230000Y-62500D02*
X232500Y-60000D01*
X225000Y-67500D02*
X247500D01*
X255000Y-60000D01*
X75000Y10000D02*
X103100Y38100D01*
X75000Y-135000D02*
Y10000D01*
X103100Y38100D02*
X114300D01*
D25*
X182880Y135000D02*
X190000D01*
X182880Y74930D02*
Y135000D01*
X196470Y80900D02*
Y135000D01*
X190000D02*
X196470D01*
X182880Y74930D02*
X214630Y43180D01*
X278130D01*
X185000Y90590D02*
X227330Y48260D01*
X195580Y80010D02*
Y96520D01*
Y80010D02*
X196470Y80900D01*
X278130Y43180D02*
Y48260D01*
X227330D02*
X278130D01*
D28*
X285000Y108425D02*
X282038Y102500D01*
X279075Y108425D01*
X270188Y102500D02*
X276113D01*
X270188Y108425D01*
Y109906D01*
X271669Y111387D01*
X274632D01*
X276113Y109906D01*
X267226Y102500D02*
Y103981D01*
X265745D01*
Y102500D01*
X267226D01*
X259820D02*
X256857D01*
X258339D01*
Y111387D01*
X259820Y109906D01*
X300000Y117500D02*
X297038D01*
X298519D01*
Y126387D01*
X300000Y124906D01*
X292594Y118981D02*
X291113Y117500D01*
X288151D01*
X286669Y118981D01*
Y124906D01*
X288151Y126387D01*
X291113D01*
X292594Y124906D01*
Y123425D01*
X291113Y121944D01*
X286669D01*
X283707Y117500D02*
X280744D01*
X282226D01*
Y126387D01*
X283707Y124906D01*
X276301Y117500D02*
X273339D01*
X274820D01*
Y126387D01*
X276301Y124906D01*
X268895D02*
X267414Y126387D01*
X264452D01*
X262970Y124906D01*
Y123425D01*
X264452Y121944D01*
X262970Y120462D01*
Y118981D01*
X264452Y117500D01*
X267414D01*
X268895Y118981D01*
Y120462D01*
X267414Y121944D01*
X268895Y123425D01*
Y124906D01*
X267414Y121944D02*
X264452D01*
X260008Y124906D02*
X258527Y126387D01*
X255564D01*
X254083Y124906D01*
Y123425D01*
X255564Y121944D01*
X254083Y120462D01*
Y118981D01*
X255564Y117500D01*
X258527D01*
X260008Y118981D01*
Y120462D01*
X258527Y121944D01*
X260008Y123425D01*
Y124906D01*
X258527Y121944D02*
X255564D01*
X251121D02*
X245196D01*
X242234Y117500D02*
X239271D01*
X240753D01*
Y126387D01*
X242234Y124906D01*
X289275Y141387D02*
X295200D01*
Y132500D01*
X289275D01*
X295200Y136944D02*
X292238D01*
X286313Y141387D02*
Y132500D01*
X280388D01*
X271501Y141387D02*
X277426D01*
Y132500D01*
X271501D01*
X277426Y136944D02*
X274463D01*
X268539Y141387D02*
Y132500D01*
Y135462D01*
X262614Y141387D01*
X267057Y136944D01*
X262614Y132500D01*
X259652Y141387D02*
X253727D01*
X256689D01*
Y132500D01*
X246321Y141387D02*
X249283D01*
X250764Y139906D01*
Y133981D01*
X249283Y132500D01*
X246321D01*
X244840Y133981D01*
Y139906D01*
X246321Y141387D01*
X241877Y132500D02*
Y141387D01*
X237434D01*
X235952Y139906D01*
Y136944D01*
X237434Y135462D01*
X241877D01*
X238915D02*
X235952Y132500D01*
D29*
X322000Y45000D02*
D03*
X275000D02*
D03*
X228000D02*
D03*
D30*
X562610Y52070D02*
D03*
D31*
X515874Y45974D02*
D03*
Y38100D02*
D03*
Y30226D02*
D03*
X508000Y45974D02*
D03*
Y38100D02*
D03*
Y30226D02*
D03*
X500126Y45974D02*
D03*
Y38100D02*
D03*
Y30226D02*
D03*
X107874Y117874D02*
D03*
Y110000D02*
D03*
Y102126D02*
D03*
X100000Y117874D02*
D03*
Y110000D02*
D03*
Y102126D02*
D03*
X92126Y117874D02*
D03*
Y110000D02*
D03*
Y102126D02*
D03*
D32*
X30000Y120000D02*
D03*
Y-120000D02*
D03*
X610000D02*
D03*
Y120000D02*
D03*
D33*
X205000Y-65000D02*
D03*
X209500Y-59000D02*
D03*
Y-71000D02*
D03*
X200500D02*
D03*
Y-59000D02*
D03*
D34*
X75000Y-127000D02*
D03*
X105000D02*
D03*
X150000Y127000D02*
D03*
X190000D02*
D03*
D35*
X618110Y-34290D02*
D03*
Y34290D02*
D03*
D36*
X427500Y-78740D02*
D03*
Y-53740D02*
D03*
Y-103740D02*
D03*
X461500Y-78740D02*
D03*
Y-53740D02*
D03*
Y-103740D02*
D03*
D37*
X114300Y38100D02*
D03*
X115570Y-38100D02*
D03*
X57200Y-63500D02*
D03*
X57150Y63500D02*
D03*
X114300Y-12700D02*
D03*
Y12700D02*
D03*
X31800Y63500D02*
D03*
X31750Y-63500D02*
D03*
D38*
X552450Y-15240D02*
D03*
Y-27940D02*
D03*
X495000Y-15000D02*
D03*
X505000Y-27700D02*
D03*
X495000D02*
D03*
X485000D02*
D03*
X505000Y-15000D02*
D03*
X485000D02*
D03*
X160000Y-10000D02*
D03*
X175000Y-25000D02*
D03*
X145000D02*
D03*
X74930Y138430D02*
D03*
X67310D02*
D03*
X400050Y-22860D02*
D03*
X205000Y-35000D02*
D03*
Y-45000D02*
D03*
X210000Y-85000D02*
D03*
X202500Y-90000D02*
D03*
X195000Y-85000D02*
D03*
X378250Y-35350D02*
D03*
X300000Y-100000D02*
D03*
X270000Y-20000D02*
D03*
X318770Y-50800D02*
D03*
X520700Y82550D02*
D03*
X458470Y12700D02*
D03*
X520700Y95250D02*
D03*
D39*
X270000Y-45000D02*
D03*
X243750Y-48750D02*
D03*
X255000Y-60000D02*
D03*
D40*
X375000Y40000D02*
D03*
D41*
X356870Y19050D02*
D03*
M02*
