M48
;Layer_Color=9474304
;FILE_FORMAT=4:4
METRIC,LZ
;TYPE=PLATED
T1F00S00C0.2500
T2F00S00C0.2540
T3F00S00C0.3000
T4F00S00C0.3810
T5F00S00C0.6000
T6F00S00C0.9000
T7F00S00C1.0000
T8F00S00C1.5000
;TYPE=NON_PLATED
T9F00S00C3.2000
%
T01
X002005Y-00071
X002095
X00205Y-00065
X002095Y-00059
X002005
T02
X00092126Y00102126
X001
X00107874
Y0011
Y00117874
X001
Y0011
X00092126
Y00117874
X00500126Y00045974
X00508
X00515874
Y000381
Y00030226
X00508
Y000381
X00500126
Y00030226
T03
X00195Y-00085
X002025Y-0009
X0021Y-00085
X00205Y-00045
Y-00035
X0031877Y-000508
X003Y-001
X0037825Y-0003535
X00485Y-000277
X00495
X00505
X0055245Y-0002794
X0016Y-0001
X00145Y-00025
X0007493Y0013843
X0006731
X00175Y-00025
X0027Y-0002
X0035687Y0001905
X0040005Y-0002286
X00485Y-00015
X00495
X00505
X0055245Y-0001524
X0045847Y000127
X005207Y0008255
Y0009525
T04
X00375Y0004
T05
X0024375Y-0004875
X00255Y-0006
X0027Y-00045
T06
X0062611Y-0003429
X0011557Y-000381
X000572Y-000635
X0003175
X00075Y-00135
X00105
X001143Y-000127
Y000127
Y000381
X0005715Y000635
X000318
X0015Y00135
X0019
X0056261Y0005207
X0062611Y0003429
T07
X004275Y-0010374
Y-0007874
Y-0005374
X004615
Y-0007874
Y-0010374
T08
X00228Y00045
X00275
X00322
T09
X0061Y-0012
X0003
Y0012
X0061
M30
