%FSLAX44Y44*%
%MOMM*%
G71*
G01*
G75*
G04 Layer_Physical_Order=1*
G04 Layer_Color=255*
%ADD10R,2.5000X2.3000*%
%ADD11R,1.2500X1.7500*%
%ADD12R,2.3000X2.5000*%
%ADD13R,1.7500X1.2500*%
%ADD14R,0.4318X1.4224*%
%ADD15R,2.4130X3.0988*%
%ADD16R,1.7272X0.5334*%
%ADD17R,2.0000X2.2000*%
%ADD18O,1.7000X0.3000*%
%ADD19R,1.5700X1.8800*%
%ADD20R,2.0000X4.1000*%
%ADD21C,0.4000*%
%ADD22C,1.8000*%
%ADD23C,1.2500*%
%ADD24C,0.5080*%
%ADD25C,1.7000*%
%ADD26C,0.3000*%
%ADD27C,0.6000*%
%ADD28C,0.1524*%
%ADD29C,2.2000*%
%ADD30C,1.5000*%
%ADD31C,0.7000*%
%ADD32C,1.2500*%
%ADD33C,0.6500*%
G04:AMPARAMS|DCode=34|XSize=3.2mm|YSize=1.6mm|CornerRadius=0.4mm|HoleSize=0mm|Usage=FLASHONLY|Rotation=90.000|XOffset=0mm|YOffset=0mm|HoleType=Round|Shape=RoundedRectangle|*
%AMROUNDEDRECTD34*
21,1,3.2000,0.8000,0,0,90.0*
21,1,2.4000,1.6000,0,0,90.0*
1,1,0.8000,0.4000,1.2000*
1,1,0.8000,0.4000,-1.2000*
1,1,0.8000,-0.4000,-1.2000*
1,1,0.8000,-0.4000,1.2000*
%
%ADD34ROUNDEDRECTD34*%
G04:AMPARAMS|DCode=35|XSize=3.2mm|YSize=1.6mm|CornerRadius=0.4mm|HoleSize=0mm|Usage=FLASHONLY|Rotation=180.000|XOffset=0mm|YOffset=0mm|HoleType=Round|Shape=RoundedRectangle|*
%AMROUNDEDRECTD35*
21,1,3.2000,0.8000,0,0,180.0*
21,1,2.4000,1.6000,0,0,180.0*
1,1,0.8000,-1.2000,0.4000*
1,1,0.8000,1.2000,0.4000*
1,1,0.8000,1.2000,-0.4000*
1,1,0.8000,-1.2000,-0.4000*
%
%ADD35ROUNDEDRECTD35*%
%ADD36C,1.7000*%
G04:AMPARAMS|DCode=37|XSize=1.6mm|YSize=1.6mm|CornerRadius=0.16mm|HoleSize=0mm|Usage=FLASHONLY|Rotation=180.000|XOffset=0mm|YOffset=0mm|HoleType=Round|Shape=RoundedRectangle|*
%AMROUNDEDRECTD37*
21,1,1.6000,1.2800,0,0,180.0*
21,1,1.2800,1.6000,0,0,180.0*
1,1,0.3200,-0.6400,0.6400*
1,1,0.3200,0.6400,0.6400*
1,1,0.3200,0.6400,-0.6400*
1,1,0.3200,-0.6400,-0.6400*
%
%ADD37ROUNDEDRECTD37*%
%ADD38C,0.8500*%
%ADD39C,1.1000*%
%ADD40C,0.8050*%
%ADD41C,0.8000*%
G36*
X80000Y140000D02*
Y85000D01*
X82634Y82366D01*
X82653Y82272D01*
X82653Y82271D01*
Y82271D01*
X82936Y81848D01*
X83495Y81011D01*
X83495Y81011D01*
X83495Y81011D01*
X112253Y52253D01*
X113513Y51411D01*
X113608Y51392D01*
X115000Y50000D01*
X130000D01*
X136190Y43810D01*
Y42440D01*
X137560D01*
X140000Y40000D01*
X198981Y40000D01*
X215000Y23981D01*
Y-24611D01*
X214411Y-25205D01*
X213997Y-25831D01*
X213581Y-26453D01*
X213579Y-26462D01*
X213575Y-26469D01*
X213432Y-27202D01*
X213285Y-27940D01*
Y-53998D01*
X213086Y-55000D01*
X213498Y-57072D01*
X213784Y-57500D01*
X213498Y-57928D01*
X213086Y-60000D01*
X213498Y-62072D01*
X213784Y-62500D01*
X213498Y-62928D01*
X213086Y-65000D01*
X213498Y-67072D01*
X214672Y-68828D01*
X215000Y-69048D01*
Y-70952D01*
X214672Y-71172D01*
X213498Y-72928D01*
X213086Y-75000D01*
X213498Y-77072D01*
X214672Y-78828D01*
X216428Y-80002D01*
X218500Y-80414D01*
X229040D01*
X229526Y-81587D01*
X218673Y-92440D01*
X206190D01*
Y-93810D01*
X205000Y-95000D01*
X205000Y-114404D01*
X203827Y-114890D01*
X189914Y-100977D01*
Y-80414D01*
X191500D01*
X193572Y-80002D01*
X195328Y-78828D01*
X196502Y-77072D01*
X196914Y-75000D01*
X196502Y-72928D01*
X196216Y-72500D01*
X196502Y-72072D01*
X196914Y-70000D01*
X196502Y-67928D01*
X195328Y-66172D01*
X195000Y-65952D01*
Y-64048D01*
X195328Y-63828D01*
X196502Y-62072D01*
X196914Y-60000D01*
X196502Y-57928D01*
X196216Y-57500D01*
X196502Y-57072D01*
X196914Y-55000D01*
X196881Y-54832D01*
X196925Y-54610D01*
Y-43180D01*
X196629Y-41693D01*
X195787Y-40433D01*
X186897Y-31543D01*
X185831Y-30831D01*
X185000Y-30000D01*
X127148D01*
X127066Y-29589D01*
X125870Y-27800D01*
X124081Y-26604D01*
X121970Y-26184D01*
X109170D01*
X107059Y-26604D01*
X105270Y-27800D01*
X104074Y-29589D01*
X103992Y-30000D01*
X102500D01*
X97500Y-35000D01*
X87500Y-45000D01*
Y-140000D01*
X83905Y-143595D01*
X69850D01*
X66255Y-140000D01*
Y-74633D01*
X67500Y-73800D01*
X68696Y-72011D01*
X69116Y-69900D01*
Y-57100D01*
X68696Y-54989D01*
X67500Y-53200D01*
X66255Y-52368D01*
Y52401D01*
X67450Y53200D01*
X68646Y54989D01*
X69066Y57100D01*
Y69900D01*
X68646Y72011D01*
X67450Y73800D01*
X66255Y74599D01*
Y76245D01*
X62500Y80000D01*
Y140000D01*
X67500Y145000D01*
X75000D01*
X80000Y140000D01*
D02*
G37*
G36*
X517939Y-6078D02*
X515374Y-8644D01*
X513321Y-11320D01*
X512430Y-13470D01*
X510700D01*
Y-62090D01*
X538320D01*
Y-22242D01*
X539996Y-20566D01*
X539996Y-20566D01*
X555562Y-5000D01*
X635000D01*
Y-80000D01*
X630000Y-85000D01*
X590000D01*
X575000Y-100000D01*
Y-140000D01*
X570000Y-145000D01*
X475000D01*
X470000Y-140000D01*
Y-112734D01*
X470280Y-112520D01*
X472253Y-109948D01*
X473493Y-106954D01*
X473916Y-103740D01*
X473493Y-100526D01*
X472253Y-97532D01*
X470280Y-94960D01*
X470000Y-94746D01*
Y-87734D01*
X470280Y-87520D01*
X472253Y-84948D01*
X473493Y-81954D01*
X473916Y-78740D01*
X473493Y-75526D01*
X472253Y-72532D01*
X470280Y-69960D01*
X470000Y-69746D01*
Y-62734D01*
X470280Y-62520D01*
X472253Y-59948D01*
X473493Y-56954D01*
X473916Y-53740D01*
X473493Y-50526D01*
X472253Y-47532D01*
X470280Y-44960D01*
X470000Y-44746D01*
Y-40640D01*
X418780D01*
Y-38240D01*
X398660D01*
Y-40640D01*
X391280D01*
Y-38240D01*
X386962D01*
X386125Y-37285D01*
X386380Y-35350D01*
X386103Y-33246D01*
X385290Y-31285D01*
X384219Y-29889D01*
Y-10795D01*
X359281D01*
Y-13219D01*
X350770Y-21730D01*
X350200Y-21730D01*
Y-21730D01*
X330080D01*
Y-22085D01*
X323055Y-22085D01*
X322700Y-21730D01*
Y-21730D01*
X302580D01*
Y-26590D01*
X302500Y-26670D01*
Y-51190D01*
X302440D01*
Y-71310D01*
X302500D01*
Y-87500D01*
X271310D01*
Y-67440D01*
X252897D01*
X241628Y-56172D01*
X240252Y-55252D01*
X238693Y-53693D01*
X238726Y-53530D01*
X238651Y-53155D01*
Y-52772D01*
X238505Y-52419D01*
X238430Y-52043D01*
X237835Y-50606D01*
X237835Y-50606D01*
X237734Y-50362D01*
X237521Y-48750D01*
X237734Y-47138D01*
X238045Y-46387D01*
Y-46387D01*
X238045Y-46387D01*
X238356Y-45636D01*
X239346Y-44346D01*
X240636Y-43356D01*
X241067Y-43177D01*
X241067D01*
X242138Y-42734D01*
X242947Y-42627D01*
X243117Y-42569D01*
X243342Y-42525D01*
X243598Y-42541D01*
X243912Y-42500D01*
X257500D01*
X257789Y-42211D01*
X257883Y-42192D01*
X259144Y-41350D01*
X273021Y-27473D01*
X274065Y-27040D01*
X275748Y-25749D01*
X277040Y-24065D01*
X277473Y-23021D01*
X287747Y-12747D01*
X288589Y-11487D01*
X288885Y-10000D01*
Y-1115D01*
X300000Y10000D01*
X397180Y10000D01*
X407440Y-260D01*
Y-1310D01*
X408490D01*
X412340Y-5160D01*
X470000Y-5160D01*
Y-4171D01*
X485140D01*
X488484Y-3730D01*
X491600Y-2439D01*
X494276Y-386D01*
X496329Y2290D01*
X497620Y5406D01*
X498060Y8750D01*
Y15000D01*
X517939D01*
Y-6078D01*
D02*
G37*
G36*
X193040Y-43180D02*
Y-54610D01*
X191621D01*
X191500Y-54586D01*
X146250D01*
X146250Y-54586D01*
X146129Y-54610D01*
X143510D01*
X132080Y-66040D01*
X118110D01*
X117960Y-66190D01*
X117440D01*
Y-66710D01*
X115570Y-68580D01*
Y-139700D01*
X111760Y-143510D01*
X97472D01*
X93663Y-139700D01*
Y-49847D01*
X104775Y-38735D01*
X109220Y-34290D01*
X184150D01*
X193040Y-43180D01*
D02*
G37*
G36*
X469900Y24130D02*
X470018D01*
X470916Y23232D01*
Y20320D01*
X482092D01*
Y19050D01*
X483362D01*
Y13843D01*
X493268D01*
Y13843D01*
X493278D01*
X494176Y12945D01*
Y9005D01*
X493836Y6420D01*
X492936Y4249D01*
X491506Y2384D01*
X489641Y954D01*
X487871Y221D01*
X456290D01*
Y7480D01*
X433710D01*
Y221D01*
X431290D01*
Y7480D01*
X420000D01*
Y8750D01*
X418730D01*
Y17540D01*
X414169D01*
X413683Y18713D01*
X422910Y27940D01*
X466090D01*
X469900Y24130D01*
D02*
G37*
G36*
X285000Y49264D02*
X285000Y-10000D01*
X256397Y-38603D01*
X243750D01*
X243090Y-38690D01*
X242440D01*
Y-38776D01*
X241124Y-38949D01*
X239581Y-39588D01*
X238677Y-39963D01*
X236575Y-41575D01*
X234963Y-43677D01*
X234456Y-44900D01*
X233949Y-46124D01*
X233603Y-48750D01*
X233949Y-51376D01*
X234246Y-52093D01*
X234841Y-53530D01*
X234135Y-54586D01*
X218500D01*
X218379Y-54610D01*
X217170D01*
Y-27940D01*
X230000Y-15000D01*
X245000D01*
X250000Y-10000D01*
X250317Y34417D01*
X229773Y54961D01*
X230259Y56134D01*
X278130D01*
X285000Y49264D01*
D02*
G37*
G36*
X575000Y140000D02*
Y100000D01*
X590000Y85000D01*
X630000D01*
Y85000D01*
X635000Y80000D01*
Y45861D01*
X633944Y45155D01*
X632149Y45899D01*
X631282Y46013D01*
X629454Y46770D01*
X626110Y47210D01*
X615524D01*
Y57440D01*
X623810D01*
Y82560D01*
X603690D01*
Y65919D01*
X603676Y65850D01*
Y45735D01*
X602171Y45112D01*
X600540Y43860D01*
X599288Y42229D01*
X598987Y41501D01*
X598410Y40750D01*
X597120Y37634D01*
X596679Y34290D01*
Y26670D01*
X585540D01*
Y39080D01*
X559657D01*
X559279Y39992D01*
X560052Y40999D01*
X562610Y40662D01*
X565563Y41051D01*
X568314Y42191D01*
X570676Y44004D01*
X572489Y46366D01*
X573629Y49117D01*
X574018Y52070D01*
X573629Y55023D01*
X572489Y57774D01*
X570676Y60136D01*
X568314Y61949D01*
X565563Y63089D01*
X562610Y63478D01*
X559658Y63089D01*
X556906Y61949D01*
X555703Y61026D01*
X554564Y61588D01*
Y63500D01*
X554113Y65767D01*
X552829Y67689D01*
X543810Y76708D01*
Y87440D01*
Y109940D01*
Y114393D01*
X544983Y114879D01*
X547510Y112353D01*
Y98110D01*
X554508D01*
X554597Y97663D01*
X555881Y95741D01*
X576190Y75433D01*
Y57440D01*
X596310D01*
Y82560D01*
X585817D01*
X571441Y96937D01*
X571927Y98110D01*
X572630D01*
Y118230D01*
X558387D01*
X549929Y126689D01*
X548007Y127973D01*
X545740Y128424D01*
X543810D01*
Y135060D01*
X523690D01*
Y109940D01*
Y103949D01*
X522735Y103112D01*
X520700Y103379D01*
X518596Y103103D01*
X516635Y102290D01*
X514952Y100998D01*
X513660Y99315D01*
X512848Y97354D01*
X512570Y95250D01*
X512848Y93146D01*
X513660Y91185D01*
X514952Y89502D01*
Y88298D01*
X513660Y86615D01*
X512848Y84654D01*
X512570Y82550D01*
X512848Y80446D01*
X513660Y78485D01*
X514952Y76802D01*
X516635Y75510D01*
X518596Y74697D01*
X520700Y74420D01*
X522735Y74688D01*
X523690Y73851D01*
Y64940D01*
X537877D01*
X538583Y63884D01*
X538476Y63627D01*
X521462D01*
Y50673D01*
Y37973D01*
Y25322D01*
X519670Y22987D01*
X518433Y20000D01*
X497567D01*
X496329Y22987D01*
X494538Y25322D01*
Y25527D01*
Y37973D01*
Y50927D01*
X473284D01*
Y61046D01*
X482407Y70170D01*
X493890D01*
Y90290D01*
X470000D01*
Y97670D01*
X471030D01*
Y117790D01*
X470000D01*
Y140000D01*
X475000Y145000D01*
X570000D01*
X575000Y140000D01*
D02*
G37*
G36*
X165000Y140000D02*
Y114300D01*
Y106680D01*
Y106373D01*
X163827Y105887D01*
X161207Y108507D01*
X159784Y109599D01*
X158128Y110285D01*
X157239Y110402D01*
X156350Y110519D01*
X156350Y110519D01*
X127000D01*
X125222Y110285D01*
X124841Y110127D01*
X113462D01*
Y97173D01*
X124841D01*
X125222Y97015D01*
X127000Y96781D01*
X153505D01*
X163690Y86596D01*
Y79654D01*
X151596Y67560D01*
X136190D01*
Y55000D01*
X115000D01*
X86242Y83758D01*
X86538Y84473D01*
X86538D01*
X86538Y84473D01*
Y97173D01*
Y109873D01*
Y122573D01*
Y135527D01*
X85000D01*
Y140000D01*
X90000Y145000D01*
X160000D01*
X165000Y140000D01*
D02*
G37*
G36*
X434340Y116840D02*
Y73660D01*
X411480Y50800D01*
X411480Y45720D01*
Y29210D01*
X397510Y15240D01*
X384219D01*
Y32639D01*
X384174D01*
Y36750D01*
X383723Y39017D01*
X383615Y39179D01*
Y57150D01*
X383602Y57212D01*
X410210Y83820D01*
Y116840D01*
X412750Y119380D01*
X431800Y119380D01*
X434340Y116840D01*
D02*
G37*
G36*
X240232Y142419D02*
X240347Y142406D01*
X240486Y142393D01*
X240639Y142381D01*
X240804Y142355D01*
X240982Y142317D01*
X241185Y142266D01*
X241591Y142152D01*
X241820Y142076D01*
X242036Y141987D01*
X242264Y141885D01*
X242493Y141771D01*
X242506Y141758D01*
X242544Y141746D01*
X242607Y141707D01*
X242696Y141657D01*
X242798Y141580D01*
X242912Y141504D01*
X243039Y141403D01*
X243179Y141301D01*
X243331Y141174D01*
X243484Y141034D01*
X243636Y140882D01*
X243801Y140717D01*
X243953Y140539D01*
X244093Y140349D01*
X244246Y140133D01*
X244373Y139917D01*
X244385Y139904D01*
X244398Y139866D01*
X244436Y139803D01*
X244474Y139714D01*
X244525Y139599D01*
X244589Y139472D01*
X244652Y139320D01*
X244715Y139155D01*
X244766Y138964D01*
X244830Y138774D01*
X244944Y138342D01*
X245020Y137885D01*
X245033Y137643D01*
X245046Y137402D01*
Y137389D01*
Y137339D01*
Y137275D01*
X245033Y137186D01*
X245020Y137059D01*
X245008Y136932D01*
X244995Y136780D01*
X244957Y136602D01*
X244931Y136424D01*
X244881Y136221D01*
X244766Y135802D01*
X244690Y135573D01*
X244601Y135358D01*
X244487Y135129D01*
X244373Y134900D01*
X244360Y134888D01*
X244347Y134850D01*
X244309Y134786D01*
X244246Y134710D01*
X244182Y134608D01*
X244106Y134494D01*
X244004Y134354D01*
X243890Y134227D01*
X243763Y134075D01*
X243636Y133922D01*
X243484Y133770D01*
X243319Y133618D01*
X243128Y133465D01*
X242938Y133313D01*
X242734Y133173D01*
X242518Y133046D01*
X242506Y133033D01*
X242468Y133021D01*
X242404Y132983D01*
X242315Y132944D01*
X242201Y132894D01*
X242074Y132843D01*
X241922Y132779D01*
X241756Y132716D01*
X241579Y132652D01*
X241388Y132589D01*
X240956Y132487D01*
X240499Y132411D01*
X240258Y132398D01*
X240016Y132386D01*
X239890D01*
X239801Y132398D01*
X239674Y132411D01*
X239547Y132424D01*
X239394Y132437D01*
X239216Y132475D01*
X239039Y132500D01*
X238835Y132551D01*
X238416Y132665D01*
X238188Y132741D01*
X237972Y132830D01*
X237743Y132932D01*
X237515Y133046D01*
X237502Y133059D01*
X237464Y133071D01*
X237400Y133110D01*
X237324Y133173D01*
X237222Y133237D01*
X237108Y133313D01*
X236968Y133414D01*
X236842Y133529D01*
X236689Y133656D01*
X236537Y133795D01*
X236384Y133948D01*
X236232Y134113D01*
X236080Y134291D01*
X235927Y134481D01*
X235787Y134684D01*
X235660Y134900D01*
X235648Y134913D01*
X235635Y134951D01*
X235597Y135015D01*
X235559Y135104D01*
X235508Y135218D01*
X235457Y135345D01*
X235394Y135497D01*
X235330Y135662D01*
X235267Y135853D01*
X235203Y136043D01*
X235102Y136462D01*
X235025Y136920D01*
X235013Y137161D01*
X235000Y137402D01*
Y137415D01*
Y137466D01*
Y137529D01*
X235013Y137631D01*
X235025Y137745D01*
X235038Y137885D01*
X235051Y138037D01*
X235089Y138202D01*
X235114Y138393D01*
X235165Y138596D01*
X235279Y139015D01*
X235356Y139231D01*
X235457Y139460D01*
X235559Y139688D01*
X235673Y139917D01*
X235686Y139930D01*
X235699Y139968D01*
X235749Y140031D01*
X235800Y140120D01*
X235864Y140222D01*
X235952Y140336D01*
X236054Y140463D01*
X236156Y140603D01*
X236283Y140742D01*
X236422Y140895D01*
X236588Y141060D01*
X236753Y141212D01*
X236930Y141365D01*
X237121Y141504D01*
X237337Y141644D01*
X237553Y141771D01*
X237565Y141784D01*
X237603Y141796D01*
X237667Y141834D01*
X237756Y141873D01*
X237870Y141923D01*
X237997Y141974D01*
X238150Y142038D01*
X238315Y142101D01*
X238493Y142165D01*
X238683Y142228D01*
X239102Y142330D01*
X239547Y142406D01*
X239788Y142419D01*
X240016Y142431D01*
X240144D01*
X240232Y142419D01*
D02*
G37*
G36*
X370840Y116840D02*
X370840Y66040D01*
X379730Y57150D01*
Y35815D01*
X379277Y35137D01*
X378826Y32870D01*
Y32639D01*
X378781D01*
Y15240D01*
X371219D01*
Y32639D01*
X359281D01*
Y31621D01*
X353957Y26297D01*
X352931Y25872D01*
X351300Y24620D01*
X350048Y22989D01*
X349623Y21963D01*
X347980Y20320D01*
X342900Y15240D01*
X337820D01*
X334010Y15240D01*
X299720D01*
Y36830D01*
X345440Y82550D01*
Y116840D01*
X347980Y119380D01*
X368300D01*
X370840Y116840D01*
D02*
G37*
%LPC*%
G36*
X240220Y141593D02*
X239915D01*
X239839Y141580D01*
X239737D01*
X239636Y141568D01*
X239508Y141542D01*
X239369Y141530D01*
X239051Y141466D01*
X238708Y141365D01*
X238340Y141225D01*
X238150Y141149D01*
X237959Y141047D01*
X237946D01*
X237921Y141022D01*
X237857Y140996D01*
X237794Y140946D01*
X237705Y140895D01*
X237616Y140819D01*
X237388Y140653D01*
X237134Y140425D01*
X236880Y140158D01*
X236626Y139853D01*
X236397Y139498D01*
Y139485D01*
X236372Y139447D01*
X236346Y139396D01*
X236308Y139320D01*
X236270Y139231D01*
X236219Y139129D01*
X236168Y139002D01*
X236118Y138863D01*
X236067Y138710D01*
X236016Y138545D01*
X235927Y138190D01*
X235864Y137809D01*
X235851Y137605D01*
X235838Y137402D01*
Y137389D01*
Y137351D01*
Y137301D01*
X235851Y137212D01*
Y137123D01*
X235864Y137008D01*
X235889Y136882D01*
X235902Y136729D01*
X235978Y136412D01*
X236067Y136069D01*
X236206Y135688D01*
X236283Y135510D01*
X236384Y135319D01*
X236397Y135307D01*
X236410Y135281D01*
X236448Y135231D01*
X236486Y135154D01*
X236549Y135078D01*
X236613Y134977D01*
X236791Y134761D01*
X237007Y134507D01*
X237273Y134253D01*
X237578Y133999D01*
X237934Y133770D01*
X237946D01*
X237985Y133745D01*
X238035Y133719D01*
X238111Y133681D01*
X238200Y133643D01*
X238315Y133592D01*
X238429Y133554D01*
X238569Y133503D01*
X238886Y133402D01*
X239242Y133313D01*
X239623Y133249D01*
X239813Y133237D01*
X240016Y133224D01*
X240118D01*
X240207Y133237D01*
X240296D01*
X240410Y133249D01*
X240550Y133275D01*
X240690Y133287D01*
X241007Y133364D01*
X241363Y133453D01*
X241731Y133592D01*
X241909Y133668D01*
X242099Y133770D01*
X242112Y133783D01*
X242150Y133795D01*
X242201Y133834D01*
X242264Y133872D01*
X242353Y133935D01*
X242442Y133999D01*
X242671Y134176D01*
X242925Y134392D01*
X243179Y134659D01*
X243420Y134964D01*
X243649Y135319D01*
X243661Y135332D01*
X243674Y135370D01*
X243699Y135421D01*
X243738Y135497D01*
X243776Y135586D01*
X243827Y135688D01*
X243877Y135815D01*
X243928Y135954D01*
X243979Y136107D01*
X244030Y136259D01*
X244119Y136615D01*
X244182Y136996D01*
X244207Y137199D01*
Y137402D01*
Y137415D01*
Y137453D01*
Y137504D01*
X244195Y137593D01*
Y137682D01*
X244182Y137796D01*
X244157Y137936D01*
X244131Y138075D01*
X244068Y138393D01*
X243966Y138748D01*
X243827Y139117D01*
X243738Y139307D01*
X243636Y139498D01*
Y139510D01*
X243611Y139549D01*
X243573Y139599D01*
X243534Y139663D01*
X243471Y139752D01*
X243407Y139841D01*
X243230Y140069D01*
X243014Y140323D01*
X242747Y140577D01*
X242430Y140819D01*
X242074Y141047D01*
X242061Y141060D01*
X242023Y141073D01*
X241972Y141098D01*
X241896Y141136D01*
X241807Y141174D01*
X241706Y141225D01*
X241579Y141276D01*
X241439Y141327D01*
X241134Y141415D01*
X240779Y141504D01*
X240410Y141568D01*
X240220Y141593D01*
D02*
G37*
G36*
X120700Y-784D02*
X107900D01*
X105789Y-1204D01*
X104000Y-2400D01*
X102804Y-4189D01*
X102384Y-6300D01*
Y-19100D01*
X102804Y-21211D01*
X104000Y-23000D01*
X105789Y-24196D01*
X107900Y-24616D01*
X120700D01*
X122811Y-24196D01*
X124600Y-23000D01*
X125796Y-21211D01*
X126216Y-19100D01*
Y-6300D01*
X125796Y-4189D01*
X124600Y-2400D01*
X122811Y-1204D01*
X120700Y-784D01*
D02*
G37*
G36*
X456290Y17540D02*
X446270D01*
Y10020D01*
X456290D01*
Y17540D01*
D02*
G37*
G36*
X480822Y17780D02*
X470916D01*
Y13843D01*
X480822D01*
Y17780D01*
D02*
G37*
G36*
X443730Y17540D02*
X433710D01*
Y10020D01*
X443730D01*
Y17540D01*
D02*
G37*
G36*
X120700Y24616D02*
X107900D01*
X105789Y24196D01*
X104000Y23000D01*
X102804Y21211D01*
X102384Y19100D01*
Y6300D01*
X102804Y4189D01*
X104000Y2400D01*
X105789Y1204D01*
X107900Y784D01*
X120700D01*
X122811Y1204D01*
X124600Y2400D01*
X125796Y4189D01*
X126216Y6300D01*
Y19100D01*
X125796Y21211D01*
X124600Y23000D01*
X122811Y24196D01*
X120700Y24616D01*
D02*
G37*
G36*
X431290Y17540D02*
X421270D01*
Y10020D01*
X431290D01*
Y17540D01*
D02*
G37*
%LPD*%
G36*
X240309Y140209D02*
X240397Y140196D01*
X240601Y140171D01*
X240829Y140120D01*
X241083Y140044D01*
X241325Y139930D01*
X241553Y139790D01*
X241566D01*
X241579Y139777D01*
X241655Y139714D01*
X241756Y139625D01*
X241883Y139485D01*
X242010Y139333D01*
X242150Y139129D01*
X242264Y138901D01*
X242366Y138647D01*
X241579Y138444D01*
X241566Y138469D01*
X241541Y138520D01*
X241490Y138609D01*
X241426Y138723D01*
X241350Y138850D01*
X241236Y138977D01*
X241121Y139091D01*
X240982Y139206D01*
X240969Y139218D01*
X240918Y139244D01*
X240829Y139295D01*
X240715Y139345D01*
X240588Y139383D01*
X240436Y139434D01*
X240258Y139460D01*
X240067Y139472D01*
X239991D01*
X239940Y139460D01*
X239801Y139447D01*
X239623Y139409D01*
X239420Y139345D01*
X239204Y139244D01*
X239000Y139104D01*
X238899Y139028D01*
X238797Y138926D01*
X238772Y138901D01*
X238721Y138825D01*
X238645Y138698D01*
X238556Y138532D01*
X238454Y138304D01*
X238378Y138037D01*
X238327Y137720D01*
X238302Y137364D01*
Y137351D01*
Y137326D01*
Y137262D01*
X238315Y137199D01*
Y137110D01*
X238327Y137021D01*
X238365Y136793D01*
X238416Y136539D01*
X238493Y136285D01*
X238607Y136043D01*
X238759Y135827D01*
X238785Y135802D01*
X238848Y135751D01*
X238950Y135662D01*
X239089Y135573D01*
X239267Y135472D01*
X239470Y135383D01*
X239712Y135332D01*
X239978Y135307D01*
X240080D01*
X240194Y135319D01*
X240334Y135345D01*
X240499Y135396D01*
X240664Y135446D01*
X240842Y135535D01*
X241020Y135650D01*
X241045Y135662D01*
X241096Y135713D01*
X241172Y135789D01*
X241274Y135904D01*
X241375Y136031D01*
X241464Y136196D01*
X241566Y136386D01*
X241629Y136602D01*
X242455Y136361D01*
Y136348D01*
X242442Y136323D01*
X242430Y136285D01*
X242417Y136221D01*
X242391Y136158D01*
X242353Y136069D01*
X242277Y135878D01*
X242163Y135662D01*
X242010Y135446D01*
X241833Y135231D01*
X241604Y135027D01*
X241591D01*
X241579Y135002D01*
X241541Y134977D01*
X241490Y134951D01*
X241426Y134913D01*
X241350Y134875D01*
X241159Y134786D01*
X240931Y134684D01*
X240664Y134608D01*
X240359Y134557D01*
X240029Y134532D01*
X239915D01*
X239839Y134545D01*
X239737Y134557D01*
X239623Y134570D01*
X239496Y134595D01*
X239356Y134621D01*
X239051Y134710D01*
X238899Y134773D01*
X238734Y134850D01*
X238569Y134938D01*
X238416Y135040D01*
X238264Y135154D01*
X238124Y135281D01*
X238111Y135294D01*
X238099Y135319D01*
X238061Y135358D01*
X238010Y135421D01*
X237959Y135497D01*
X237896Y135599D01*
X237832Y135700D01*
X237769Y135827D01*
X237692Y135967D01*
X237629Y136132D01*
X237565Y136310D01*
X237515Y136488D01*
X237464Y136691D01*
X237426Y136907D01*
X237413Y137148D01*
X237400Y137389D01*
Y137402D01*
Y137428D01*
Y137478D01*
Y137542D01*
X237413Y137618D01*
Y137707D01*
X237438Y137910D01*
X237477Y138152D01*
X237540Y138406D01*
X237616Y138659D01*
X237731Y138913D01*
Y138926D01*
X237743Y138939D01*
X237794Y139015D01*
X237870Y139142D01*
X237972Y139282D01*
X238111Y139434D01*
X238264Y139599D01*
X238454Y139752D01*
X238670Y139891D01*
X238683D01*
X238696Y139904D01*
X238734Y139917D01*
X238785Y139942D01*
X238912Y139993D01*
X239077Y140056D01*
X239293Y140120D01*
X239534Y140171D01*
X239801Y140209D01*
X240093Y140222D01*
X240245D01*
X240309Y140209D01*
D02*
G37*
D10*
X439330Y44450D02*
D03*
X396330D02*
D03*
D11*
X216250Y-130000D02*
D03*
X243750D02*
D03*
X216250Y-105000D02*
D03*
X243750D02*
D03*
X533750Y122500D02*
D03*
X506250D02*
D03*
X586250Y70000D02*
D03*
X613750D02*
D03*
X533750Y100000D02*
D03*
X506250D02*
D03*
X533750Y77500D02*
D03*
X506250D02*
D03*
X261250Y-80000D02*
D03*
X288750D02*
D03*
Y-105000D02*
D03*
X261250D02*
D03*
X288750Y-130000D02*
D03*
X261250D02*
D03*
X146250Y55000D02*
D03*
X173750D02*
D03*
X340140Y-34290D02*
D03*
X312640D02*
D03*
X408720Y-74930D02*
D03*
X381220D02*
D03*
X408720Y-50800D02*
D03*
X381220D02*
D03*
X173750Y80000D02*
D03*
X146250D02*
D03*
D12*
X570230Y22770D02*
D03*
Y-20230D02*
D03*
D13*
X560070Y108170D02*
D03*
Y135670D02*
D03*
X458470Y107730D02*
D03*
Y80230D02*
D03*
X626110Y13750D02*
D03*
Y-13750D02*
D03*
X603250Y13750D02*
D03*
Y-13750D02*
D03*
X481330Y80230D02*
D03*
Y107730D02*
D03*
X255000Y-21250D02*
D03*
Y-48750D02*
D03*
X160000Y-48750D02*
D03*
Y-21250D02*
D03*
X155000Y-103750D02*
D03*
Y-76250D02*
D03*
X130000Y-76250D02*
D03*
Y-103750D02*
D03*
X360680Y-40860D02*
D03*
Y-68360D02*
D03*
X310000Y23750D02*
D03*
Y-3750D02*
D03*
X335000Y23750D02*
D03*
Y-3750D02*
D03*
X445000Y8750D02*
D03*
Y-18750D02*
D03*
X420000Y8750D02*
D03*
Y-18750D02*
D03*
X315000Y-61250D02*
D03*
Y-88750D02*
D03*
X337820Y-61180D02*
D03*
Y-88680D02*
D03*
D14*
X365250Y21717D02*
D03*
X371750D02*
D03*
X378250D02*
D03*
X384750D02*
D03*
Y-21717D02*
D03*
X378250D02*
D03*
X371750D02*
D03*
X365250D02*
D03*
D15*
X508000Y38100D02*
D03*
X100000Y110000D02*
D03*
D16*
X533908Y57150D02*
D03*
Y44450D02*
D03*
Y31750D02*
D03*
Y19050D02*
D03*
X482092D02*
D03*
Y31750D02*
D03*
Y44450D02*
D03*
Y57150D02*
D03*
X125908Y129050D02*
D03*
Y116350D02*
D03*
Y103650D02*
D03*
Y90950D02*
D03*
X74092D02*
D03*
Y103650D02*
D03*
Y116350D02*
D03*
Y129050D02*
D03*
D17*
X422000Y105000D02*
D03*
X358000D02*
D03*
D18*
X184500Y-55000D02*
D03*
Y-60000D02*
D03*
Y-65000D02*
D03*
Y-70000D02*
D03*
Y-75000D02*
D03*
X225500D02*
D03*
Y-70000D02*
D03*
Y-65000D02*
D03*
Y-60000D02*
D03*
Y-55000D02*
D03*
D19*
X205000Y-65000D02*
D03*
D20*
X524510Y-124780D02*
D03*
Y-37780D02*
D03*
D21*
X408720Y-50800D02*
X424560D01*
X427500Y-53740D01*
X423690Y-74930D02*
X427500Y-78740D01*
X408720Y-74930D02*
X423690D01*
X374870Y-44450D02*
X381170Y-50750D01*
X357640Y-44450D02*
X374870D01*
X357640D02*
X371750Y-30340D01*
X381170Y-50750D02*
Y-50000D01*
Y-74930D02*
Y-50750D01*
X381220Y-50800D01*
X586250Y70000D02*
Y73750D01*
X560070Y99930D02*
X586250Y73750D01*
X560070Y99930D02*
Y108170D01*
X609600Y65850D02*
X613750Y70000D01*
X609600Y34290D02*
Y65850D01*
X606840Y37050D02*
X608750Y35140D01*
X545740Y122500D02*
X560070Y108170D01*
X533750Y122500D02*
X545740D01*
X557310Y138430D02*
X560070Y135670D01*
X518160Y138430D02*
X557310D01*
X318770Y-57480D02*
Y-51230D01*
X315000Y-61250D02*
X318770Y-57480D01*
X340140Y-34290D02*
X346490Y-27940D01*
X312640Y-34290D02*
X316230D01*
X340000Y-61250D02*
Y-58060D01*
X316230Y-34290D02*
X340000Y-58060D01*
X542290Y31750D02*
X562610Y52070D01*
X532638Y31750D02*
X542290D01*
X548640Y49530D02*
Y63500D01*
X543560Y44450D02*
X548640Y49530D01*
X532638Y44450D02*
X543560D01*
X529000Y95250D02*
X533750Y100000D01*
X520700Y95250D02*
X529000D01*
X528100Y82550D02*
X534450Y76200D01*
X520700Y82550D02*
X528100D01*
X458470Y107730D02*
Y124460D01*
X439420Y143510D02*
X458470Y124460D01*
X381000Y143510D02*
X439420D01*
X358000Y120510D02*
X381000Y143510D01*
X358000Y105000D02*
Y120510D01*
X365250Y-24640D02*
Y-21717D01*
X361950Y-27940D02*
X365250Y-24640D01*
X346490Y-27940D02*
X361950D01*
X362583Y19050D02*
X365250Y21717D01*
X356870Y19050D02*
X362583D01*
X256250Y-20000D02*
X270000D01*
X256250D02*
X256250D01*
X255000Y-21250D02*
X256250Y-20000D01*
X378250Y-35350D02*
Y-21717D01*
Y21717D02*
Y36750D01*
X370000Y45000D02*
X378250Y36750D01*
X373250Y33250D02*
X375000Y35000D01*
X371750Y33250D02*
X373250D01*
X288750Y-105000D02*
X295000D01*
X300000Y-100000D01*
X255000Y-21250D02*
X255000D01*
X243750Y-105000D02*
X261250D01*
X243750Y-130000D02*
X261250D01*
X288750D02*
Y-105000D01*
X371750Y-30340D02*
Y-21717D01*
X356250Y45000D02*
X360000D01*
X322000D02*
X356250D01*
X384750Y-21717D02*
X387717Y-18750D01*
X384750Y32870D02*
X396330Y44450D01*
X384750Y21717D02*
Y32870D01*
X360000Y45000D02*
X370000D01*
X360000D02*
X371750Y33250D01*
Y21717D02*
Y33250D01*
X384750Y-21717D02*
Y-1500D01*
X386250Y0D01*
X458470Y80230D02*
X461010Y77690D01*
X467360Y48260D02*
X471170Y44450D01*
X483362D01*
X461010Y43180D02*
Y77690D01*
Y43180D02*
X472440Y31750D01*
X483362D01*
X467360Y48260D02*
Y63500D01*
X481330Y77470D01*
Y80230D01*
X534450Y76200D02*
X535940D01*
X548640Y63500D01*
X387717Y-18750D02*
X405000D01*
X506250Y122500D02*
Y126520D01*
X518160Y138430D01*
D22*
X626110Y8890D02*
Y13750D01*
X552083Y8890D02*
X626110D01*
X551632Y9341D02*
X552083Y8890D01*
X547223Y13750D02*
X551632Y9341D01*
X530860Y-11430D02*
X553750Y11460D01*
X530860Y16527D02*
X550000D01*
X553750Y13750D02*
X579250D01*
X609600Y20100D02*
Y34290D01*
X553750Y11460D02*
Y13750D01*
X579250D02*
X603250D01*
X547223D02*
X553750D01*
X626110D02*
Y34290D01*
X524510Y-17780D02*
X530860Y-11430D01*
X533637Y13750D02*
X547223D01*
X530860Y-11430D02*
Y16527D01*
X550000D02*
X563987D01*
X547223Y13750D02*
X550000Y16527D01*
X530860D02*
X533637Y13750D01*
X609600Y-34290D02*
Y-20100D01*
X603250Y-13750D02*
X609600Y-20100D01*
Y-34290D02*
X626110D01*
X603250Y13750D02*
X609600Y20100D01*
Y34290D02*
X626110D01*
Y-34290D02*
Y-13750D01*
X603250Y13750D02*
X626110D01*
X570230Y22770D02*
X579250Y13750D01*
X603250Y-13750D02*
X626110D01*
X576710D02*
X603250D01*
X570230Y-20230D02*
X576710Y-13750D01*
X570230Y-79060D02*
Y-20230D01*
X524510Y-124780D02*
X570230Y-79060D01*
X563987Y16527D02*
X570230Y22770D01*
X398950Y-12700D02*
X496570D01*
X508000Y-1270D02*
Y30226D01*
X490520Y-90790D02*
X524510Y-124780D01*
X490520Y-90790D02*
Y-18750D01*
X524510Y-37780D02*
Y-17780D01*
X496570Y-12700D02*
X508000Y-1270D01*
X490520Y-18750D02*
X496570Y-12700D01*
X445000Y-18750D02*
X490520D01*
X386250Y0D02*
X398950Y-12700D01*
X505672Y57150D02*
Y109220D01*
Y40428D02*
Y57150D01*
X439330Y31830D02*
Y44450D01*
X420000Y8750D02*
Y12500D01*
X355000Y0D02*
X386250D01*
X351250Y-3750D02*
X355000Y0D01*
X335000Y-3750D02*
X351250D01*
X422000Y82000D02*
Y106270D01*
X396330Y56330D02*
X422000Y82000D01*
X396330Y44450D02*
Y56330D01*
X405000Y-18750D02*
X420000D01*
X310000Y-3750D02*
X335000D01*
X420000Y-18750D02*
X445000D01*
X420000Y8750D02*
X445000D01*
X420000D02*
X430222Y18972D01*
X420000Y12500D02*
X429665Y22165D01*
X439330Y31830D01*
X481330Y107730D02*
X504182D01*
X505672Y109220D01*
Y125730D01*
X485140Y8750D02*
Y16527D01*
X429665Y22165D02*
X435303Y16527D01*
X485140D01*
X445000Y8750D02*
X485140D01*
X508000Y30226D02*
Y38100D01*
X505672Y40428D02*
X508000Y38100D01*
D23*
X360680Y-74930D02*
Y-68360D01*
X346930Y-88680D02*
X360680Y-74930D01*
X337820Y-88680D02*
X346930D01*
X365490Y-88750D02*
X399930Y-123190D01*
X360680Y-83940D02*
X365490Y-88750D01*
X367605Y-90865D01*
X315000Y-88750D02*
X365490D01*
X434340Y-123190D02*
X444500Y-113030D01*
X399930Y-123190D02*
X434340D01*
X243750Y-48750D02*
X255000Y-60000D01*
X243750Y-48750D02*
X255000D01*
X205000Y-65000D02*
Y-40000D01*
X186250Y-21250D02*
X205000Y-40000D01*
X160000Y-21250D02*
X186250D01*
X255000Y-48750D02*
X268750D01*
X255000Y-60000D02*
X280000D01*
X268750Y-48750D02*
Y-45000D01*
X310000Y-3750D01*
X268750Y-48750D02*
X280000Y-60000D01*
X255000D02*
Y-48750D01*
X280000Y-60000D02*
X288750Y-68750D01*
Y-80000D02*
Y-68750D01*
X73000Y116350D02*
Y129050D01*
Y103650D02*
Y116350D01*
Y90950D02*
Y103650D01*
Y79400D02*
Y90950D01*
Y79400D02*
X114300Y38100D01*
X160000Y-21250D02*
Y5000D01*
X126900Y38100D02*
X160000Y5000D01*
X114300Y38100D02*
X126900D01*
X105000Y-69970D02*
X126220Y-48750D01*
X105000Y-135000D02*
Y-69970D01*
X126220Y-48750D02*
X160000D01*
X115570Y-38100D02*
X126220Y-48750D01*
X360680Y-83940D02*
Y-68360D01*
X444500Y-113030D02*
Y-22860D01*
D24*
X483362Y57150D02*
X505672D01*
D25*
X196850Y78740D02*
Y135890D01*
X182880D02*
X196850D01*
X182880Y109220D02*
Y135890D01*
X256250Y-20000D02*
X260000Y-16250D01*
X255000Y-21250D02*
X256250Y-20000D01*
X255000Y-21250D02*
X255000Y-21250D01*
X275000Y-1250D02*
Y45000D01*
X356250D02*
X358000Y46750D01*
X335000Y23750D02*
X356250Y45000D01*
X358000Y46750D02*
Y105000D01*
X310000Y23750D02*
Y33000D01*
Y23750D02*
X335000D01*
X310000Y33000D02*
X322000Y45000D01*
X195580Y60960D02*
Y96520D01*
X259080Y-2540D02*
X260000D01*
Y-16250D02*
Y-2540D01*
Y-16250D02*
X275000Y-1250D01*
X260000Y-2540D02*
Y15590D01*
X182880Y109220D02*
X195580Y96520D01*
X228000Y45000D02*
X230590D01*
X275000D01*
X230590D02*
X260000Y15590D01*
X195580Y60960D02*
X259080Y-2540D01*
X196850Y78740D02*
X230590Y45000D01*
X115000Y125000D02*
X140000D01*
D26*
X216250Y-105000D02*
Y-102520D01*
X173750Y-48750D02*
X180000Y-55000D01*
X160000Y-48750D02*
X173750D01*
X160000D02*
X161562Y-50312D01*
X180000Y-55000D02*
X184500D01*
X257800Y-80000D02*
X261250D01*
X237800Y-60000D02*
X257800Y-80000D01*
X225500Y-60000D02*
X237800D01*
X225500Y-65000D02*
X235000D01*
X238750Y-21250D02*
X255000D01*
X225500Y-34500D02*
X238750Y-21250D01*
X225500Y-55000D02*
Y-34500D01*
X155000Y-85000D02*
Y-76250D01*
X150000Y-90000D02*
X155000Y-85000D01*
X135000Y-90000D02*
X150000D01*
X130000Y-95000D02*
X135000Y-90000D01*
X130000Y-103750D02*
Y-95000D01*
Y-76250D02*
X146250Y-60000D01*
X184500D01*
X166250Y-65000D02*
X184500D01*
X155000Y-76250D02*
X166250Y-65000D01*
X155000Y-103750D02*
X161250D01*
X170000Y-95000D01*
Y-75000D01*
X175000Y-70000D01*
X184500D01*
X205000Y-65000D02*
X210000Y-70000D01*
X225500D01*
X184500Y-65000D02*
X205000D01*
X184500Y-103220D02*
Y-75000D01*
Y-103220D02*
X211280Y-130000D01*
X216250D01*
Y-102520D02*
X239014Y-79756D01*
Y-69014D01*
X235000Y-65000D02*
X239014Y-69014D01*
D27*
X146250Y55000D02*
X148750D01*
X173750Y80000D01*
X115000Y125000D02*
X119050Y129050D01*
X135300Y90950D02*
X146250Y80000D01*
X156350Y103650D02*
X173750Y86250D01*
Y80000D02*
Y86250D01*
X127000Y103650D02*
X156350D01*
X150000Y127700D02*
Y135000D01*
X138650Y116350D02*
X150000Y127700D01*
X106350Y116350D02*
X138650D01*
X144050Y129050D02*
X150000Y135000D01*
X119050Y129050D02*
X144050D01*
X100000Y110000D02*
X106350Y116350D01*
X173750Y55000D02*
X177170Y58420D01*
X193040D01*
X195580Y60960D01*
X106350Y116350D02*
X115000Y125000D01*
X100000Y104470D02*
Y110000D01*
Y104470D02*
X113520Y90950D01*
X135300D01*
D28*
X240000Y117500D02*
X242962D01*
X241481D01*
Y126387D01*
X240000Y124906D01*
X247406Y118981D02*
X248887Y117500D01*
X251849D01*
X253331Y118981D01*
Y124906D01*
X251849Y126387D01*
X248887D01*
X247406Y124906D01*
Y123425D01*
X248887Y121944D01*
X253331D01*
X256293Y117500D02*
X259255D01*
X257774D01*
Y126387D01*
X256293Y124906D01*
X263699Y117500D02*
X266661D01*
X265180D01*
Y126387D01*
X263699Y124906D01*
X271105D02*
X272586Y126387D01*
X275548D01*
X277030Y124906D01*
Y123425D01*
X275548Y121944D01*
X277030Y120462D01*
Y118981D01*
X275548Y117500D01*
X272586D01*
X271105Y118981D01*
Y120462D01*
X272586Y121944D01*
X271105Y123425D01*
Y124906D01*
X272586Y121944D02*
X275548D01*
X279992Y124906D02*
X281473Y126387D01*
X284436D01*
X285917Y124906D01*
Y123425D01*
X284436Y121944D01*
X285917Y120462D01*
Y118981D01*
X284436Y117500D01*
X281473D01*
X279992Y118981D01*
Y120462D01*
X281473Y121944D01*
X279992Y123425D01*
Y124906D01*
X281473Y121944D02*
X284436D01*
X288879D02*
X294804D01*
X297766Y117500D02*
X300729D01*
X299247D01*
Y126387D01*
X297766Y124906D01*
X253625Y141387D02*
X247700D01*
Y132500D01*
X253625D01*
X247700Y136944D02*
X250662D01*
X256587Y141387D02*
Y132500D01*
X262512D01*
X271399Y141387D02*
X265474D01*
Y132500D01*
X271399D01*
X265474Y136944D02*
X268437D01*
X274361Y141387D02*
Y132500D01*
Y135462D01*
X280286Y141387D01*
X275843Y136944D01*
X280286Y132500D01*
X283249Y141387D02*
X289173D01*
X286211D01*
Y132500D01*
X296579Y141387D02*
X293617D01*
X292136Y139906D01*
Y133981D01*
X293617Y132500D01*
X296579D01*
X298060Y133981D01*
Y139906D01*
X296579Y141387D01*
X301023Y132500D02*
Y141387D01*
X305466D01*
X306947Y139906D01*
Y136944D01*
X305466Y135462D01*
X301023D01*
X303985D02*
X306947Y132500D01*
D29*
X322000Y45000D02*
D03*
X275000D02*
D03*
X228000D02*
D03*
D30*
X562610Y52070D02*
D03*
D31*
X515874Y45974D02*
D03*
Y38100D02*
D03*
Y30226D02*
D03*
X508000Y45974D02*
D03*
Y38100D02*
D03*
Y30226D02*
D03*
X500126Y45974D02*
D03*
Y38100D02*
D03*
Y30226D02*
D03*
X107874Y117874D02*
D03*
Y110000D02*
D03*
Y102126D02*
D03*
X100000Y117874D02*
D03*
Y110000D02*
D03*
Y102126D02*
D03*
X92126Y117874D02*
D03*
Y110000D02*
D03*
Y102126D02*
D03*
D32*
X30000Y120000D02*
D03*
Y-120000D02*
D03*
X610000D02*
D03*
Y120000D02*
D03*
D33*
X205000Y-65000D02*
D03*
X209500Y-59000D02*
D03*
Y-71000D02*
D03*
X200500D02*
D03*
Y-59000D02*
D03*
D34*
X75000Y-127000D02*
D03*
X105000D02*
D03*
X150000Y127000D02*
D03*
X190000D02*
D03*
D35*
X618110Y-34290D02*
D03*
Y34290D02*
D03*
D36*
X427500Y-78740D02*
D03*
Y-53740D02*
D03*
Y-103740D02*
D03*
X461500Y-78740D02*
D03*
Y-53740D02*
D03*
Y-103740D02*
D03*
D37*
X114300Y38100D02*
D03*
X115570Y-38100D02*
D03*
X57200Y-63500D02*
D03*
X57150Y63500D02*
D03*
X114300Y-12700D02*
D03*
Y12700D02*
D03*
X31800Y63500D02*
D03*
X31750Y-63500D02*
D03*
D38*
X552450Y-15240D02*
D03*
Y-27940D02*
D03*
X495000Y-15000D02*
D03*
X505000Y-27700D02*
D03*
X495000D02*
D03*
X485000D02*
D03*
X505000Y-15000D02*
D03*
X485000D02*
D03*
X160000Y-10000D02*
D03*
X175000Y-25000D02*
D03*
X145000D02*
D03*
X74930Y138430D02*
D03*
X67310D02*
D03*
X400050Y-22860D02*
D03*
X205000Y-35000D02*
D03*
Y-45000D02*
D03*
X210000Y-85000D02*
D03*
X202500Y-90000D02*
D03*
X195000Y-85000D02*
D03*
X378250Y-35350D02*
D03*
X300000Y-100000D02*
D03*
X270000Y-20000D02*
D03*
X318770Y-50800D02*
D03*
X520700Y82550D02*
D03*
X458470Y12700D02*
D03*
X520700Y95250D02*
D03*
D39*
X270000Y-45000D02*
D03*
X243750Y-48750D02*
D03*
X255000Y-60000D02*
D03*
D40*
X375000Y40000D02*
D03*
D41*
X356870Y19050D02*
D03*
M02*
