G04 #@! TF.FileFunction,Copper,L2,Bot,Signal*
%FSLAX46Y46*%
G04 Gerber Fmt 4.6, Leading zero omitted, Abs format (unit mm)*
G04 Created by KiCad (PCBNEW 4.0.7) date 03/14/18 20:09:00*
%MOMM*%
%LPD*%
G01*
G04 APERTURE LIST*
%ADD10C,0.100000*%
%ADD11C,0.300000*%
%ADD12C,2.000000*%
%ADD13R,1.600000X2.400000*%
%ADD14O,1.600000X2.400000*%
%ADD15R,2.000000X2.000000*%
%ADD16R,1.600000X1.600000*%
%ADD17C,1.600000*%
%ADD18R,2.500000X2.500000*%
%ADD19O,2.000000X2.500000*%
%ADD20R,3.500000X3.500000*%
%ADD21R,2.400000X1.700000*%
%ADD22O,2.400000X1.700000*%
%ADD23R,2.400000X1.600000*%
%ADD24O,2.400000X1.600000*%
%ADD25O,2.540000X2.032000*%
%ADD26O,2.032000X2.540000*%
%ADD27R,3.500000X2.000000*%
%ADD28R,2.000000X1.750000*%
%ADD29O,2.000000X1.750000*%
%ADD30R,1.750000X2.000000*%
%ADD31O,1.750000X2.000000*%
%ADD32R,3.200000X3.200000*%
%ADD33O,3.200000X3.200000*%
%ADD34C,1.700000*%
%ADD35R,1.800000X1.400000*%
%ADD36C,4.064000*%
%ADD37C,1.500000*%
%ADD38C,1.000000*%
%ADD39C,0.254000*%
G04 APERTURE END LIST*
D10*
D11*
X69857356Y-70743071D02*
X69357356Y-72243071D01*
X68857356Y-70743071D01*
X67785928Y-72171643D02*
X67928785Y-72243071D01*
X68214499Y-72243071D01*
X68357356Y-72171643D01*
X68428785Y-72028786D01*
X68428785Y-71457357D01*
X68357356Y-71314500D01*
X68214499Y-71243071D01*
X67928785Y-71243071D01*
X67785928Y-71314500D01*
X67714499Y-71457357D01*
X67714499Y-71600214D01*
X68428785Y-71743071D01*
X67071642Y-72243071D02*
X67071642Y-71243071D01*
X67071642Y-71528786D02*
X67000214Y-71385929D01*
X66928785Y-71314500D01*
X66785928Y-71243071D01*
X66643071Y-71243071D01*
X65071643Y-70885929D02*
X65000214Y-70814500D01*
X64857357Y-70743071D01*
X64500214Y-70743071D01*
X64357357Y-70814500D01*
X64285928Y-70885929D01*
X64214500Y-71028786D01*
X64214500Y-71171643D01*
X64285928Y-71385929D01*
X65143071Y-72243071D01*
X64214500Y-72243071D01*
X63571643Y-72100214D02*
X63500215Y-72171643D01*
X63571643Y-72243071D01*
X63643072Y-72171643D01*
X63571643Y-72100214D01*
X63571643Y-72243071D01*
X62928786Y-70885929D02*
X62857357Y-70814500D01*
X62714500Y-70743071D01*
X62357357Y-70743071D01*
X62214500Y-70814500D01*
X62143071Y-70885929D01*
X62071643Y-71028786D01*
X62071643Y-71171643D01*
X62143071Y-71385929D01*
X63000214Y-72243071D01*
X62071643Y-72243071D01*
X60785929Y-72243071D02*
X60785929Y-71457357D01*
X60857358Y-71314500D01*
X61000215Y-71243071D01*
X61285929Y-71243071D01*
X61428786Y-71314500D01*
X60785929Y-72171643D02*
X60928786Y-72243071D01*
X61285929Y-72243071D01*
X61428786Y-72171643D01*
X61500215Y-72028786D01*
X61500215Y-71885929D01*
X61428786Y-71743071D01*
X61285929Y-71671643D01*
X60928786Y-71671643D01*
X60785929Y-71600214D01*
X102872999Y-102654571D02*
X102872999Y-101154571D01*
X102301571Y-101154571D01*
X102158713Y-101226000D01*
X102087285Y-101297429D01*
X102015856Y-101440286D01*
X102015856Y-101654571D01*
X102087285Y-101797429D01*
X102158713Y-101868857D01*
X102301571Y-101940286D01*
X102872999Y-101940286D01*
X101372999Y-102654571D02*
X101372999Y-101654571D01*
X101372999Y-101940286D02*
X101301571Y-101797429D01*
X101230142Y-101726000D01*
X101087285Y-101654571D01*
X100944428Y-101654571D01*
X100230142Y-102654571D02*
X100373000Y-102583143D01*
X100444428Y-102511714D01*
X100515857Y-102368857D01*
X100515857Y-101940286D01*
X100444428Y-101797429D01*
X100373000Y-101726000D01*
X100230142Y-101654571D01*
X100015857Y-101654571D01*
X99873000Y-101726000D01*
X99801571Y-101797429D01*
X99730142Y-101940286D01*
X99730142Y-102368857D01*
X99801571Y-102511714D01*
X99873000Y-102583143D01*
X100015857Y-102654571D01*
X100230142Y-102654571D01*
X98444428Y-101654571D02*
X98444428Y-102868857D01*
X98515857Y-103011714D01*
X98587285Y-103083143D01*
X98730142Y-103154571D01*
X98944428Y-103154571D01*
X99087285Y-103083143D01*
X98444428Y-102583143D02*
X98587285Y-102654571D01*
X98872999Y-102654571D01*
X99015857Y-102583143D01*
X99087285Y-102511714D01*
X99158714Y-102368857D01*
X99158714Y-101940286D01*
X99087285Y-101797429D01*
X99015857Y-101726000D01*
X98872999Y-101654571D01*
X98587285Y-101654571D01*
X98444428Y-101726000D01*
X97730142Y-102654571D02*
X97730142Y-101654571D01*
X97730142Y-101940286D02*
X97658714Y-101797429D01*
X97587285Y-101726000D01*
X97444428Y-101654571D01*
X97301571Y-101654571D01*
X96158714Y-102654571D02*
X96158714Y-101868857D01*
X96230143Y-101726000D01*
X96373000Y-101654571D01*
X96658714Y-101654571D01*
X96801571Y-101726000D01*
X96158714Y-102583143D02*
X96301571Y-102654571D01*
X96658714Y-102654571D01*
X96801571Y-102583143D01*
X96873000Y-102440286D01*
X96873000Y-102297429D01*
X96801571Y-102154571D01*
X96658714Y-102083143D01*
X96301571Y-102083143D01*
X96158714Y-102011714D01*
X95444428Y-102654571D02*
X95444428Y-101654571D01*
X95444428Y-101797429D02*
X95373000Y-101726000D01*
X95230142Y-101654571D01*
X95015857Y-101654571D01*
X94873000Y-101726000D01*
X94801571Y-101868857D01*
X94801571Y-102654571D01*
X94801571Y-101868857D02*
X94730142Y-101726000D01*
X94587285Y-101654571D01*
X94373000Y-101654571D01*
X94230142Y-101726000D01*
X94158714Y-101868857D01*
X94158714Y-102654571D01*
X93444428Y-102654571D02*
X93444428Y-101654571D01*
X93444428Y-101797429D02*
X93373000Y-101726000D01*
X93230142Y-101654571D01*
X93015857Y-101654571D01*
X92873000Y-101726000D01*
X92801571Y-101868857D01*
X92801571Y-102654571D01*
X92801571Y-101868857D02*
X92730142Y-101726000D01*
X92587285Y-101654571D01*
X92373000Y-101654571D01*
X92230142Y-101726000D01*
X92158714Y-101868857D01*
X92158714Y-102654571D01*
X90801571Y-102654571D02*
X90801571Y-101868857D01*
X90873000Y-101726000D01*
X91015857Y-101654571D01*
X91301571Y-101654571D01*
X91444428Y-101726000D01*
X90801571Y-102583143D02*
X90944428Y-102654571D01*
X91301571Y-102654571D01*
X91444428Y-102583143D01*
X91515857Y-102440286D01*
X91515857Y-102297429D01*
X91444428Y-102154571D01*
X91301571Y-102083143D01*
X90944428Y-102083143D01*
X90801571Y-102011714D01*
X90087285Y-102654571D02*
X90087285Y-101154571D01*
X90087285Y-101726000D02*
X89944428Y-101654571D01*
X89658714Y-101654571D01*
X89515857Y-101726000D01*
X89444428Y-101797429D01*
X89372999Y-101940286D01*
X89372999Y-102368857D01*
X89444428Y-102511714D01*
X89515857Y-102583143D01*
X89658714Y-102654571D01*
X89944428Y-102654571D01*
X90087285Y-102583143D01*
X88515856Y-102654571D02*
X88658714Y-102583143D01*
X88730142Y-102440286D01*
X88730142Y-101154571D01*
X87373000Y-102583143D02*
X87515857Y-102654571D01*
X87801571Y-102654571D01*
X87944428Y-102583143D01*
X88015857Y-102440286D01*
X88015857Y-101868857D01*
X87944428Y-101726000D01*
X87801571Y-101654571D01*
X87515857Y-101654571D01*
X87373000Y-101726000D01*
X87301571Y-101868857D01*
X87301571Y-102011714D01*
X88015857Y-102154571D01*
X103087285Y-105204571D02*
X103087285Y-103704571D01*
X102730142Y-103704571D01*
X102515857Y-103776000D01*
X102372999Y-103918857D01*
X102301571Y-104061714D01*
X102230142Y-104347429D01*
X102230142Y-104561714D01*
X102301571Y-104847429D01*
X102372999Y-104990286D01*
X102515857Y-105133143D01*
X102730142Y-105204571D01*
X103087285Y-105204571D01*
X101587285Y-105061714D02*
X101515857Y-105133143D01*
X101587285Y-105204571D01*
X101658714Y-105133143D01*
X101587285Y-105061714D01*
X101587285Y-105204571D01*
X100015856Y-105061714D02*
X100087285Y-105133143D01*
X100301571Y-105204571D01*
X100444428Y-105204571D01*
X100658713Y-105133143D01*
X100801571Y-104990286D01*
X100872999Y-104847429D01*
X100944428Y-104561714D01*
X100944428Y-104347429D01*
X100872999Y-104061714D01*
X100801571Y-103918857D01*
X100658713Y-103776000D01*
X100444428Y-103704571D01*
X100301571Y-103704571D01*
X100087285Y-103776000D01*
X100015856Y-103847429D01*
X99372999Y-105061714D02*
X99301571Y-105133143D01*
X99372999Y-105204571D01*
X99444428Y-105133143D01*
X99372999Y-105061714D01*
X99372999Y-105204571D01*
X96658713Y-105204571D02*
X97158713Y-104490286D01*
X97515856Y-105204571D02*
X97515856Y-103704571D01*
X96944428Y-103704571D01*
X96801570Y-103776000D01*
X96730142Y-103847429D01*
X96658713Y-103990286D01*
X96658713Y-104204571D01*
X96730142Y-104347429D01*
X96801570Y-104418857D01*
X96944428Y-104490286D01*
X97515856Y-104490286D01*
X95444428Y-105133143D02*
X95587285Y-105204571D01*
X95872999Y-105204571D01*
X96015856Y-105133143D01*
X96087285Y-104990286D01*
X96087285Y-104418857D01*
X96015856Y-104276000D01*
X95872999Y-104204571D01*
X95587285Y-104204571D01*
X95444428Y-104276000D01*
X95372999Y-104418857D01*
X95372999Y-104561714D01*
X96087285Y-104704571D01*
X94944428Y-104204571D02*
X94372999Y-104204571D01*
X94730142Y-105204571D02*
X94730142Y-103918857D01*
X94658714Y-103776000D01*
X94515856Y-103704571D01*
X94372999Y-103704571D01*
X93301571Y-105133143D02*
X93444428Y-105204571D01*
X93730142Y-105204571D01*
X93872999Y-105133143D01*
X93944428Y-104990286D01*
X93944428Y-104418857D01*
X93872999Y-104276000D01*
X93730142Y-104204571D01*
X93444428Y-104204571D01*
X93301571Y-104276000D01*
X93230142Y-104418857D01*
X93230142Y-104561714D01*
X93944428Y-104704571D01*
X92587285Y-105204571D02*
X92587285Y-104204571D01*
X92587285Y-104490286D02*
X92515857Y-104347429D01*
X92444428Y-104276000D01*
X92301571Y-104204571D01*
X92158714Y-104204571D01*
X91087286Y-105133143D02*
X91230143Y-105204571D01*
X91515857Y-105204571D01*
X91658714Y-105133143D01*
X91730143Y-104990286D01*
X91730143Y-104418857D01*
X91658714Y-104276000D01*
X91515857Y-104204571D01*
X91230143Y-104204571D01*
X91087286Y-104276000D01*
X91015857Y-104418857D01*
X91015857Y-104561714D01*
X91730143Y-104704571D01*
X90373000Y-104204571D02*
X90373000Y-105204571D01*
X90373000Y-104347429D02*
X90301572Y-104276000D01*
X90158714Y-104204571D01*
X89944429Y-104204571D01*
X89801572Y-104276000D01*
X89730143Y-104418857D01*
X89730143Y-105204571D01*
X88373000Y-105133143D02*
X88515857Y-105204571D01*
X88801571Y-105204571D01*
X88944429Y-105133143D01*
X89015857Y-105061714D01*
X89087286Y-104918857D01*
X89087286Y-104490286D01*
X89015857Y-104347429D01*
X88944429Y-104276000D01*
X88801571Y-104204571D01*
X88515857Y-104204571D01*
X88373000Y-104276000D01*
X87158715Y-105133143D02*
X87301572Y-105204571D01*
X87587286Y-105204571D01*
X87730143Y-105133143D01*
X87801572Y-104990286D01*
X87801572Y-104418857D01*
X87730143Y-104276000D01*
X87587286Y-104204571D01*
X87301572Y-104204571D01*
X87158715Y-104276000D01*
X87087286Y-104418857D01*
X87087286Y-104561714D01*
X87801572Y-104704571D01*
X78372644Y-23975143D02*
X78158358Y-24046571D01*
X77801215Y-24046571D01*
X77658358Y-23975143D01*
X77586929Y-23903714D01*
X77515501Y-23760857D01*
X77515501Y-23618000D01*
X77586929Y-23475143D01*
X77658358Y-23403714D01*
X77801215Y-23332286D01*
X78086929Y-23260857D01*
X78229787Y-23189429D01*
X78301215Y-23118000D01*
X78372644Y-22975143D01*
X78372644Y-22832286D01*
X78301215Y-22689429D01*
X78229787Y-22618000D01*
X78086929Y-22546571D01*
X77729787Y-22546571D01*
X77515501Y-22618000D01*
X76015501Y-23903714D02*
X76086930Y-23975143D01*
X76301216Y-24046571D01*
X76444073Y-24046571D01*
X76658358Y-23975143D01*
X76801216Y-23832286D01*
X76872644Y-23689429D01*
X76944073Y-23403714D01*
X76944073Y-23189429D01*
X76872644Y-22903714D01*
X76801216Y-22760857D01*
X76658358Y-22618000D01*
X76444073Y-22546571D01*
X76301216Y-22546571D01*
X76086930Y-22618000D01*
X76015501Y-22689429D01*
X75372644Y-22546571D02*
X75372644Y-23760857D01*
X75301216Y-23903714D01*
X75229787Y-23975143D01*
X75086930Y-24046571D01*
X74801216Y-24046571D01*
X74658358Y-23975143D01*
X74586930Y-23903714D01*
X74515501Y-23760857D01*
X74515501Y-22546571D01*
X73086929Y-24046571D02*
X73801215Y-24046571D01*
X73801215Y-22546571D01*
X71872643Y-24046571D02*
X72586929Y-24046571D01*
X72586929Y-22546571D01*
X70515500Y-23903714D02*
X70586929Y-23975143D01*
X70801215Y-24046571D01*
X70944072Y-24046571D01*
X71158357Y-23975143D01*
X71301215Y-23832286D01*
X71372643Y-23689429D01*
X71444072Y-23403714D01*
X71444072Y-23189429D01*
X71372643Y-22903714D01*
X71301215Y-22760857D01*
X71158357Y-22618000D01*
X70944072Y-22546571D01*
X70801215Y-22546571D01*
X70586929Y-22618000D01*
X70515500Y-22689429D01*
X69586929Y-22546571D02*
X69301215Y-22546571D01*
X69158357Y-22618000D01*
X69015500Y-22760857D01*
X68944072Y-23046571D01*
X68944072Y-23546571D01*
X69015500Y-23832286D01*
X69158357Y-23975143D01*
X69301215Y-24046571D01*
X69586929Y-24046571D01*
X69729786Y-23975143D01*
X69872643Y-23832286D01*
X69944072Y-23546571D01*
X69944072Y-23046571D01*
X69872643Y-22760857D01*
X69729786Y-22618000D01*
X69586929Y-22546571D01*
X68301214Y-24046571D02*
X68301214Y-22546571D01*
X67801214Y-23618000D01*
X67301214Y-22546571D01*
X67301214Y-24046571D01*
X65444071Y-24046571D02*
X65444071Y-22546571D01*
X65444071Y-23260857D02*
X64586928Y-23260857D01*
X64586928Y-24046571D02*
X64586928Y-22546571D01*
X63586928Y-22546571D02*
X63301214Y-22546571D01*
X63158356Y-22618000D01*
X63015499Y-22760857D01*
X62944071Y-23046571D01*
X62944071Y-23546571D01*
X63015499Y-23832286D01*
X63158356Y-23975143D01*
X63301214Y-24046571D01*
X63586928Y-24046571D01*
X63729785Y-23975143D01*
X63872642Y-23832286D01*
X63944071Y-23546571D01*
X63944071Y-23046571D01*
X63872642Y-22760857D01*
X63729785Y-22618000D01*
X63586928Y-22546571D01*
X61801213Y-23260857D02*
X61586927Y-23332286D01*
X61515499Y-23403714D01*
X61444070Y-23546571D01*
X61444070Y-23760857D01*
X61515499Y-23903714D01*
X61586927Y-23975143D01*
X61729785Y-24046571D01*
X62301213Y-24046571D01*
X62301213Y-22546571D01*
X61801213Y-22546571D01*
X61658356Y-22618000D01*
X61586927Y-22689429D01*
X61515499Y-22832286D01*
X61515499Y-22975143D01*
X61586927Y-23118000D01*
X61658356Y-23189429D01*
X61801213Y-23260857D01*
X62301213Y-23260857D01*
X60301213Y-23260857D02*
X60086927Y-23332286D01*
X60015499Y-23403714D01*
X59944070Y-23546571D01*
X59944070Y-23760857D01*
X60015499Y-23903714D01*
X60086927Y-23975143D01*
X60229785Y-24046571D01*
X60801213Y-24046571D01*
X60801213Y-22546571D01*
X60301213Y-22546571D01*
X60158356Y-22618000D01*
X60086927Y-22689429D01*
X60015499Y-22832286D01*
X60015499Y-22975143D01*
X60086927Y-23118000D01*
X60158356Y-23189429D01*
X60301213Y-23260857D01*
X60801213Y-23260857D01*
X59015499Y-23332286D02*
X59015499Y-24046571D01*
X59515499Y-22546571D02*
X59015499Y-23332286D01*
X58515499Y-22546571D01*
X56872642Y-23260857D02*
X56372642Y-23260857D01*
X56158356Y-24046571D02*
X56872642Y-24046571D01*
X56872642Y-22546571D01*
X56158356Y-22546571D01*
X54801213Y-24046571D02*
X55515499Y-24046571D01*
X55515499Y-22546571D01*
X54301213Y-23260857D02*
X53801213Y-23260857D01*
X53586927Y-24046571D02*
X54301213Y-24046571D01*
X54301213Y-22546571D01*
X53586927Y-22546571D01*
X52086927Y-23903714D02*
X52158356Y-23975143D01*
X52372642Y-24046571D01*
X52515499Y-24046571D01*
X52729784Y-23975143D01*
X52872642Y-23832286D01*
X52944070Y-23689429D01*
X53015499Y-23403714D01*
X53015499Y-23189429D01*
X52944070Y-22903714D01*
X52872642Y-22760857D01*
X52729784Y-22618000D01*
X52515499Y-22546571D01*
X52372642Y-22546571D01*
X52158356Y-22618000D01*
X52086927Y-22689429D01*
X51658356Y-22546571D02*
X50801213Y-22546571D01*
X51229784Y-24046571D02*
X51229784Y-22546571D01*
X49444070Y-24046571D02*
X49944070Y-23332286D01*
X50301213Y-24046571D02*
X50301213Y-22546571D01*
X49729785Y-22546571D01*
X49586927Y-22618000D01*
X49515499Y-22689429D01*
X49444070Y-22832286D01*
X49444070Y-23046571D01*
X49515499Y-23189429D01*
X49586927Y-23260857D01*
X49729785Y-23332286D01*
X50301213Y-23332286D01*
X48515499Y-22546571D02*
X48229785Y-22546571D01*
X48086927Y-22618000D01*
X47944070Y-22760857D01*
X47872642Y-23046571D01*
X47872642Y-23546571D01*
X47944070Y-23832286D01*
X48086927Y-23975143D01*
X48229785Y-24046571D01*
X48515499Y-24046571D01*
X48658356Y-23975143D01*
X48801213Y-23832286D01*
X48872642Y-23546571D01*
X48872642Y-23046571D01*
X48801213Y-22760857D01*
X48658356Y-22618000D01*
X48515499Y-22546571D01*
X47229784Y-24046571D02*
X47229784Y-22546571D01*
X46372641Y-24046571D01*
X46372641Y-22546571D01*
X45658355Y-24046571D02*
X45658355Y-22546571D01*
X44086926Y-23903714D02*
X44158355Y-23975143D01*
X44372641Y-24046571D01*
X44515498Y-24046571D01*
X44729783Y-23975143D01*
X44872641Y-23832286D01*
X44944069Y-23689429D01*
X45015498Y-23403714D01*
X45015498Y-23189429D01*
X44944069Y-22903714D01*
X44872641Y-22760857D01*
X44729783Y-22618000D01*
X44515498Y-22546571D01*
X44372641Y-22546571D01*
X44158355Y-22618000D01*
X44086926Y-22689429D01*
X43515498Y-23975143D02*
X43301212Y-24046571D01*
X42944069Y-24046571D01*
X42801212Y-23975143D01*
X42729783Y-23903714D01*
X42658355Y-23760857D01*
X42658355Y-23618000D01*
X42729783Y-23475143D01*
X42801212Y-23403714D01*
X42944069Y-23332286D01*
X43229783Y-23260857D01*
X43372641Y-23189429D01*
X43444069Y-23118000D01*
X43515498Y-22975143D01*
X43515498Y-22832286D01*
X43444069Y-22689429D01*
X43372641Y-22618000D01*
X43229783Y-22546571D01*
X42872641Y-22546571D01*
X42658355Y-22618000D01*
D12*
X115824000Y-43116500D03*
X100584000Y-43116500D03*
D13*
X51435000Y-71247000D03*
D14*
X49435000Y-71247000D03*
D15*
X38925500Y-78041500D03*
D12*
X38925500Y-73041500D03*
X83312000Y-75438000D03*
X78312000Y-75438000D03*
X36639500Y-82423000D03*
X41639500Y-82423000D03*
X71374000Y-84709000D03*
X71374000Y-89709000D03*
X36258500Y-58229500D03*
X41258500Y-58229500D03*
X62928500Y-97599500D03*
X67928500Y-97599500D03*
D13*
X51879500Y-63690500D03*
D14*
X53879500Y-63690500D03*
D12*
X41211500Y-52197000D03*
X36211500Y-52197000D03*
D16*
X65722500Y-53594000D03*
D17*
X65722500Y-55594000D03*
D18*
X32575500Y-86423500D03*
D19*
X32575500Y-96583500D03*
D20*
X40132000Y-94742000D03*
X40132000Y-100742000D03*
X44832000Y-97742000D03*
D21*
X94805500Y-42608500D03*
D22*
X94805500Y-40068500D03*
D13*
X75755500Y-70675500D03*
D14*
X83375500Y-63055500D03*
X78295500Y-70675500D03*
X80835500Y-63055500D03*
X80835500Y-70675500D03*
X78295500Y-63055500D03*
X83375500Y-70675500D03*
X75755500Y-63055500D03*
D13*
X91503500Y-70675500D03*
D14*
X106743500Y-63055500D03*
X94043500Y-70675500D03*
X104203500Y-63055500D03*
X96583500Y-70675500D03*
X101663500Y-63055500D03*
X99123500Y-70675500D03*
X99123500Y-63055500D03*
X101663500Y-70675500D03*
X96583500Y-63055500D03*
X104203500Y-70675500D03*
X94043500Y-63055500D03*
X106743500Y-70675500D03*
X91503500Y-63055500D03*
D13*
X56134000Y-77089000D03*
D14*
X48514000Y-84709000D03*
X53594000Y-77089000D03*
X51054000Y-84709000D03*
X51054000Y-77089000D03*
X53594000Y-84709000D03*
X48514000Y-77089000D03*
X56134000Y-84709000D03*
D13*
X75692000Y-91059000D03*
D14*
X83312000Y-83439000D03*
X78232000Y-91059000D03*
X80772000Y-83439000D03*
X80772000Y-91059000D03*
X78232000Y-83439000D03*
X83312000Y-91059000D03*
X75692000Y-83439000D03*
D13*
X91440000Y-90932000D03*
D14*
X106680000Y-83312000D03*
X93980000Y-90932000D03*
X104140000Y-83312000D03*
X96520000Y-90932000D03*
X101600000Y-83312000D03*
X99060000Y-90932000D03*
X99060000Y-83312000D03*
X101600000Y-90932000D03*
X96520000Y-83312000D03*
X104140000Y-90932000D03*
X93980000Y-83312000D03*
X106680000Y-90932000D03*
X91440000Y-83312000D03*
D23*
X81280000Y-38989000D03*
D24*
X88900000Y-54229000D03*
X81280000Y-41529000D03*
X88900000Y-51689000D03*
X81280000Y-44069000D03*
X88900000Y-49149000D03*
X81280000Y-46609000D03*
X88900000Y-46609000D03*
X81280000Y-49149000D03*
X88900000Y-44069000D03*
X81280000Y-51689000D03*
X88900000Y-41529000D03*
X81280000Y-54229000D03*
X88900000Y-38989000D03*
D13*
X46418500Y-57658000D03*
D14*
X54038500Y-50038000D03*
X48958500Y-57658000D03*
X51498500Y-50038000D03*
X51498500Y-57658000D03*
X48958500Y-50038000D03*
X54038500Y-57658000D03*
X46418500Y-50038000D03*
D25*
X27051000Y-77851000D03*
X27051000Y-75311000D03*
X27051000Y-80391000D03*
D26*
X60896500Y-102679500D03*
X58356500Y-102679500D03*
X63436500Y-102679500D03*
D25*
X26924000Y-44958000D03*
X26924000Y-42418000D03*
X26924000Y-47498000D03*
D23*
X54673500Y-91059000D03*
D24*
X54673500Y-93559000D03*
D12*
X83312000Y-102743000D03*
X78312000Y-102743000D03*
X75184000Y-34290000D03*
X75184000Y-39290000D03*
D23*
X38925500Y-64516000D03*
D24*
X38925500Y-67016000D03*
D13*
X65532000Y-90678000D03*
D14*
X63032000Y-90678000D03*
D23*
X38417500Y-43815000D03*
D24*
X38417500Y-46315000D03*
D12*
X71247000Y-62738000D03*
X71247000Y-67738000D03*
X61849000Y-81153000D03*
X66849000Y-81153000D03*
D27*
X61722000Y-34988500D03*
X66722000Y-34988500D03*
D28*
X96774000Y-47879000D03*
D29*
X96774000Y-50379000D03*
D30*
X96393000Y-77216000D03*
D31*
X93893000Y-77216000D03*
D30*
X103886000Y-30099000D03*
D31*
X101386000Y-30099000D03*
X98886000Y-30099000D03*
X96386000Y-30099000D03*
X93886000Y-30099000D03*
X91386000Y-30099000D03*
X88886000Y-30099000D03*
X86386000Y-30099000D03*
X83886000Y-30099000D03*
X81386000Y-30099000D03*
D30*
X37401500Y-29083000D03*
D31*
X39901500Y-29083000D03*
X42401500Y-29083000D03*
X44901500Y-29083000D03*
D32*
X30734000Y-68834000D03*
D33*
X30734000Y-53594000D03*
D34*
X58991500Y-50165000D03*
X58991500Y-52705000D03*
X58991500Y-55245000D03*
D35*
X69596000Y-46863000D03*
X67096000Y-46863000D03*
D28*
X26797000Y-91440000D03*
D29*
X26797000Y-93940000D03*
X26797000Y-96440000D03*
D30*
X40703500Y-88900000D03*
D31*
X38203500Y-88900000D03*
D36*
X116967000Y-25400000D03*
X116967000Y-105156000D03*
X24511000Y-105156000D03*
X24511000Y-25400000D03*
D37*
X63436500Y-102679500D02*
X66357500Y-102679500D01*
X67928500Y-101108500D02*
X67928500Y-97599500D01*
X66357500Y-102679500D02*
X67928500Y-101108500D01*
X67928500Y-97599500D02*
X67928500Y-92249000D01*
X67928500Y-92249000D02*
X66357500Y-90678000D01*
X66357500Y-90678000D02*
X65532000Y-90678000D01*
X65532000Y-90678000D02*
X70405000Y-90678000D01*
X70405000Y-90678000D02*
X71374000Y-89709000D01*
X66849000Y-81153000D02*
X66849000Y-89361000D01*
X66849000Y-89361000D02*
X65532000Y-90678000D01*
X38925500Y-67016000D02*
X42331000Y-67016000D01*
X42862500Y-59833500D02*
X41258500Y-58229500D01*
X42862500Y-66484500D02*
X42862500Y-59833500D01*
X42331000Y-67016000D02*
X42862500Y-66484500D01*
D38*
X38925500Y-73041500D02*
X40910500Y-73041500D01*
X43180000Y-80882500D02*
X41639500Y-82423000D01*
X43180000Y-75311000D02*
X43180000Y-80882500D01*
X40910500Y-73041500D02*
X43180000Y-75311000D01*
X51054000Y-77089000D02*
X51054000Y-79438500D01*
X51054000Y-79438500D02*
X49847500Y-80645000D01*
X49847500Y-80645000D02*
X43417500Y-80645000D01*
X43417500Y-80645000D02*
X41639500Y-82423000D01*
D37*
X38925500Y-67016000D02*
X38925500Y-73041500D01*
X27051000Y-77851000D02*
X31242000Y-77851000D01*
X36051500Y-73041500D02*
X38925500Y-73041500D01*
X31242000Y-77851000D02*
X36051500Y-73041500D01*
D38*
X36211500Y-52197000D02*
X36211500Y-53182500D01*
X36211500Y-53182500D02*
X41258500Y-58229500D01*
X63436500Y-102679500D02*
X64071500Y-102679500D01*
D37*
X58991500Y-50165000D02*
X58991500Y-48260000D01*
X66722000Y-33130500D02*
X66722000Y-34988500D01*
X64960500Y-31369000D02*
X66722000Y-33130500D01*
X59372500Y-31369000D02*
X64960500Y-31369000D01*
X57086500Y-33655000D02*
X59372500Y-31369000D01*
X57086500Y-46355000D02*
X57086500Y-33655000D01*
X58991500Y-48260000D02*
X57086500Y-46355000D01*
X66849000Y-81153000D02*
X69024500Y-81153000D01*
X71247000Y-78930500D02*
X71247000Y-67738000D01*
X69024500Y-81153000D02*
X71247000Y-78930500D01*
X71247000Y-67738000D02*
X71247000Y-72961500D01*
X71247000Y-72961500D02*
X72390000Y-74104500D01*
X72390000Y-74104500D02*
X76978500Y-74104500D01*
X76978500Y-74104500D02*
X78312000Y-75438000D01*
X78312000Y-102743000D02*
X78312000Y-104474000D01*
X106680000Y-104902000D02*
X106680000Y-90932000D01*
X104521000Y-107061000D02*
X106680000Y-104902000D01*
X80899000Y-107061000D02*
X104521000Y-107061000D01*
X78312000Y-104474000D02*
X80899000Y-107061000D01*
X63436500Y-102679500D02*
X78248500Y-102679500D01*
X78248500Y-102679500D02*
X78312000Y-102743000D01*
X75184000Y-34290000D02*
X75184000Y-28765500D01*
X83886000Y-27053500D02*
X83886000Y-30099000D01*
X83248500Y-26416000D02*
X83886000Y-27053500D01*
X77533500Y-26416000D02*
X83248500Y-26416000D01*
X75184000Y-28765500D02*
X77533500Y-26416000D01*
X26924000Y-44958000D02*
X31940500Y-44958000D01*
X33297500Y-46315000D02*
X38417500Y-46315000D01*
X31940500Y-44958000D02*
X33297500Y-46315000D01*
D38*
X93893000Y-77216000D02*
X93893000Y-83225000D01*
X93893000Y-83225000D02*
X93980000Y-83312000D01*
X88900000Y-44069000D02*
X87122000Y-44069000D01*
X74168000Y-50165000D02*
X58991500Y-50165000D01*
X78295500Y-54292500D02*
X74168000Y-50165000D01*
X78295500Y-55880000D02*
X78295500Y-54292500D01*
X79375000Y-56959500D02*
X78295500Y-55880000D01*
X84201000Y-56959500D02*
X79375000Y-56959500D01*
X85280500Y-55880000D02*
X84201000Y-56959500D01*
X85280500Y-45910500D02*
X85280500Y-55880000D01*
X87122000Y-44069000D02*
X85280500Y-45910500D01*
X78295500Y-70675500D02*
X78295500Y-75421500D01*
X78295500Y-75421500D02*
X78312000Y-75438000D01*
X93893000Y-83225000D02*
X93980000Y-83312000D01*
X78248500Y-102679500D02*
X78312000Y-102743000D01*
X65722500Y-55594000D02*
X65722500Y-57594500D01*
X65722500Y-57594500D02*
X63246000Y-60071000D01*
X63246000Y-60071000D02*
X55308500Y-60071000D01*
X55308500Y-60071000D02*
X54038500Y-58801000D01*
X54038500Y-58801000D02*
X54038500Y-57658000D01*
X53879500Y-63690500D02*
X53879500Y-62579500D01*
X53879500Y-62579500D02*
X54038500Y-62420500D01*
X54038500Y-62420500D02*
X54038500Y-57658000D01*
X101600000Y-90932000D02*
X101600000Y-93980000D01*
X101600000Y-93980000D02*
X102616000Y-94996000D01*
X102616000Y-94996000D02*
X105791000Y-94996000D01*
X105791000Y-94996000D02*
X106680000Y-94107000D01*
X106680000Y-94107000D02*
X106680000Y-90932000D01*
X36211500Y-52197000D02*
X36211500Y-48521000D01*
X36211500Y-48521000D02*
X38417500Y-46315000D01*
X93766000Y-83098000D02*
X93980000Y-83312000D01*
X53594000Y-77089000D02*
X53594000Y-73406000D01*
X53594000Y-73406000D02*
X51435000Y-71247000D01*
X48514000Y-77089000D02*
X48514000Y-72168000D01*
X48514000Y-72168000D02*
X49435000Y-71247000D01*
D37*
X40703500Y-88900000D02*
X40703500Y-86550500D01*
X40703500Y-86550500D02*
X36639500Y-82486500D01*
X36639500Y-82486500D02*
X36639500Y-82423000D01*
X36639500Y-82423000D02*
X29083000Y-82423000D01*
X29083000Y-82423000D02*
X27051000Y-80391000D01*
X36639500Y-82423000D02*
X36639500Y-79248000D01*
X37846000Y-78041500D02*
X38925500Y-78041500D01*
X36639500Y-79248000D02*
X37846000Y-78041500D01*
X62928500Y-97599500D02*
X58714000Y-97599500D01*
X58714000Y-97599500D02*
X54673500Y-93559000D01*
X60896500Y-102679500D02*
X60896500Y-99631500D01*
X60896500Y-99631500D02*
X62928500Y-97599500D01*
D38*
X48514000Y-84709000D02*
X48514000Y-91503500D01*
X48514000Y-91503500D02*
X50569500Y-93559000D01*
X50569500Y-93559000D02*
X54673500Y-93559000D01*
X51879500Y-63690500D02*
X51879500Y-62420500D01*
X51498500Y-62039500D02*
X51498500Y-57658000D01*
X51879500Y-62420500D02*
X51498500Y-62039500D01*
D37*
X39901500Y-29083000D02*
X39901500Y-42331000D01*
X39901500Y-42331000D02*
X38417500Y-43815000D01*
X39901500Y-29083000D02*
X39901500Y-26646500D01*
X73580000Y-39290000D02*
X75184000Y-39290000D01*
X70739000Y-36449000D02*
X73580000Y-39290000D01*
X70739000Y-33718500D02*
X70739000Y-36449000D01*
X63182500Y-26162000D02*
X70739000Y-33718500D01*
X40386000Y-26162000D02*
X63182500Y-26162000D01*
X39901500Y-26646500D02*
X40386000Y-26162000D01*
X26924000Y-42418000D02*
X37020500Y-42418000D01*
X37020500Y-42418000D02*
X38417500Y-43815000D01*
D38*
X38417500Y-43815000D02*
X37846000Y-43815000D01*
X41211500Y-52197000D02*
X41211500Y-44323000D01*
X40703500Y-43815000D02*
X38417500Y-43815000D01*
X41211500Y-44323000D02*
X40703500Y-43815000D01*
X81280000Y-38989000D02*
X75485000Y-38989000D01*
X75485000Y-38989000D02*
X75184000Y-39290000D01*
X81386000Y-30099000D02*
X81386000Y-38883000D01*
X81386000Y-38883000D02*
X81280000Y-38989000D01*
X65722500Y-53594000D02*
X73914000Y-53594000D01*
X101663500Y-60579000D02*
X101663500Y-63055500D01*
X99695000Y-58610500D02*
X101663500Y-60579000D01*
X77978000Y-58610500D02*
X99695000Y-58610500D01*
X76898500Y-57531000D02*
X77978000Y-58610500D01*
X76898500Y-56578500D02*
X76898500Y-57531000D01*
X73914000Y-53594000D02*
X76898500Y-56578500D01*
X58991500Y-55245000D02*
X60960000Y-55245000D01*
X62611000Y-53594000D02*
X65722500Y-53594000D01*
X60960000Y-55245000D02*
X62611000Y-53594000D01*
X51498500Y-50038000D02*
X51498500Y-53340000D01*
X56896000Y-55245000D02*
X58991500Y-55245000D01*
X56324500Y-54673500D02*
X56896000Y-55245000D01*
X52832000Y-54673500D02*
X56324500Y-54673500D01*
X51498500Y-53340000D02*
X52832000Y-54673500D01*
X65722500Y-53594000D02*
X65849500Y-53594000D01*
D37*
X32575500Y-96583500D02*
X32575500Y-96075500D01*
X32575500Y-96075500D02*
X33909000Y-94742000D01*
X33909000Y-94742000D02*
X40132000Y-94742000D01*
D38*
X26797000Y-93940000D02*
X29631000Y-93940000D01*
X44832000Y-92139500D02*
X44832000Y-97742000D01*
X44069000Y-91376500D02*
X44832000Y-92139500D01*
X32194500Y-91376500D02*
X44069000Y-91376500D01*
X29631000Y-93940000D02*
X32194500Y-91376500D01*
X88900000Y-46609000D02*
X92329000Y-46609000D01*
X94805500Y-44132500D02*
X94805500Y-42608500D01*
X92329000Y-46609000D02*
X94805500Y-44132500D01*
X88900000Y-49149000D02*
X91694000Y-49149000D01*
X92924000Y-50379000D02*
X96774000Y-50379000D01*
X91694000Y-49149000D02*
X92924000Y-50379000D01*
X96393000Y-77216000D02*
X96393000Y-83185000D01*
X96393000Y-83185000D02*
X96520000Y-83312000D01*
X96393000Y-83185000D02*
X96520000Y-83312000D01*
X96520000Y-83312000D02*
X99060000Y-83312000D01*
X96266000Y-83058000D02*
X96520000Y-83312000D01*
X54038500Y-50038000D02*
X54038500Y-52641500D01*
X54102000Y-52705000D02*
X58991500Y-52705000D01*
X54038500Y-52641500D02*
X54102000Y-52705000D01*
X80835500Y-63055500D02*
X83375500Y-63055500D01*
X104203500Y-63055500D02*
X104203500Y-42291000D01*
X93886000Y-31973500D02*
X93886000Y-30099000D01*
X104203500Y-42291000D02*
X93886000Y-31973500D01*
X99123500Y-70675500D02*
X96583500Y-70675500D01*
X101600000Y-83312000D02*
X101600000Y-76327000D01*
X99123500Y-73850500D02*
X99123500Y-70675500D01*
X101600000Y-76327000D02*
X99123500Y-73850500D01*
X98886000Y-30099000D02*
X98886000Y-31931176D01*
X104140000Y-78803500D02*
X104140000Y-83312000D01*
X111061500Y-71882000D02*
X104140000Y-78803500D01*
X111061500Y-44106676D02*
X111061500Y-71882000D01*
X98886000Y-31931176D02*
X111061500Y-44106676D01*
X104203500Y-70675500D02*
X104203500Y-68199000D01*
X96386000Y-32124000D02*
X96386000Y-30099000D01*
X109561498Y-45299498D02*
X96386000Y-32124000D01*
X109561498Y-66079502D02*
X109561498Y-45299498D01*
X108775500Y-66865500D02*
X109561498Y-66079502D01*
X105537000Y-66865500D02*
X108775500Y-66865500D01*
X104203500Y-68199000D02*
X105537000Y-66865500D01*
X101386000Y-30099000D02*
X101386000Y-32044000D01*
X104140000Y-88392000D02*
X104140000Y-90932000D01*
X104775000Y-87757000D02*
X104140000Y-88392000D01*
X110299500Y-87757000D02*
X104775000Y-87757000D01*
X112712500Y-85344000D02*
X110299500Y-87757000D01*
X112712500Y-43370500D02*
X112712500Y-85344000D01*
X101386000Y-32044000D02*
X112712500Y-43370500D01*
X37401500Y-29083000D02*
X31940500Y-29083000D01*
X55245000Y-105791000D02*
X58356500Y-102679500D01*
X31813500Y-105791000D02*
X55245000Y-105791000D01*
X22796500Y-96774000D02*
X31813500Y-105791000D01*
X22796500Y-38227000D02*
X22796500Y-96774000D01*
X31940500Y-29083000D02*
X22796500Y-38227000D01*
D37*
X63032000Y-90678000D02*
X63032000Y-89511500D01*
X63032000Y-89511500D02*
X61849000Y-88328500D01*
X61849000Y-88328500D02*
X61849000Y-81153000D01*
D38*
X83375500Y-70675500D02*
X83375500Y-75374500D01*
X83375500Y-75374500D02*
X83312000Y-75438000D01*
X83312000Y-102743000D02*
X83312000Y-91059000D01*
X83312000Y-75438000D02*
X84137500Y-75438000D01*
X84137500Y-75438000D02*
X86169500Y-77470000D01*
X86169500Y-77470000D02*
X86169500Y-87312500D01*
X83312000Y-91059000D02*
X83312000Y-90170000D01*
X83312000Y-90170000D02*
X86169500Y-87312500D01*
X86169500Y-87312500D02*
X101854000Y-87312500D01*
X101854000Y-87312500D02*
X102909502Y-86256998D01*
X102909502Y-86256998D02*
X105957502Y-86256998D01*
X105957502Y-86256998D02*
X106680000Y-85534500D01*
X106680000Y-85534500D02*
X106680000Y-83312000D01*
D37*
X30734000Y-68834000D02*
X30734000Y-66738500D01*
X32956500Y-64516000D02*
X38925500Y-64516000D01*
X30734000Y-66738500D02*
X32956500Y-64516000D01*
X27051000Y-75311000D02*
X27051000Y-72517000D01*
X27051000Y-72517000D02*
X30734000Y-68834000D01*
X38925500Y-64516000D02*
X38925500Y-63817500D01*
X38925500Y-63817500D02*
X36258500Y-61150500D01*
X36258500Y-61150500D02*
X36258500Y-58229500D01*
D38*
X78295500Y-63055500D02*
X78295500Y-65214500D01*
X74041000Y-66167000D02*
X71247000Y-63373000D01*
X77343000Y-66167000D02*
X74041000Y-66167000D01*
X78295500Y-65214500D02*
X77343000Y-66167000D01*
X71247000Y-63373000D02*
X71247000Y-62738000D01*
X78295500Y-63055500D02*
X78295500Y-64071500D01*
X78295500Y-64071500D02*
X80137000Y-65913000D01*
X91503500Y-65468500D02*
X91503500Y-63055500D01*
X91059000Y-65913000D02*
X91503500Y-65468500D01*
X80137000Y-65913000D02*
X91059000Y-65913000D01*
X48958500Y-57658000D02*
X48958500Y-65976500D01*
X50482500Y-67500500D02*
X59182000Y-67500500D01*
X48958500Y-65976500D02*
X50482500Y-67500500D01*
X42401500Y-29083000D02*
X42401500Y-34908500D01*
X42401500Y-34908500D02*
X43751500Y-36258500D01*
X43751500Y-36258500D02*
X43751500Y-53276500D01*
X43751500Y-53276500D02*
X44450000Y-53975000D01*
X44450000Y-53975000D02*
X48196500Y-53975000D01*
X48196500Y-53975000D02*
X48958500Y-54737000D01*
X48958500Y-54737000D02*
X48958500Y-57658000D01*
X56134000Y-84709000D02*
X56515000Y-84709000D01*
X56515000Y-84709000D02*
X59182000Y-82042000D01*
X59182000Y-82042000D02*
X59182000Y-67500500D01*
X59182000Y-67500500D02*
X59182000Y-66103500D01*
X59182000Y-66103500D02*
X62420500Y-66103500D01*
X62420500Y-66103500D02*
X65786000Y-62738000D01*
X65786000Y-62738000D02*
X71247000Y-62738000D01*
X71374000Y-84709000D02*
X71374000Y-85153500D01*
X71374000Y-85153500D02*
X73533000Y-87312500D01*
X73533000Y-87312500D02*
X77597000Y-87312500D01*
X77597000Y-87312500D02*
X78232000Y-86677500D01*
X78232000Y-86677500D02*
X78232000Y-83439000D01*
X96583500Y-63055500D02*
X99123500Y-63055500D01*
X88900000Y-41529000D02*
X90614500Y-41529000D01*
X90614500Y-41529000D02*
X92075000Y-40068500D01*
X92075000Y-40068500D02*
X94805500Y-40068500D01*
X81280000Y-44069000D02*
X82867500Y-44069000D01*
X91386000Y-34217000D02*
X91386000Y-30099000D01*
X90297000Y-35306000D02*
X91386000Y-34217000D01*
X86931500Y-35306000D02*
X90297000Y-35306000D01*
X85407500Y-36830000D02*
X86931500Y-35306000D01*
X85407500Y-41529000D02*
X85407500Y-36830000D01*
X82867500Y-44069000D02*
X85407500Y-41529000D01*
X75755500Y-70675500D02*
X75755500Y-68707000D01*
X80835500Y-68580000D02*
X80835500Y-70675500D01*
X80073500Y-67818000D02*
X80835500Y-68580000D01*
X76644500Y-67818000D02*
X80073500Y-67818000D01*
X75755500Y-68707000D02*
X76644500Y-67818000D01*
X80835500Y-70675500D02*
X80835500Y-68453000D01*
X94043500Y-68389500D02*
X94043500Y-70675500D01*
X93345000Y-67691000D02*
X94043500Y-68389500D01*
X81597500Y-67691000D02*
X93345000Y-67691000D01*
X80835500Y-68453000D02*
X81597500Y-67691000D01*
X83312000Y-83439000D02*
X80772000Y-83439000D01*
X99060000Y-90932000D02*
X96520000Y-90932000D01*
D37*
X26924000Y-47498000D02*
X26924000Y-49784000D01*
X26924000Y-49784000D02*
X30734000Y-53594000D01*
D38*
X75692000Y-91059000D02*
X75692000Y-94170500D01*
X80772000Y-94107000D02*
X80772000Y-91059000D01*
X79946500Y-94932500D02*
X80772000Y-94107000D01*
X76454000Y-94932500D02*
X79946500Y-94932500D01*
X75692000Y-94170500D02*
X76454000Y-94932500D01*
X88900000Y-38989000D02*
X89598500Y-38989000D01*
X89598500Y-38989000D02*
X92710000Y-35877500D01*
X92710000Y-35877500D02*
X95123000Y-35877500D01*
X95123000Y-35877500D02*
X100584000Y-41338500D01*
X100584000Y-41338500D02*
X100584000Y-43116500D01*
D37*
X32575500Y-86423500D02*
X28575000Y-86423500D01*
X26797000Y-88201500D02*
X26797000Y-91440000D01*
X28575000Y-86423500D02*
X26797000Y-88201500D01*
X38203500Y-88900000D02*
X35052000Y-88900000D01*
X35052000Y-88900000D02*
X32575500Y-86423500D01*
D39*
G36*
X115116408Y-22720369D02*
X114226992Y-23608234D01*
X113745050Y-24768879D01*
X113743953Y-26025607D01*
X114223869Y-27187092D01*
X115111734Y-28076508D01*
X116272379Y-28558450D01*
X117529107Y-28559547D01*
X118690592Y-28079631D01*
X119580008Y-27191766D01*
X119640878Y-27045174D01*
X119754716Y-103657174D01*
X119583131Y-103241908D01*
X118695266Y-102352492D01*
X117534621Y-101870550D01*
X116277893Y-101869453D01*
X115116408Y-102349369D01*
X114226992Y-103237234D01*
X113745050Y-104397879D01*
X113743953Y-105654607D01*
X114223869Y-106816092D01*
X115111734Y-107705508D01*
X115229168Y-107754271D01*
X63438137Y-107696144D01*
X63478030Y-104584500D01*
X63563502Y-104584500D01*
X63563502Y-104420337D01*
X63819444Y-104539475D01*
X63950977Y-104507426D01*
X64514130Y-104190736D01*
X64913224Y-103682643D01*
X65087500Y-103060500D01*
X65087500Y-102997000D01*
X76685280Y-102997000D01*
X76690144Y-103128460D01*
X76892613Y-103617264D01*
X77159468Y-103715927D01*
X77742037Y-103133358D01*
X77835744Y-103398861D01*
X77339073Y-103895532D01*
X77437736Y-104162387D01*
X78047461Y-104388908D01*
X78304632Y-104379392D01*
X81321014Y-107154463D01*
X81364151Y-107180553D01*
X81407000Y-107188000D01*
X104521000Y-107188000D01*
X104570410Y-107177994D01*
X104601085Y-107159566D01*
X106633085Y-105508566D01*
X106665124Y-105469643D01*
X106680000Y-105410000D01*
X106680000Y-103049606D01*
X118072803Y-91656803D01*
X118100666Y-91614789D01*
X118110000Y-91566854D01*
X118046500Y-36512354D01*
X118036437Y-36462955D01*
X118007948Y-36421363D01*
X117965523Y-36394132D01*
X117919500Y-36385500D01*
X108775500Y-36385500D01*
X108775500Y-26098500D01*
X108765494Y-26049090D01*
X108737053Y-26007465D01*
X108694659Y-25980185D01*
X108648500Y-25971500D01*
X80391000Y-25971500D01*
X80391000Y-22542500D01*
X115546884Y-22542500D01*
X115116408Y-22720369D01*
X115116408Y-22720369D01*
G37*
X115116408Y-22720369D02*
X114226992Y-23608234D01*
X113745050Y-24768879D01*
X113743953Y-26025607D01*
X114223869Y-27187092D01*
X115111734Y-28076508D01*
X116272379Y-28558450D01*
X117529107Y-28559547D01*
X118690592Y-28079631D01*
X119580008Y-27191766D01*
X119640878Y-27045174D01*
X119754716Y-103657174D01*
X119583131Y-103241908D01*
X118695266Y-102352492D01*
X117534621Y-101870550D01*
X116277893Y-101869453D01*
X115116408Y-102349369D01*
X114226992Y-103237234D01*
X113745050Y-104397879D01*
X113743953Y-105654607D01*
X114223869Y-106816092D01*
X115111734Y-107705508D01*
X115229168Y-107754271D01*
X63438137Y-107696144D01*
X63478030Y-104584500D01*
X63563502Y-104584500D01*
X63563502Y-104420337D01*
X63819444Y-104539475D01*
X63950977Y-104507426D01*
X64514130Y-104190736D01*
X64913224Y-103682643D01*
X65087500Y-103060500D01*
X65087500Y-102997000D01*
X76685280Y-102997000D01*
X76690144Y-103128460D01*
X76892613Y-103617264D01*
X77159468Y-103715927D01*
X77742037Y-103133358D01*
X77835744Y-103398861D01*
X77339073Y-103895532D01*
X77437736Y-104162387D01*
X78047461Y-104388908D01*
X78304632Y-104379392D01*
X81321014Y-107154463D01*
X81364151Y-107180553D01*
X81407000Y-107188000D01*
X104521000Y-107188000D01*
X104570410Y-107177994D01*
X104601085Y-107159566D01*
X106633085Y-105508566D01*
X106665124Y-105469643D01*
X106680000Y-105410000D01*
X106680000Y-103049606D01*
X118072803Y-91656803D01*
X118100666Y-91614789D01*
X118110000Y-91566854D01*
X118046500Y-36512354D01*
X118036437Y-36462955D01*
X118007948Y-36421363D01*
X117965523Y-36394132D01*
X117919500Y-36385500D01*
X108775500Y-36385500D01*
X108775500Y-26098500D01*
X108765494Y-26049090D01*
X108737053Y-26007465D01*
X108694659Y-25980185D01*
X108648500Y-25971500D01*
X80391000Y-25971500D01*
X80391000Y-22542500D01*
X115546884Y-22542500D01*
X115116408Y-22720369D01*
M02*
