M48
INCH,TZ
T1C0.028
T2C0.031
T3C0.032
T4C0.035
T5C0.039
T6C0.045
T7C0.063
T8C0.120
%
G90
G05
T1
X26416Y-18450
X27400Y-18450
T2
X14256Y-20550
X14275Y-22925
X14425Y-32450
X15125Y-17250
X15125Y-18234
X15325Y-25400
X15325Y-26384
X15325Y-28756
X15325Y-30725
X16225Y-20550
X16244Y-22925
X16394Y-32450
X18275Y-19700
X18275Y-22700
X19100Y-30350
X19100Y-33350
X19275Y-19700
X19275Y-22700
X19463Y-28050
X20100Y-30350
X20100Y-33350
X20250Y-28050
X20275Y-19700
X20275Y-22700
X20425Y-25075
X21100Y-30350
X21100Y-33350
X21212Y-25075
X21275Y-19700
X21275Y-22700
X21525Y-35850
X21525Y-36834
X22100Y-30350
X22100Y-33350
X23225Y-19750
X23225Y-20750
X23225Y-21750
X24300Y-13775
X24350Y-31950
X24775Y-38425
X24816Y-35700
X25800Y-35700
X25875Y-21100
X25875Y-21887
X26269Y-13775
X26319Y-31950
X26744Y-38425
X28050Y-24700
X28050Y-26669
X28100Y-33350
X28100Y-35319
X29600Y-13500
X29600Y-15469
X29800Y-32850
X29800Y-35850
X29825Y-24825
X29825Y-27825
X30800Y-32850
X30800Y-35850
X30825Y-24825
X30825Y-27825
X30831Y-29700
X30831Y-40450
X31800Y-32850
X31800Y-35850
X31825Y-24825
X31825Y-27825
X32000Y-15350
X32000Y-16350
X32000Y-17350
X32000Y-18350
X32000Y-19350
X32000Y-20350
X32000Y-21350
X32800Y-29700
X32800Y-32850
X32800Y-35850
X32800Y-40450
X32825Y-24825
X32825Y-27825
X35000Y-15350
X35000Y-16350
X35000Y-17350
X35000Y-18350
X35000Y-19350
X35000Y-20350
X35000Y-21350
X36000Y-32800
X36000Y-35800
X36025Y-24825
X36025Y-27825
X37000Y-32800
X37000Y-35800
X37025Y-24825
X37025Y-27825
X38000Y-32800
X38000Y-35800
X38025Y-24825
X38025Y-27825
X39000Y-32800
X39000Y-35800
X39025Y-24825
X39025Y-27825
X40000Y-32800
X40000Y-35800
X40025Y-24825
X40025Y-27825
X41000Y-32800
X41000Y-35800
X41025Y-24825
X41025Y-27825
X42000Y-32800
X42000Y-35800
X42025Y-24825
X42025Y-27825
T3
X39600Y-16975
X45600Y-16975
T4
X10550Y-36000
X10550Y-36984
X10550Y-37969
X14725Y-11450
X15041Y-35000
X15709Y-11450
X16025Y-35000
X16694Y-11450
X17678Y-11450
X32042Y-11850
X33026Y-11850
X34010Y-11850
X34994Y-11850
X35979Y-11850
X36963Y-11850
X36966Y-30400
X37947Y-11850
X37950Y-30400
X38100Y-18850
X38100Y-19834
X38931Y-11850
X39916Y-11850
X40900Y-11850
T5
X12825Y-34025
X12825Y-38025
X37325Y-15775
X37325Y-16775
T6
X10600Y-16700
X10600Y-17700
X10600Y-18700
X10650Y-29650
X10650Y-30650
X10650Y-31650
X22975Y-40425
X23975Y-40425
X24975Y-40425
T7
X12100Y-21100
X12100Y-27100
T8
X9650Y-10000
X9650Y-41400
X46050Y-10000
X46050Y-41400
T5
X15406Y-37300G85X16194Y-37300
G05
X15406Y-39662G85X16194Y-39662
G05
X17650Y-38875G85X17650Y-38087
G05
T0
M30
