G04 #@! TF.FileFunction,Legend,Top*
%FSLAX46Y46*%
G04 Gerber Fmt 4.6, Leading zero omitted, Abs format (unit mm)*
G04 Created by KiCad (PCBNEW 4.0.7) date 03/14/18 20:09:00*
%MOMM*%
%LPD*%
G01*
G04 APERTURE LIST*
%ADD10C,0.100000*%
%ADD11C,0.120000*%
%ADD12C,0.150000*%
G04 APERTURE END LIST*
D10*
D11*
X48129278Y-72426723D02*
G75*
G03X52740580Y-72427000I2305722J1179723D01*
G01*
X48129278Y-70067277D02*
G75*
G02X52740580Y-70067000I2305722J-1179723D01*
G01*
X48129278Y-70067277D02*
G75*
G03X48129420Y-72427000I2305722J-1179723D01*
G01*
X50435000Y-73797000D02*
X50435000Y-68697000D01*
X50395000Y-73797000D02*
X50395000Y-72227000D01*
X50395000Y-70267000D02*
X50395000Y-68697000D01*
X50355000Y-73796000D02*
X50355000Y-72227000D01*
X50355000Y-70267000D02*
X50355000Y-68698000D01*
X50315000Y-73795000D02*
X50315000Y-72227000D01*
X50315000Y-70267000D02*
X50315000Y-68699000D01*
X50275000Y-73793000D02*
X50275000Y-72227000D01*
X50275000Y-70267000D02*
X50275000Y-68701000D01*
X50235000Y-73790000D02*
X50235000Y-72227000D01*
X50235000Y-70267000D02*
X50235000Y-68704000D01*
X50195000Y-73786000D02*
X50195000Y-72227000D01*
X50195000Y-70267000D02*
X50195000Y-68708000D01*
X50155000Y-73782000D02*
X50155000Y-72227000D01*
X50155000Y-70267000D02*
X50155000Y-68712000D01*
X50115000Y-73778000D02*
X50115000Y-72227000D01*
X50115000Y-70267000D02*
X50115000Y-68716000D01*
X50075000Y-73772000D02*
X50075000Y-72227000D01*
X50075000Y-70267000D02*
X50075000Y-68722000D01*
X50035000Y-73766000D02*
X50035000Y-72227000D01*
X50035000Y-70267000D02*
X50035000Y-68728000D01*
X49995000Y-73760000D02*
X49995000Y-72227000D01*
X49995000Y-70267000D02*
X49995000Y-68734000D01*
X49955000Y-73753000D02*
X49955000Y-72227000D01*
X49955000Y-70267000D02*
X49955000Y-68741000D01*
X49915000Y-73745000D02*
X49915000Y-72227000D01*
X49915000Y-70267000D02*
X49915000Y-68749000D01*
X49875000Y-73736000D02*
X49875000Y-72227000D01*
X49875000Y-70267000D02*
X49875000Y-68758000D01*
X49835000Y-73727000D02*
X49835000Y-72227000D01*
X49835000Y-70267000D02*
X49835000Y-68767000D01*
X49795000Y-73717000D02*
X49795000Y-72227000D01*
X49795000Y-70267000D02*
X49795000Y-68777000D01*
X49755000Y-73707000D02*
X49755000Y-72227000D01*
X49755000Y-70267000D02*
X49755000Y-68787000D01*
X49714000Y-73695000D02*
X49714000Y-72227000D01*
X49714000Y-70267000D02*
X49714000Y-68799000D01*
X49674000Y-73683000D02*
X49674000Y-72227000D01*
X49674000Y-70267000D02*
X49674000Y-68811000D01*
X49634000Y-73671000D02*
X49634000Y-72227000D01*
X49634000Y-70267000D02*
X49634000Y-68823000D01*
X49594000Y-73657000D02*
X49594000Y-72227000D01*
X49594000Y-70267000D02*
X49594000Y-68837000D01*
X49554000Y-73643000D02*
X49554000Y-72227000D01*
X49554000Y-70267000D02*
X49554000Y-68851000D01*
X49514000Y-73629000D02*
X49514000Y-72227000D01*
X49514000Y-70267000D02*
X49514000Y-68865000D01*
X49474000Y-73613000D02*
X49474000Y-72227000D01*
X49474000Y-70267000D02*
X49474000Y-68881000D01*
X49434000Y-73597000D02*
X49434000Y-72227000D01*
X49434000Y-70267000D02*
X49434000Y-68897000D01*
X49394000Y-73580000D02*
X49394000Y-72227000D01*
X49394000Y-70267000D02*
X49394000Y-68914000D01*
X49354000Y-73562000D02*
X49354000Y-72227000D01*
X49354000Y-70267000D02*
X49354000Y-68932000D01*
X49314000Y-73543000D02*
X49314000Y-72227000D01*
X49314000Y-70267000D02*
X49314000Y-68951000D01*
X49274000Y-73523000D02*
X49274000Y-72227000D01*
X49274000Y-70267000D02*
X49274000Y-68971000D01*
X49234000Y-73503000D02*
X49234000Y-72227000D01*
X49234000Y-70267000D02*
X49234000Y-68991000D01*
X49194000Y-73481000D02*
X49194000Y-72227000D01*
X49194000Y-70267000D02*
X49194000Y-69013000D01*
X49154000Y-73459000D02*
X49154000Y-72227000D01*
X49154000Y-70267000D02*
X49154000Y-69035000D01*
X49114000Y-73436000D02*
X49114000Y-72227000D01*
X49114000Y-70267000D02*
X49114000Y-69058000D01*
X49074000Y-73412000D02*
X49074000Y-72227000D01*
X49074000Y-70267000D02*
X49074000Y-69082000D01*
X49034000Y-73387000D02*
X49034000Y-72227000D01*
X49034000Y-70267000D02*
X49034000Y-69107000D01*
X48994000Y-73360000D02*
X48994000Y-72227000D01*
X48994000Y-70267000D02*
X48994000Y-69134000D01*
X48954000Y-73333000D02*
X48954000Y-72227000D01*
X48954000Y-70267000D02*
X48954000Y-69161000D01*
X48914000Y-73305000D02*
X48914000Y-72227000D01*
X48914000Y-70267000D02*
X48914000Y-69189000D01*
X48874000Y-73275000D02*
X48874000Y-72227000D01*
X48874000Y-70267000D02*
X48874000Y-69219000D01*
X48834000Y-73244000D02*
X48834000Y-72227000D01*
X48834000Y-70267000D02*
X48834000Y-69250000D01*
X48794000Y-73212000D02*
X48794000Y-72227000D01*
X48794000Y-70267000D02*
X48794000Y-69282000D01*
X48754000Y-73179000D02*
X48754000Y-72227000D01*
X48754000Y-70267000D02*
X48754000Y-69315000D01*
X48714000Y-73144000D02*
X48714000Y-72227000D01*
X48714000Y-70267000D02*
X48714000Y-69350000D01*
X48674000Y-73108000D02*
X48674000Y-72227000D01*
X48674000Y-70267000D02*
X48674000Y-69386000D01*
X48634000Y-73070000D02*
X48634000Y-72227000D01*
X48634000Y-70267000D02*
X48634000Y-69424000D01*
X48594000Y-73030000D02*
X48594000Y-72227000D01*
X48594000Y-70267000D02*
X48594000Y-69464000D01*
X48554000Y-72989000D02*
X48554000Y-72227000D01*
X48554000Y-70267000D02*
X48554000Y-69505000D01*
X48514000Y-72946000D02*
X48514000Y-72227000D01*
X48514000Y-70267000D02*
X48514000Y-69548000D01*
X48474000Y-72901000D02*
X48474000Y-72227000D01*
X48474000Y-70267000D02*
X48474000Y-69593000D01*
X48434000Y-72853000D02*
X48434000Y-69641000D01*
X48394000Y-72803000D02*
X48394000Y-69691000D01*
X48354000Y-72751000D02*
X48354000Y-69743000D01*
X48314000Y-72695000D02*
X48314000Y-69799000D01*
X48274000Y-72637000D02*
X48274000Y-69857000D01*
X48234000Y-72574000D02*
X48234000Y-69920000D01*
X48194000Y-72508000D02*
X48194000Y-69986000D01*
X48154000Y-72436000D02*
X48154000Y-70058000D01*
X48114000Y-72359000D02*
X48114000Y-70135000D01*
X48074000Y-72275000D02*
X48074000Y-70219000D01*
X48034000Y-72181000D02*
X48034000Y-70313000D01*
X47994000Y-72076000D02*
X47994000Y-70418000D01*
X47954000Y-71954000D02*
X47954000Y-70540000D01*
X47914000Y-71806000D02*
X47914000Y-70688000D01*
X47874000Y-71601000D02*
X47874000Y-70893000D01*
X53635000Y-71247000D02*
X52435000Y-71247000D01*
X53035000Y-71897000D02*
X53035000Y-70597000D01*
X37748055Y-71624649D02*
G75*
G03X37745500Y-79457582I1177445J-3916851D01*
G01*
X40102945Y-71624649D02*
G75*
G02X40105500Y-79457582I-1177445J-3916851D01*
G01*
X40102945Y-71624649D02*
G75*
G03X37745500Y-71625418I-1177445J-3916851D01*
G01*
X34875500Y-75541500D02*
X42975500Y-75541500D01*
X34875500Y-75501500D02*
X42975500Y-75501500D01*
X34875500Y-75461500D02*
X42975500Y-75461500D01*
X34876500Y-75421500D02*
X42974500Y-75421500D01*
X34878500Y-75381500D02*
X42972500Y-75381500D01*
X34879500Y-75341500D02*
X42971500Y-75341500D01*
X34882500Y-75301500D02*
X42968500Y-75301500D01*
X34884500Y-75261500D02*
X42966500Y-75261500D01*
X34887500Y-75221500D02*
X42963500Y-75221500D01*
X34890500Y-75181500D02*
X42960500Y-75181500D01*
X34894500Y-75141500D02*
X42956500Y-75141500D01*
X34898500Y-75101500D02*
X42952500Y-75101500D01*
X34903500Y-75061500D02*
X42947500Y-75061500D01*
X34908500Y-75021500D02*
X42942500Y-75021500D01*
X34913500Y-74981500D02*
X42937500Y-74981500D01*
X34919500Y-74941500D02*
X42931500Y-74941500D01*
X34925500Y-74901500D02*
X42925500Y-74901500D01*
X34931500Y-74861500D02*
X42919500Y-74861500D01*
X34938500Y-74820500D02*
X42912500Y-74820500D01*
X34946500Y-74780500D02*
X42904500Y-74780500D01*
X34954500Y-74740500D02*
X42896500Y-74740500D01*
X34962500Y-74700500D02*
X42888500Y-74700500D01*
X34970500Y-74660500D02*
X42880500Y-74660500D01*
X34979500Y-74620500D02*
X42871500Y-74620500D01*
X34989500Y-74580500D02*
X42861500Y-74580500D01*
X34999500Y-74540500D02*
X42851500Y-74540500D01*
X35009500Y-74500500D02*
X42841500Y-74500500D01*
X35020500Y-74460500D02*
X42830500Y-74460500D01*
X35031500Y-74420500D02*
X42819500Y-74420500D01*
X35042500Y-74380500D02*
X42808500Y-74380500D01*
X35055500Y-74340500D02*
X42795500Y-74340500D01*
X35067500Y-74300500D02*
X42783500Y-74300500D01*
X35080500Y-74260500D02*
X42770500Y-74260500D01*
X35093500Y-74220500D02*
X42757500Y-74220500D01*
X35107500Y-74180500D02*
X42743500Y-74180500D01*
X35122500Y-74140500D02*
X42728500Y-74140500D01*
X35136500Y-74100500D02*
X42714500Y-74100500D01*
X35152500Y-74060500D02*
X42698500Y-74060500D01*
X35167500Y-74020500D02*
X37945500Y-74020500D01*
X39905500Y-74020500D02*
X42683500Y-74020500D01*
X35184500Y-73980500D02*
X37945500Y-73980500D01*
X39905500Y-73980500D02*
X42666500Y-73980500D01*
X35200500Y-73940500D02*
X37945500Y-73940500D01*
X39905500Y-73940500D02*
X42650500Y-73940500D01*
X35218500Y-73900500D02*
X37945500Y-73900500D01*
X39905500Y-73900500D02*
X42632500Y-73900500D01*
X35235500Y-73860500D02*
X37945500Y-73860500D01*
X39905500Y-73860500D02*
X42615500Y-73860500D01*
X35254500Y-73820500D02*
X37945500Y-73820500D01*
X39905500Y-73820500D02*
X42596500Y-73820500D01*
X35273500Y-73780500D02*
X37945500Y-73780500D01*
X39905500Y-73780500D02*
X42577500Y-73780500D01*
X35292500Y-73740500D02*
X37945500Y-73740500D01*
X39905500Y-73740500D02*
X42558500Y-73740500D01*
X35312500Y-73700500D02*
X37945500Y-73700500D01*
X39905500Y-73700500D02*
X42538500Y-73700500D01*
X35332500Y-73660500D02*
X37945500Y-73660500D01*
X39905500Y-73660500D02*
X42518500Y-73660500D01*
X35353500Y-73620500D02*
X37945500Y-73620500D01*
X39905500Y-73620500D02*
X42497500Y-73620500D01*
X35375500Y-73580500D02*
X37945500Y-73580500D01*
X39905500Y-73580500D02*
X42475500Y-73580500D01*
X35397500Y-73540500D02*
X37945500Y-73540500D01*
X39905500Y-73540500D02*
X42453500Y-73540500D01*
X35420500Y-73500500D02*
X37945500Y-73500500D01*
X39905500Y-73500500D02*
X42430500Y-73500500D01*
X35443500Y-73460500D02*
X37945500Y-73460500D01*
X39905500Y-73460500D02*
X42407500Y-73460500D01*
X35467500Y-73420500D02*
X37945500Y-73420500D01*
X39905500Y-73420500D02*
X42383500Y-73420500D01*
X35491500Y-73380500D02*
X37945500Y-73380500D01*
X39905500Y-73380500D02*
X42359500Y-73380500D01*
X35517500Y-73340500D02*
X37945500Y-73340500D01*
X39905500Y-73340500D02*
X42333500Y-73340500D01*
X35542500Y-73300500D02*
X37945500Y-73300500D01*
X39905500Y-73300500D02*
X42308500Y-73300500D01*
X35569500Y-73260500D02*
X37945500Y-73260500D01*
X39905500Y-73260500D02*
X42281500Y-73260500D01*
X35596500Y-73220500D02*
X37945500Y-73220500D01*
X39905500Y-73220500D02*
X42254500Y-73220500D01*
X35624500Y-73180500D02*
X37945500Y-73180500D01*
X39905500Y-73180500D02*
X42226500Y-73180500D01*
X35653500Y-73140500D02*
X37945500Y-73140500D01*
X39905500Y-73140500D02*
X42197500Y-73140500D01*
X35682500Y-73100500D02*
X37945500Y-73100500D01*
X39905500Y-73100500D02*
X42168500Y-73100500D01*
X35712500Y-73060500D02*
X37945500Y-73060500D01*
X39905500Y-73060500D02*
X42138500Y-73060500D01*
X35743500Y-73020500D02*
X37945500Y-73020500D01*
X39905500Y-73020500D02*
X42107500Y-73020500D01*
X35775500Y-72980500D02*
X37945500Y-72980500D01*
X39905500Y-72980500D02*
X42075500Y-72980500D01*
X35807500Y-72940500D02*
X37945500Y-72940500D01*
X39905500Y-72940500D02*
X42043500Y-72940500D01*
X35841500Y-72900500D02*
X37945500Y-72900500D01*
X39905500Y-72900500D02*
X42009500Y-72900500D01*
X35875500Y-72860500D02*
X37945500Y-72860500D01*
X39905500Y-72860500D02*
X41975500Y-72860500D01*
X35910500Y-72820500D02*
X37945500Y-72820500D01*
X39905500Y-72820500D02*
X41940500Y-72820500D01*
X35946500Y-72780500D02*
X37945500Y-72780500D01*
X39905500Y-72780500D02*
X41904500Y-72780500D01*
X35983500Y-72740500D02*
X37945500Y-72740500D01*
X39905500Y-72740500D02*
X41867500Y-72740500D01*
X36021500Y-72700500D02*
X37945500Y-72700500D01*
X39905500Y-72700500D02*
X41829500Y-72700500D01*
X36060500Y-72660500D02*
X37945500Y-72660500D01*
X39905500Y-72660500D02*
X41790500Y-72660500D01*
X36101500Y-72620500D02*
X37945500Y-72620500D01*
X39905500Y-72620500D02*
X41749500Y-72620500D01*
X36142500Y-72580500D02*
X37945500Y-72580500D01*
X39905500Y-72580500D02*
X41708500Y-72580500D01*
X36185500Y-72540500D02*
X37945500Y-72540500D01*
X39905500Y-72540500D02*
X41665500Y-72540500D01*
X36228500Y-72500500D02*
X37945500Y-72500500D01*
X39905500Y-72500500D02*
X41622500Y-72500500D01*
X36273500Y-72460500D02*
X37945500Y-72460500D01*
X39905500Y-72460500D02*
X41577500Y-72460500D01*
X36320500Y-72420500D02*
X37945500Y-72420500D01*
X39905500Y-72420500D02*
X41530500Y-72420500D01*
X36368500Y-72380500D02*
X37945500Y-72380500D01*
X39905500Y-72380500D02*
X41482500Y-72380500D01*
X36417500Y-72340500D02*
X37945500Y-72340500D01*
X39905500Y-72340500D02*
X41433500Y-72340500D01*
X36468500Y-72300500D02*
X37945500Y-72300500D01*
X39905500Y-72300500D02*
X41382500Y-72300500D01*
X36521500Y-72260500D02*
X37945500Y-72260500D01*
X39905500Y-72260500D02*
X41329500Y-72260500D01*
X36576500Y-72220500D02*
X37945500Y-72220500D01*
X39905500Y-72220500D02*
X41274500Y-72220500D01*
X36632500Y-72180500D02*
X37945500Y-72180500D01*
X39905500Y-72180500D02*
X41218500Y-72180500D01*
X36691500Y-72140500D02*
X37945500Y-72140500D01*
X39905500Y-72140500D02*
X41159500Y-72140500D01*
X36752500Y-72100500D02*
X37945500Y-72100500D01*
X39905500Y-72100500D02*
X41098500Y-72100500D01*
X36816500Y-72060500D02*
X41034500Y-72060500D01*
X36882500Y-72020500D02*
X40968500Y-72020500D01*
X36951500Y-71980500D02*
X40899500Y-71980500D01*
X37023500Y-71940500D02*
X40827500Y-71940500D01*
X37099500Y-71900500D02*
X40751500Y-71900500D01*
X37180500Y-71860500D02*
X40670500Y-71860500D01*
X37265500Y-71820500D02*
X40585500Y-71820500D01*
X37355500Y-71780500D02*
X40495500Y-71780500D01*
X37452500Y-71740500D02*
X40398500Y-71740500D01*
X37556500Y-71700500D02*
X40294500Y-71700500D01*
X37671500Y-71660500D02*
X40179500Y-71660500D01*
X37798500Y-71620500D02*
X40052500Y-71620500D01*
X37942500Y-71580500D02*
X39908500Y-71580500D01*
X38111500Y-71540500D02*
X39739500Y-71540500D01*
X38327500Y-71500500D02*
X39523500Y-71500500D01*
X38679500Y-71460500D02*
X39171500Y-71460500D01*
X38925500Y-80241500D02*
X38925500Y-79041500D01*
X38275500Y-79641500D02*
X39575500Y-79641500D01*
X84372000Y-76748000D02*
X77252000Y-76748000D01*
X84372000Y-74128000D02*
X77252000Y-74128000D01*
X84372000Y-76748000D02*
X84372000Y-74128000D01*
X77252000Y-76748000D02*
X77252000Y-74128000D01*
X35579500Y-81113000D02*
X42699500Y-81113000D01*
X35579500Y-83733000D02*
X42699500Y-83733000D01*
X35579500Y-81113000D02*
X35579500Y-83733000D01*
X42699500Y-81113000D02*
X42699500Y-83733000D01*
X72684000Y-83649000D02*
X72684000Y-90769000D01*
X70064000Y-83649000D02*
X70064000Y-90769000D01*
X72684000Y-83649000D02*
X70064000Y-83649000D01*
X72684000Y-90769000D02*
X70064000Y-90769000D01*
X35198500Y-56919500D02*
X42318500Y-56919500D01*
X35198500Y-59539500D02*
X42318500Y-59539500D01*
X35198500Y-56919500D02*
X35198500Y-59539500D01*
X42318500Y-56919500D02*
X42318500Y-59539500D01*
X61868500Y-96289500D02*
X68988500Y-96289500D01*
X61868500Y-98909500D02*
X68988500Y-98909500D01*
X61868500Y-96289500D02*
X61868500Y-98909500D01*
X68988500Y-96289500D02*
X68988500Y-98909500D01*
X55185222Y-62510777D02*
G75*
G03X50573920Y-62510500I-2305722J-1179723D01*
G01*
X55185222Y-64870223D02*
G75*
G02X50573920Y-64870500I-2305722J1179723D01*
G01*
X55185222Y-64870223D02*
G75*
G03X55185080Y-62510500I-2305722J1179723D01*
G01*
X52879500Y-61140500D02*
X52879500Y-66240500D01*
X52919500Y-61140500D02*
X52919500Y-62710500D01*
X52919500Y-64670500D02*
X52919500Y-66240500D01*
X52959500Y-61141500D02*
X52959500Y-62710500D01*
X52959500Y-64670500D02*
X52959500Y-66239500D01*
X52999500Y-61142500D02*
X52999500Y-62710500D01*
X52999500Y-64670500D02*
X52999500Y-66238500D01*
X53039500Y-61144500D02*
X53039500Y-62710500D01*
X53039500Y-64670500D02*
X53039500Y-66236500D01*
X53079500Y-61147500D02*
X53079500Y-62710500D01*
X53079500Y-64670500D02*
X53079500Y-66233500D01*
X53119500Y-61151500D02*
X53119500Y-62710500D01*
X53119500Y-64670500D02*
X53119500Y-66229500D01*
X53159500Y-61155500D02*
X53159500Y-62710500D01*
X53159500Y-64670500D02*
X53159500Y-66225500D01*
X53199500Y-61159500D02*
X53199500Y-62710500D01*
X53199500Y-64670500D02*
X53199500Y-66221500D01*
X53239500Y-61165500D02*
X53239500Y-62710500D01*
X53239500Y-64670500D02*
X53239500Y-66215500D01*
X53279500Y-61171500D02*
X53279500Y-62710500D01*
X53279500Y-64670500D02*
X53279500Y-66209500D01*
X53319500Y-61177500D02*
X53319500Y-62710500D01*
X53319500Y-64670500D02*
X53319500Y-66203500D01*
X53359500Y-61184500D02*
X53359500Y-62710500D01*
X53359500Y-64670500D02*
X53359500Y-66196500D01*
X53399500Y-61192500D02*
X53399500Y-62710500D01*
X53399500Y-64670500D02*
X53399500Y-66188500D01*
X53439500Y-61201500D02*
X53439500Y-62710500D01*
X53439500Y-64670500D02*
X53439500Y-66179500D01*
X53479500Y-61210500D02*
X53479500Y-62710500D01*
X53479500Y-64670500D02*
X53479500Y-66170500D01*
X53519500Y-61220500D02*
X53519500Y-62710500D01*
X53519500Y-64670500D02*
X53519500Y-66160500D01*
X53559500Y-61230500D02*
X53559500Y-62710500D01*
X53559500Y-64670500D02*
X53559500Y-66150500D01*
X53600500Y-61242500D02*
X53600500Y-62710500D01*
X53600500Y-64670500D02*
X53600500Y-66138500D01*
X53640500Y-61254500D02*
X53640500Y-62710500D01*
X53640500Y-64670500D02*
X53640500Y-66126500D01*
X53680500Y-61266500D02*
X53680500Y-62710500D01*
X53680500Y-64670500D02*
X53680500Y-66114500D01*
X53720500Y-61280500D02*
X53720500Y-62710500D01*
X53720500Y-64670500D02*
X53720500Y-66100500D01*
X53760500Y-61294500D02*
X53760500Y-62710500D01*
X53760500Y-64670500D02*
X53760500Y-66086500D01*
X53800500Y-61308500D02*
X53800500Y-62710500D01*
X53800500Y-64670500D02*
X53800500Y-66072500D01*
X53840500Y-61324500D02*
X53840500Y-62710500D01*
X53840500Y-64670500D02*
X53840500Y-66056500D01*
X53880500Y-61340500D02*
X53880500Y-62710500D01*
X53880500Y-64670500D02*
X53880500Y-66040500D01*
X53920500Y-61357500D02*
X53920500Y-62710500D01*
X53920500Y-64670500D02*
X53920500Y-66023500D01*
X53960500Y-61375500D02*
X53960500Y-62710500D01*
X53960500Y-64670500D02*
X53960500Y-66005500D01*
X54000500Y-61394500D02*
X54000500Y-62710500D01*
X54000500Y-64670500D02*
X54000500Y-65986500D01*
X54040500Y-61414500D02*
X54040500Y-62710500D01*
X54040500Y-64670500D02*
X54040500Y-65966500D01*
X54080500Y-61434500D02*
X54080500Y-62710500D01*
X54080500Y-64670500D02*
X54080500Y-65946500D01*
X54120500Y-61456500D02*
X54120500Y-62710500D01*
X54120500Y-64670500D02*
X54120500Y-65924500D01*
X54160500Y-61478500D02*
X54160500Y-62710500D01*
X54160500Y-64670500D02*
X54160500Y-65902500D01*
X54200500Y-61501500D02*
X54200500Y-62710500D01*
X54200500Y-64670500D02*
X54200500Y-65879500D01*
X54240500Y-61525500D02*
X54240500Y-62710500D01*
X54240500Y-64670500D02*
X54240500Y-65855500D01*
X54280500Y-61550500D02*
X54280500Y-62710500D01*
X54280500Y-64670500D02*
X54280500Y-65830500D01*
X54320500Y-61577500D02*
X54320500Y-62710500D01*
X54320500Y-64670500D02*
X54320500Y-65803500D01*
X54360500Y-61604500D02*
X54360500Y-62710500D01*
X54360500Y-64670500D02*
X54360500Y-65776500D01*
X54400500Y-61632500D02*
X54400500Y-62710500D01*
X54400500Y-64670500D02*
X54400500Y-65748500D01*
X54440500Y-61662500D02*
X54440500Y-62710500D01*
X54440500Y-64670500D02*
X54440500Y-65718500D01*
X54480500Y-61693500D02*
X54480500Y-62710500D01*
X54480500Y-64670500D02*
X54480500Y-65687500D01*
X54520500Y-61725500D02*
X54520500Y-62710500D01*
X54520500Y-64670500D02*
X54520500Y-65655500D01*
X54560500Y-61758500D02*
X54560500Y-62710500D01*
X54560500Y-64670500D02*
X54560500Y-65622500D01*
X54600500Y-61793500D02*
X54600500Y-62710500D01*
X54600500Y-64670500D02*
X54600500Y-65587500D01*
X54640500Y-61829500D02*
X54640500Y-62710500D01*
X54640500Y-64670500D02*
X54640500Y-65551500D01*
X54680500Y-61867500D02*
X54680500Y-62710500D01*
X54680500Y-64670500D02*
X54680500Y-65513500D01*
X54720500Y-61907500D02*
X54720500Y-62710500D01*
X54720500Y-64670500D02*
X54720500Y-65473500D01*
X54760500Y-61948500D02*
X54760500Y-62710500D01*
X54760500Y-64670500D02*
X54760500Y-65432500D01*
X54800500Y-61991500D02*
X54800500Y-62710500D01*
X54800500Y-64670500D02*
X54800500Y-65389500D01*
X54840500Y-62036500D02*
X54840500Y-62710500D01*
X54840500Y-64670500D02*
X54840500Y-65344500D01*
X54880500Y-62084500D02*
X54880500Y-65296500D01*
X54920500Y-62134500D02*
X54920500Y-65246500D01*
X54960500Y-62186500D02*
X54960500Y-65194500D01*
X55000500Y-62242500D02*
X55000500Y-65138500D01*
X55040500Y-62300500D02*
X55040500Y-65080500D01*
X55080500Y-62363500D02*
X55080500Y-65017500D01*
X55120500Y-62429500D02*
X55120500Y-64951500D01*
X55160500Y-62501500D02*
X55160500Y-64879500D01*
X55200500Y-62578500D02*
X55200500Y-64802500D01*
X55240500Y-62662500D02*
X55240500Y-64718500D01*
X55280500Y-62756500D02*
X55280500Y-64624500D01*
X55320500Y-62861500D02*
X55320500Y-64519500D01*
X55360500Y-62983500D02*
X55360500Y-64397500D01*
X55400500Y-63131500D02*
X55400500Y-64249500D01*
X55440500Y-63336500D02*
X55440500Y-64044500D01*
X49679500Y-63690500D02*
X50879500Y-63690500D01*
X50279500Y-63040500D02*
X50279500Y-64340500D01*
X42271500Y-53507000D02*
X35151500Y-53507000D01*
X42271500Y-50887000D02*
X35151500Y-50887000D01*
X42271500Y-53507000D02*
X42271500Y-50887000D01*
X35151500Y-53507000D02*
X35151500Y-50887000D01*
X66902223Y-56899722D02*
G75*
G03X66902500Y-52288420I-1179723J2305722D01*
G01*
X64542777Y-56899722D02*
G75*
G02X64542500Y-52288420I1179723J2305722D01*
G01*
X64542777Y-56899722D02*
G75*
G03X66902500Y-56899580I1179723J2305722D01*
G01*
X68272500Y-54594000D02*
X63172500Y-54594000D01*
X68272500Y-54634000D02*
X66702500Y-54634000D01*
X64742500Y-54634000D02*
X63172500Y-54634000D01*
X68271500Y-54674000D02*
X66702500Y-54674000D01*
X64742500Y-54674000D02*
X63173500Y-54674000D01*
X68270500Y-54714000D02*
X66702500Y-54714000D01*
X64742500Y-54714000D02*
X63174500Y-54714000D01*
X68268500Y-54754000D02*
X66702500Y-54754000D01*
X64742500Y-54754000D02*
X63176500Y-54754000D01*
X68265500Y-54794000D02*
X66702500Y-54794000D01*
X64742500Y-54794000D02*
X63179500Y-54794000D01*
X68261500Y-54834000D02*
X66702500Y-54834000D01*
X64742500Y-54834000D02*
X63183500Y-54834000D01*
X68257500Y-54874000D02*
X66702500Y-54874000D01*
X64742500Y-54874000D02*
X63187500Y-54874000D01*
X68253500Y-54914000D02*
X66702500Y-54914000D01*
X64742500Y-54914000D02*
X63191500Y-54914000D01*
X68247500Y-54954000D02*
X66702500Y-54954000D01*
X64742500Y-54954000D02*
X63197500Y-54954000D01*
X68241500Y-54994000D02*
X66702500Y-54994000D01*
X64742500Y-54994000D02*
X63203500Y-54994000D01*
X68235500Y-55034000D02*
X66702500Y-55034000D01*
X64742500Y-55034000D02*
X63209500Y-55034000D01*
X68228500Y-55074000D02*
X66702500Y-55074000D01*
X64742500Y-55074000D02*
X63216500Y-55074000D01*
X68220500Y-55114000D02*
X66702500Y-55114000D01*
X64742500Y-55114000D02*
X63224500Y-55114000D01*
X68211500Y-55154000D02*
X66702500Y-55154000D01*
X64742500Y-55154000D02*
X63233500Y-55154000D01*
X68202500Y-55194000D02*
X66702500Y-55194000D01*
X64742500Y-55194000D02*
X63242500Y-55194000D01*
X68192500Y-55234000D02*
X66702500Y-55234000D01*
X64742500Y-55234000D02*
X63252500Y-55234000D01*
X68182500Y-55274000D02*
X66702500Y-55274000D01*
X64742500Y-55274000D02*
X63262500Y-55274000D01*
X68170500Y-55315000D02*
X66702500Y-55315000D01*
X64742500Y-55315000D02*
X63274500Y-55315000D01*
X68158500Y-55355000D02*
X66702500Y-55355000D01*
X64742500Y-55355000D02*
X63286500Y-55355000D01*
X68146500Y-55395000D02*
X66702500Y-55395000D01*
X64742500Y-55395000D02*
X63298500Y-55395000D01*
X68132500Y-55435000D02*
X66702500Y-55435000D01*
X64742500Y-55435000D02*
X63312500Y-55435000D01*
X68118500Y-55475000D02*
X66702500Y-55475000D01*
X64742500Y-55475000D02*
X63326500Y-55475000D01*
X68104500Y-55515000D02*
X66702500Y-55515000D01*
X64742500Y-55515000D02*
X63340500Y-55515000D01*
X68088500Y-55555000D02*
X66702500Y-55555000D01*
X64742500Y-55555000D02*
X63356500Y-55555000D01*
X68072500Y-55595000D02*
X66702500Y-55595000D01*
X64742500Y-55595000D02*
X63372500Y-55595000D01*
X68055500Y-55635000D02*
X66702500Y-55635000D01*
X64742500Y-55635000D02*
X63389500Y-55635000D01*
X68037500Y-55675000D02*
X66702500Y-55675000D01*
X64742500Y-55675000D02*
X63407500Y-55675000D01*
X68018500Y-55715000D02*
X66702500Y-55715000D01*
X64742500Y-55715000D02*
X63426500Y-55715000D01*
X67998500Y-55755000D02*
X66702500Y-55755000D01*
X64742500Y-55755000D02*
X63446500Y-55755000D01*
X67978500Y-55795000D02*
X66702500Y-55795000D01*
X64742500Y-55795000D02*
X63466500Y-55795000D01*
X67956500Y-55835000D02*
X66702500Y-55835000D01*
X64742500Y-55835000D02*
X63488500Y-55835000D01*
X67934500Y-55875000D02*
X66702500Y-55875000D01*
X64742500Y-55875000D02*
X63510500Y-55875000D01*
X67911500Y-55915000D02*
X66702500Y-55915000D01*
X64742500Y-55915000D02*
X63533500Y-55915000D01*
X67887500Y-55955000D02*
X66702500Y-55955000D01*
X64742500Y-55955000D02*
X63557500Y-55955000D01*
X67862500Y-55995000D02*
X66702500Y-55995000D01*
X64742500Y-55995000D02*
X63582500Y-55995000D01*
X67835500Y-56035000D02*
X66702500Y-56035000D01*
X64742500Y-56035000D02*
X63609500Y-56035000D01*
X67808500Y-56075000D02*
X66702500Y-56075000D01*
X64742500Y-56075000D02*
X63636500Y-56075000D01*
X67780500Y-56115000D02*
X66702500Y-56115000D01*
X64742500Y-56115000D02*
X63664500Y-56115000D01*
X67750500Y-56155000D02*
X66702500Y-56155000D01*
X64742500Y-56155000D02*
X63694500Y-56155000D01*
X67719500Y-56195000D02*
X66702500Y-56195000D01*
X64742500Y-56195000D02*
X63725500Y-56195000D01*
X67687500Y-56235000D02*
X66702500Y-56235000D01*
X64742500Y-56235000D02*
X63757500Y-56235000D01*
X67654500Y-56275000D02*
X66702500Y-56275000D01*
X64742500Y-56275000D02*
X63790500Y-56275000D01*
X67619500Y-56315000D02*
X66702500Y-56315000D01*
X64742500Y-56315000D02*
X63825500Y-56315000D01*
X67583500Y-56355000D02*
X66702500Y-56355000D01*
X64742500Y-56355000D02*
X63861500Y-56355000D01*
X67545500Y-56395000D02*
X66702500Y-56395000D01*
X64742500Y-56395000D02*
X63899500Y-56395000D01*
X67505500Y-56435000D02*
X66702500Y-56435000D01*
X64742500Y-56435000D02*
X63939500Y-56435000D01*
X67464500Y-56475000D02*
X66702500Y-56475000D01*
X64742500Y-56475000D02*
X63980500Y-56475000D01*
X67421500Y-56515000D02*
X66702500Y-56515000D01*
X64742500Y-56515000D02*
X64023500Y-56515000D01*
X67376500Y-56555000D02*
X66702500Y-56555000D01*
X64742500Y-56555000D02*
X64068500Y-56555000D01*
X67328500Y-56595000D02*
X64116500Y-56595000D01*
X67278500Y-56635000D02*
X64166500Y-56635000D01*
X67226500Y-56675000D02*
X64218500Y-56675000D01*
X67170500Y-56715000D02*
X64274500Y-56715000D01*
X67112500Y-56755000D02*
X64332500Y-56755000D01*
X67049500Y-56795000D02*
X64395500Y-56795000D01*
X66983500Y-56835000D02*
X64461500Y-56835000D01*
X66911500Y-56875000D02*
X64533500Y-56875000D01*
X66834500Y-56915000D02*
X64610500Y-56915000D01*
X66750500Y-56955000D02*
X64694500Y-56955000D01*
X66656500Y-56995000D02*
X64788500Y-56995000D01*
X66551500Y-57035000D02*
X64893500Y-57035000D01*
X66429500Y-57075000D02*
X65015500Y-57075000D01*
X66281500Y-57115000D02*
X65163500Y-57115000D01*
X66076500Y-57155000D02*
X65368500Y-57155000D01*
X65722500Y-51394000D02*
X65722500Y-52594000D01*
X66372500Y-51994000D02*
X65072500Y-51994000D01*
X33935500Y-89843500D02*
X31215500Y-89843500D01*
X31215500Y-89843500D02*
X31215500Y-93163500D01*
X31215500Y-93163500D02*
X33935500Y-93163500D01*
X33935500Y-93163500D02*
X33935500Y-89843500D01*
X32575500Y-87603500D02*
X32575500Y-89843500D01*
X32575500Y-95403500D02*
X32575500Y-93163500D01*
X33935500Y-90383500D02*
X31215500Y-90383500D01*
X44732000Y-99742000D02*
X44732000Y-108542000D01*
X44732000Y-108542000D02*
X35532000Y-108542000D01*
X42032000Y-93842000D02*
X44732000Y-93842000D01*
X44732000Y-93842000D02*
X44732000Y-95742000D01*
X35532000Y-108542000D02*
X35532000Y-93842000D01*
X35532000Y-93842000D02*
X38132000Y-93842000D01*
X96135500Y-38738500D02*
X93475500Y-38738500D01*
X96135500Y-41338500D02*
X96135500Y-38738500D01*
X93475500Y-41338500D02*
X93475500Y-38738500D01*
X96135500Y-41338500D02*
X93475500Y-41338500D01*
X96135500Y-42608500D02*
X96135500Y-43938500D01*
X96135500Y-43938500D02*
X94805500Y-43938500D01*
X74425500Y-65865500D02*
G75*
G02X74425500Y-67865500I0J-1000000D01*
G01*
X74425500Y-67865500D02*
X74425500Y-69115500D01*
X74425500Y-69115500D02*
X84705500Y-69115500D01*
X84705500Y-69115500D02*
X84705500Y-64615500D01*
X84705500Y-64615500D02*
X74425500Y-64615500D01*
X74425500Y-64615500D02*
X74425500Y-65865500D01*
X74365500Y-72115500D02*
X84765500Y-72115500D01*
X84765500Y-72115500D02*
X84765500Y-61615500D01*
X84765500Y-61615500D02*
X74365500Y-61615500D01*
X74365500Y-61615500D02*
X74365500Y-72115500D01*
X90173500Y-65865500D02*
G75*
G02X90173500Y-67865500I0J-1000000D01*
G01*
X90173500Y-67865500D02*
X90173500Y-69115500D01*
X90173500Y-69115500D02*
X108073500Y-69115500D01*
X108073500Y-69115500D02*
X108073500Y-64615500D01*
X108073500Y-64615500D02*
X90173500Y-64615500D01*
X90173500Y-64615500D02*
X90173500Y-65865500D01*
X90113500Y-72115500D02*
X108133500Y-72115500D01*
X108133500Y-72115500D02*
X108133500Y-61615500D01*
X108133500Y-61615500D02*
X90113500Y-61615500D01*
X90113500Y-61615500D02*
X90113500Y-72115500D01*
X57464000Y-81899000D02*
G75*
G02X57464000Y-79899000I0J1000000D01*
G01*
X57464000Y-79899000D02*
X57464000Y-78649000D01*
X57464000Y-78649000D02*
X47184000Y-78649000D01*
X47184000Y-78649000D02*
X47184000Y-83149000D01*
X47184000Y-83149000D02*
X57464000Y-83149000D01*
X57464000Y-83149000D02*
X57464000Y-81899000D01*
X57524000Y-75649000D02*
X47124000Y-75649000D01*
X47124000Y-75649000D02*
X47124000Y-86149000D01*
X47124000Y-86149000D02*
X57524000Y-86149000D01*
X57524000Y-86149000D02*
X57524000Y-75649000D01*
X74362000Y-86249000D02*
G75*
G02X74362000Y-88249000I0J-1000000D01*
G01*
X74362000Y-88249000D02*
X74362000Y-89499000D01*
X74362000Y-89499000D02*
X84642000Y-89499000D01*
X84642000Y-89499000D02*
X84642000Y-84999000D01*
X84642000Y-84999000D02*
X74362000Y-84999000D01*
X74362000Y-84999000D02*
X74362000Y-86249000D01*
X74302000Y-92499000D02*
X84702000Y-92499000D01*
X84702000Y-92499000D02*
X84702000Y-81999000D01*
X84702000Y-81999000D02*
X74302000Y-81999000D01*
X74302000Y-81999000D02*
X74302000Y-92499000D01*
X90110000Y-86122000D02*
G75*
G02X90110000Y-88122000I0J-1000000D01*
G01*
X90110000Y-88122000D02*
X90110000Y-89372000D01*
X90110000Y-89372000D02*
X108010000Y-89372000D01*
X108010000Y-89372000D02*
X108010000Y-84872000D01*
X108010000Y-84872000D02*
X90110000Y-84872000D01*
X90110000Y-84872000D02*
X90110000Y-86122000D01*
X90050000Y-92372000D02*
X108070000Y-92372000D01*
X108070000Y-92372000D02*
X108070000Y-81872000D01*
X108070000Y-81872000D02*
X90050000Y-81872000D01*
X90050000Y-81872000D02*
X90050000Y-92372000D01*
X86090000Y-37659000D02*
G75*
G02X84090000Y-37659000I-1000000J0D01*
G01*
X84090000Y-37659000D02*
X82840000Y-37659000D01*
X82840000Y-37659000D02*
X82840000Y-55559000D01*
X82840000Y-55559000D02*
X87340000Y-55559000D01*
X87340000Y-55559000D02*
X87340000Y-37659000D01*
X87340000Y-37659000D02*
X86090000Y-37659000D01*
X79840000Y-37599000D02*
X79840000Y-55619000D01*
X79840000Y-55619000D02*
X90340000Y-55619000D01*
X90340000Y-55619000D02*
X90340000Y-37599000D01*
X90340000Y-37599000D02*
X79840000Y-37599000D01*
X45088500Y-52848000D02*
G75*
G02X45088500Y-54848000I0J-1000000D01*
G01*
X45088500Y-54848000D02*
X45088500Y-56098000D01*
X45088500Y-56098000D02*
X55368500Y-56098000D01*
X55368500Y-56098000D02*
X55368500Y-51598000D01*
X55368500Y-51598000D02*
X45088500Y-51598000D01*
X45088500Y-51598000D02*
X45088500Y-52848000D01*
X45028500Y-59098000D02*
X55428500Y-59098000D01*
X55428500Y-59098000D02*
X55428500Y-48598000D01*
X55428500Y-48598000D02*
X45028500Y-48598000D01*
X45028500Y-48598000D02*
X45028500Y-59098000D01*
D12*
X25400000Y-73025000D02*
X28829000Y-73025000D01*
X25400000Y-82677000D02*
X28829000Y-82677000D01*
X24257000Y-72517000D02*
X24257000Y-83185000D01*
X25273000Y-76073000D02*
X24003000Y-76073000D01*
X25273000Y-79629000D02*
X24003000Y-79629000D01*
X25400000Y-83185000D02*
X25400000Y-72517000D01*
X28829000Y-72517000D02*
X28829000Y-83185000D01*
X24003000Y-83185000D02*
X28829000Y-83185000D01*
X24003000Y-72517000D02*
X28829000Y-72517000D01*
X24003000Y-72517000D02*
X24003000Y-83185000D01*
X56070500Y-104330500D02*
X56070500Y-100901500D01*
X65722500Y-104330500D02*
X65722500Y-100901500D01*
X55562500Y-105473500D02*
X66230500Y-105473500D01*
X59118500Y-104457500D02*
X59118500Y-105727500D01*
X62674500Y-104457500D02*
X62674500Y-105727500D01*
X66230500Y-104330500D02*
X55562500Y-104330500D01*
X55562500Y-100901500D02*
X66230500Y-100901500D01*
X66230500Y-105727500D02*
X66230500Y-100901500D01*
X55562500Y-105727500D02*
X55562500Y-100901500D01*
X55562500Y-105727500D02*
X66230500Y-105727500D01*
X25273000Y-40132000D02*
X28702000Y-40132000D01*
X25273000Y-49784000D02*
X28702000Y-49784000D01*
X24130000Y-39624000D02*
X24130000Y-50292000D01*
X25146000Y-43180000D02*
X23876000Y-43180000D01*
X25146000Y-46736000D02*
X23876000Y-46736000D01*
X25273000Y-50292000D02*
X25273000Y-39624000D01*
X28702000Y-39624000D02*
X28702000Y-50292000D01*
X23876000Y-50292000D02*
X28702000Y-50292000D01*
X23876000Y-39624000D02*
X28702000Y-39624000D01*
X23876000Y-39624000D02*
X23876000Y-50292000D01*
D11*
X58763500Y-92309000D02*
G75*
G03X58763500Y-92309000I-4090000J0D01*
G01*
X58723500Y-92309000D02*
X50623500Y-92309000D01*
X58723500Y-92349000D02*
X50623500Y-92349000D01*
X58723500Y-92389000D02*
X50623500Y-92389000D01*
X58722500Y-92429000D02*
X50624500Y-92429000D01*
X58720500Y-92469000D02*
X50626500Y-92469000D01*
X58719500Y-92509000D02*
X50627500Y-92509000D01*
X58716500Y-92549000D02*
X50630500Y-92549000D01*
X58714500Y-92589000D02*
X55653500Y-92589000D01*
X53693500Y-92589000D02*
X50632500Y-92589000D01*
X58711500Y-92629000D02*
X55653500Y-92629000D01*
X53693500Y-92629000D02*
X50635500Y-92629000D01*
X58708500Y-92669000D02*
X55653500Y-92669000D01*
X53693500Y-92669000D02*
X50638500Y-92669000D01*
X58704500Y-92709000D02*
X55653500Y-92709000D01*
X53693500Y-92709000D02*
X50642500Y-92709000D01*
X58700500Y-92749000D02*
X55653500Y-92749000D01*
X53693500Y-92749000D02*
X50646500Y-92749000D01*
X58695500Y-92789000D02*
X55653500Y-92789000D01*
X53693500Y-92789000D02*
X50651500Y-92789000D01*
X58690500Y-92829000D02*
X55653500Y-92829000D01*
X53693500Y-92829000D02*
X50656500Y-92829000D01*
X58685500Y-92869000D02*
X55653500Y-92869000D01*
X53693500Y-92869000D02*
X50661500Y-92869000D01*
X58679500Y-92909000D02*
X55653500Y-92909000D01*
X53693500Y-92909000D02*
X50667500Y-92909000D01*
X58673500Y-92949000D02*
X55653500Y-92949000D01*
X53693500Y-92949000D02*
X50673500Y-92949000D01*
X58667500Y-92989000D02*
X55653500Y-92989000D01*
X53693500Y-92989000D02*
X50679500Y-92989000D01*
X58660500Y-93030000D02*
X55653500Y-93030000D01*
X53693500Y-93030000D02*
X50686500Y-93030000D01*
X58652500Y-93070000D02*
X55653500Y-93070000D01*
X53693500Y-93070000D02*
X50694500Y-93070000D01*
X58644500Y-93110000D02*
X55653500Y-93110000D01*
X53693500Y-93110000D02*
X50702500Y-93110000D01*
X58636500Y-93150000D02*
X55653500Y-93150000D01*
X53693500Y-93150000D02*
X50710500Y-93150000D01*
X58628500Y-93190000D02*
X55653500Y-93190000D01*
X53693500Y-93190000D02*
X50718500Y-93190000D01*
X58619500Y-93230000D02*
X55653500Y-93230000D01*
X53693500Y-93230000D02*
X50727500Y-93230000D01*
X58609500Y-93270000D02*
X55653500Y-93270000D01*
X53693500Y-93270000D02*
X50737500Y-93270000D01*
X58599500Y-93310000D02*
X55653500Y-93310000D01*
X53693500Y-93310000D02*
X50747500Y-93310000D01*
X58589500Y-93350000D02*
X55653500Y-93350000D01*
X53693500Y-93350000D02*
X50757500Y-93350000D01*
X58578500Y-93390000D02*
X55653500Y-93390000D01*
X53693500Y-93390000D02*
X50768500Y-93390000D01*
X58567500Y-93430000D02*
X55653500Y-93430000D01*
X53693500Y-93430000D02*
X50779500Y-93430000D01*
X58556500Y-93470000D02*
X55653500Y-93470000D01*
X53693500Y-93470000D02*
X50790500Y-93470000D01*
X58543500Y-93510000D02*
X55653500Y-93510000D01*
X53693500Y-93510000D02*
X50803500Y-93510000D01*
X58531500Y-93550000D02*
X55653500Y-93550000D01*
X53693500Y-93550000D02*
X50815500Y-93550000D01*
X58518500Y-93590000D02*
X55653500Y-93590000D01*
X53693500Y-93590000D02*
X50828500Y-93590000D01*
X58505500Y-93630000D02*
X55653500Y-93630000D01*
X53693500Y-93630000D02*
X50841500Y-93630000D01*
X58491500Y-93670000D02*
X55653500Y-93670000D01*
X53693500Y-93670000D02*
X50855500Y-93670000D01*
X58476500Y-93710000D02*
X55653500Y-93710000D01*
X53693500Y-93710000D02*
X50870500Y-93710000D01*
X58462500Y-93750000D02*
X55653500Y-93750000D01*
X53693500Y-93750000D02*
X50884500Y-93750000D01*
X58446500Y-93790000D02*
X55653500Y-93790000D01*
X53693500Y-93790000D02*
X50900500Y-93790000D01*
X58431500Y-93830000D02*
X55653500Y-93830000D01*
X53693500Y-93830000D02*
X50915500Y-93830000D01*
X58414500Y-93870000D02*
X55653500Y-93870000D01*
X53693500Y-93870000D02*
X50932500Y-93870000D01*
X58398500Y-93910000D02*
X55653500Y-93910000D01*
X53693500Y-93910000D02*
X50948500Y-93910000D01*
X58380500Y-93950000D02*
X55653500Y-93950000D01*
X53693500Y-93950000D02*
X50966500Y-93950000D01*
X58363500Y-93990000D02*
X55653500Y-93990000D01*
X53693500Y-93990000D02*
X50983500Y-93990000D01*
X58344500Y-94030000D02*
X55653500Y-94030000D01*
X53693500Y-94030000D02*
X51002500Y-94030000D01*
X58325500Y-94070000D02*
X55653500Y-94070000D01*
X53693500Y-94070000D02*
X51021500Y-94070000D01*
X58306500Y-94110000D02*
X55653500Y-94110000D01*
X53693500Y-94110000D02*
X51040500Y-94110000D01*
X58286500Y-94150000D02*
X55653500Y-94150000D01*
X53693500Y-94150000D02*
X51060500Y-94150000D01*
X58266500Y-94190000D02*
X55653500Y-94190000D01*
X53693500Y-94190000D02*
X51080500Y-94190000D01*
X58245500Y-94230000D02*
X55653500Y-94230000D01*
X53693500Y-94230000D02*
X51101500Y-94230000D01*
X58223500Y-94270000D02*
X55653500Y-94270000D01*
X53693500Y-94270000D02*
X51123500Y-94270000D01*
X58201500Y-94310000D02*
X55653500Y-94310000D01*
X53693500Y-94310000D02*
X51145500Y-94310000D01*
X58178500Y-94350000D02*
X55653500Y-94350000D01*
X53693500Y-94350000D02*
X51168500Y-94350000D01*
X58155500Y-94390000D02*
X55653500Y-94390000D01*
X53693500Y-94390000D02*
X51191500Y-94390000D01*
X58131500Y-94430000D02*
X55653500Y-94430000D01*
X53693500Y-94430000D02*
X51215500Y-94430000D01*
X58107500Y-94470000D02*
X55653500Y-94470000D01*
X53693500Y-94470000D02*
X51239500Y-94470000D01*
X58081500Y-94510000D02*
X55653500Y-94510000D01*
X53693500Y-94510000D02*
X51265500Y-94510000D01*
X58056500Y-94550000D02*
X51290500Y-94550000D01*
X58029500Y-94590000D02*
X51317500Y-94590000D01*
X58002500Y-94630000D02*
X51344500Y-94630000D01*
X57974500Y-94670000D02*
X51372500Y-94670000D01*
X57945500Y-94710000D02*
X51401500Y-94710000D01*
X57916500Y-94750000D02*
X51430500Y-94750000D01*
X57886500Y-94790000D02*
X51460500Y-94790000D01*
X57855500Y-94830000D02*
X51491500Y-94830000D01*
X57823500Y-94870000D02*
X51523500Y-94870000D01*
X57791500Y-94910000D02*
X51555500Y-94910000D01*
X57757500Y-94950000D02*
X51589500Y-94950000D01*
X57723500Y-94990000D02*
X51623500Y-94990000D01*
X57688500Y-95030000D02*
X51658500Y-95030000D01*
X57652500Y-95070000D02*
X51694500Y-95070000D01*
X57615500Y-95110000D02*
X51731500Y-95110000D01*
X57577500Y-95150000D02*
X51769500Y-95150000D01*
X57538500Y-95190000D02*
X51808500Y-95190000D01*
X57497500Y-95230000D02*
X51849500Y-95230000D01*
X57456500Y-95270000D02*
X51890500Y-95270000D01*
X57413500Y-95310000D02*
X51933500Y-95310000D01*
X57370500Y-95350000D02*
X51976500Y-95350000D01*
X57325500Y-95390000D02*
X52021500Y-95390000D01*
X57278500Y-95430000D02*
X52068500Y-95430000D01*
X57230500Y-95470000D02*
X52116500Y-95470000D01*
X57181500Y-95510000D02*
X52165500Y-95510000D01*
X57130500Y-95550000D02*
X52216500Y-95550000D01*
X57077500Y-95590000D02*
X52269500Y-95590000D01*
X57022500Y-95630000D02*
X52324500Y-95630000D01*
X56966500Y-95670000D02*
X52380500Y-95670000D01*
X56907500Y-95710000D02*
X52439500Y-95710000D01*
X56846500Y-95750000D02*
X52500500Y-95750000D01*
X56782500Y-95790000D02*
X52564500Y-95790000D01*
X56716500Y-95830000D02*
X52630500Y-95830000D01*
X56647500Y-95870000D02*
X52699500Y-95870000D01*
X56575500Y-95910000D02*
X52771500Y-95910000D01*
X56499500Y-95950000D02*
X52847500Y-95950000D01*
X56418500Y-95990000D02*
X52928500Y-95990000D01*
X56333500Y-96030000D02*
X53013500Y-96030000D01*
X56243500Y-96070000D02*
X53103500Y-96070000D01*
X56146500Y-96110000D02*
X53200500Y-96110000D01*
X56042500Y-96150000D02*
X53304500Y-96150000D01*
X55927500Y-96190000D02*
X53419500Y-96190000D01*
X55800500Y-96230000D02*
X53546500Y-96230000D01*
X55656500Y-96270000D02*
X53690500Y-96270000D01*
X55487500Y-96310000D02*
X53859500Y-96310000D01*
X55271500Y-96350000D02*
X54075500Y-96350000D01*
X54919500Y-96390000D02*
X54427500Y-96390000D01*
X54673500Y-88859000D02*
X54673500Y-90059000D01*
X55323500Y-89459000D02*
X54023500Y-89459000D01*
X84372000Y-104053000D02*
X77252000Y-104053000D01*
X84372000Y-101433000D02*
X77252000Y-101433000D01*
X84372000Y-104053000D02*
X84372000Y-101433000D01*
X77252000Y-104053000D02*
X77252000Y-101433000D01*
X76494000Y-33230000D02*
X76494000Y-40350000D01*
X73874000Y-33230000D02*
X73874000Y-40350000D01*
X76494000Y-33230000D02*
X73874000Y-33230000D01*
X76494000Y-40350000D02*
X73874000Y-40350000D01*
X43015500Y-65766000D02*
G75*
G03X43015500Y-65766000I-4090000J0D01*
G01*
X42975500Y-65766000D02*
X34875500Y-65766000D01*
X42975500Y-65806000D02*
X34875500Y-65806000D01*
X42975500Y-65846000D02*
X34875500Y-65846000D01*
X42974500Y-65886000D02*
X34876500Y-65886000D01*
X42972500Y-65926000D02*
X34878500Y-65926000D01*
X42971500Y-65966000D02*
X34879500Y-65966000D01*
X42968500Y-66006000D02*
X34882500Y-66006000D01*
X42966500Y-66046000D02*
X39905500Y-66046000D01*
X37945500Y-66046000D02*
X34884500Y-66046000D01*
X42963500Y-66086000D02*
X39905500Y-66086000D01*
X37945500Y-66086000D02*
X34887500Y-66086000D01*
X42960500Y-66126000D02*
X39905500Y-66126000D01*
X37945500Y-66126000D02*
X34890500Y-66126000D01*
X42956500Y-66166000D02*
X39905500Y-66166000D01*
X37945500Y-66166000D02*
X34894500Y-66166000D01*
X42952500Y-66206000D02*
X39905500Y-66206000D01*
X37945500Y-66206000D02*
X34898500Y-66206000D01*
X42947500Y-66246000D02*
X39905500Y-66246000D01*
X37945500Y-66246000D02*
X34903500Y-66246000D01*
X42942500Y-66286000D02*
X39905500Y-66286000D01*
X37945500Y-66286000D02*
X34908500Y-66286000D01*
X42937500Y-66326000D02*
X39905500Y-66326000D01*
X37945500Y-66326000D02*
X34913500Y-66326000D01*
X42931500Y-66366000D02*
X39905500Y-66366000D01*
X37945500Y-66366000D02*
X34919500Y-66366000D01*
X42925500Y-66406000D02*
X39905500Y-66406000D01*
X37945500Y-66406000D02*
X34925500Y-66406000D01*
X42919500Y-66446000D02*
X39905500Y-66446000D01*
X37945500Y-66446000D02*
X34931500Y-66446000D01*
X42912500Y-66487000D02*
X39905500Y-66487000D01*
X37945500Y-66487000D02*
X34938500Y-66487000D01*
X42904500Y-66527000D02*
X39905500Y-66527000D01*
X37945500Y-66527000D02*
X34946500Y-66527000D01*
X42896500Y-66567000D02*
X39905500Y-66567000D01*
X37945500Y-66567000D02*
X34954500Y-66567000D01*
X42888500Y-66607000D02*
X39905500Y-66607000D01*
X37945500Y-66607000D02*
X34962500Y-66607000D01*
X42880500Y-66647000D02*
X39905500Y-66647000D01*
X37945500Y-66647000D02*
X34970500Y-66647000D01*
X42871500Y-66687000D02*
X39905500Y-66687000D01*
X37945500Y-66687000D02*
X34979500Y-66687000D01*
X42861500Y-66727000D02*
X39905500Y-66727000D01*
X37945500Y-66727000D02*
X34989500Y-66727000D01*
X42851500Y-66767000D02*
X39905500Y-66767000D01*
X37945500Y-66767000D02*
X34999500Y-66767000D01*
X42841500Y-66807000D02*
X39905500Y-66807000D01*
X37945500Y-66807000D02*
X35009500Y-66807000D01*
X42830500Y-66847000D02*
X39905500Y-66847000D01*
X37945500Y-66847000D02*
X35020500Y-66847000D01*
X42819500Y-66887000D02*
X39905500Y-66887000D01*
X37945500Y-66887000D02*
X35031500Y-66887000D01*
X42808500Y-66927000D02*
X39905500Y-66927000D01*
X37945500Y-66927000D02*
X35042500Y-66927000D01*
X42795500Y-66967000D02*
X39905500Y-66967000D01*
X37945500Y-66967000D02*
X35055500Y-66967000D01*
X42783500Y-67007000D02*
X39905500Y-67007000D01*
X37945500Y-67007000D02*
X35067500Y-67007000D01*
X42770500Y-67047000D02*
X39905500Y-67047000D01*
X37945500Y-67047000D02*
X35080500Y-67047000D01*
X42757500Y-67087000D02*
X39905500Y-67087000D01*
X37945500Y-67087000D02*
X35093500Y-67087000D01*
X42743500Y-67127000D02*
X39905500Y-67127000D01*
X37945500Y-67127000D02*
X35107500Y-67127000D01*
X42728500Y-67167000D02*
X39905500Y-67167000D01*
X37945500Y-67167000D02*
X35122500Y-67167000D01*
X42714500Y-67207000D02*
X39905500Y-67207000D01*
X37945500Y-67207000D02*
X35136500Y-67207000D01*
X42698500Y-67247000D02*
X39905500Y-67247000D01*
X37945500Y-67247000D02*
X35152500Y-67247000D01*
X42683500Y-67287000D02*
X39905500Y-67287000D01*
X37945500Y-67287000D02*
X35167500Y-67287000D01*
X42666500Y-67327000D02*
X39905500Y-67327000D01*
X37945500Y-67327000D02*
X35184500Y-67327000D01*
X42650500Y-67367000D02*
X39905500Y-67367000D01*
X37945500Y-67367000D02*
X35200500Y-67367000D01*
X42632500Y-67407000D02*
X39905500Y-67407000D01*
X37945500Y-67407000D02*
X35218500Y-67407000D01*
X42615500Y-67447000D02*
X39905500Y-67447000D01*
X37945500Y-67447000D02*
X35235500Y-67447000D01*
X42596500Y-67487000D02*
X39905500Y-67487000D01*
X37945500Y-67487000D02*
X35254500Y-67487000D01*
X42577500Y-67527000D02*
X39905500Y-67527000D01*
X37945500Y-67527000D02*
X35273500Y-67527000D01*
X42558500Y-67567000D02*
X39905500Y-67567000D01*
X37945500Y-67567000D02*
X35292500Y-67567000D01*
X42538500Y-67607000D02*
X39905500Y-67607000D01*
X37945500Y-67607000D02*
X35312500Y-67607000D01*
X42518500Y-67647000D02*
X39905500Y-67647000D01*
X37945500Y-67647000D02*
X35332500Y-67647000D01*
X42497500Y-67687000D02*
X39905500Y-67687000D01*
X37945500Y-67687000D02*
X35353500Y-67687000D01*
X42475500Y-67727000D02*
X39905500Y-67727000D01*
X37945500Y-67727000D02*
X35375500Y-67727000D01*
X42453500Y-67767000D02*
X39905500Y-67767000D01*
X37945500Y-67767000D02*
X35397500Y-67767000D01*
X42430500Y-67807000D02*
X39905500Y-67807000D01*
X37945500Y-67807000D02*
X35420500Y-67807000D01*
X42407500Y-67847000D02*
X39905500Y-67847000D01*
X37945500Y-67847000D02*
X35443500Y-67847000D01*
X42383500Y-67887000D02*
X39905500Y-67887000D01*
X37945500Y-67887000D02*
X35467500Y-67887000D01*
X42359500Y-67927000D02*
X39905500Y-67927000D01*
X37945500Y-67927000D02*
X35491500Y-67927000D01*
X42333500Y-67967000D02*
X39905500Y-67967000D01*
X37945500Y-67967000D02*
X35517500Y-67967000D01*
X42308500Y-68007000D02*
X35542500Y-68007000D01*
X42281500Y-68047000D02*
X35569500Y-68047000D01*
X42254500Y-68087000D02*
X35596500Y-68087000D01*
X42226500Y-68127000D02*
X35624500Y-68127000D01*
X42197500Y-68167000D02*
X35653500Y-68167000D01*
X42168500Y-68207000D02*
X35682500Y-68207000D01*
X42138500Y-68247000D02*
X35712500Y-68247000D01*
X42107500Y-68287000D02*
X35743500Y-68287000D01*
X42075500Y-68327000D02*
X35775500Y-68327000D01*
X42043500Y-68367000D02*
X35807500Y-68367000D01*
X42009500Y-68407000D02*
X35841500Y-68407000D01*
X41975500Y-68447000D02*
X35875500Y-68447000D01*
X41940500Y-68487000D02*
X35910500Y-68487000D01*
X41904500Y-68527000D02*
X35946500Y-68527000D01*
X41867500Y-68567000D02*
X35983500Y-68567000D01*
X41829500Y-68607000D02*
X36021500Y-68607000D01*
X41790500Y-68647000D02*
X36060500Y-68647000D01*
X41749500Y-68687000D02*
X36101500Y-68687000D01*
X41708500Y-68727000D02*
X36142500Y-68727000D01*
X41665500Y-68767000D02*
X36185500Y-68767000D01*
X41622500Y-68807000D02*
X36228500Y-68807000D01*
X41577500Y-68847000D02*
X36273500Y-68847000D01*
X41530500Y-68887000D02*
X36320500Y-68887000D01*
X41482500Y-68927000D02*
X36368500Y-68927000D01*
X41433500Y-68967000D02*
X36417500Y-68967000D01*
X41382500Y-69007000D02*
X36468500Y-69007000D01*
X41329500Y-69047000D02*
X36521500Y-69047000D01*
X41274500Y-69087000D02*
X36576500Y-69087000D01*
X41218500Y-69127000D02*
X36632500Y-69127000D01*
X41159500Y-69167000D02*
X36691500Y-69167000D01*
X41098500Y-69207000D02*
X36752500Y-69207000D01*
X41034500Y-69247000D02*
X36816500Y-69247000D01*
X40968500Y-69287000D02*
X36882500Y-69287000D01*
X40899500Y-69327000D02*
X36951500Y-69327000D01*
X40827500Y-69367000D02*
X37023500Y-69367000D01*
X40751500Y-69407000D02*
X37099500Y-69407000D01*
X40670500Y-69447000D02*
X37180500Y-69447000D01*
X40585500Y-69487000D02*
X37265500Y-69487000D01*
X40495500Y-69527000D02*
X37355500Y-69527000D01*
X40398500Y-69567000D02*
X37452500Y-69567000D01*
X40294500Y-69607000D02*
X37556500Y-69607000D01*
X40179500Y-69647000D02*
X37671500Y-69647000D01*
X40052500Y-69687000D02*
X37798500Y-69687000D01*
X39908500Y-69727000D02*
X37942500Y-69727000D01*
X39739500Y-69767000D02*
X38111500Y-69767000D01*
X39523500Y-69807000D02*
X38327500Y-69807000D01*
X39171500Y-69847000D02*
X38679500Y-69847000D01*
X38925500Y-62316000D02*
X38925500Y-63516000D01*
X39575500Y-62916000D02*
X38275500Y-62916000D01*
X68372000Y-90678000D02*
G75*
G03X68372000Y-90678000I-4090000J0D01*
G01*
X64282000Y-94728000D02*
X64282000Y-86628000D01*
X64242000Y-94728000D02*
X64242000Y-86628000D01*
X64202000Y-94728000D02*
X64202000Y-86628000D01*
X64162000Y-94727000D02*
X64162000Y-86629000D01*
X64122000Y-94725000D02*
X64122000Y-86631000D01*
X64082000Y-94724000D02*
X64082000Y-86632000D01*
X64042000Y-94721000D02*
X64042000Y-86635000D01*
X64002000Y-94719000D02*
X64002000Y-91658000D01*
X64002000Y-89698000D02*
X64002000Y-86637000D01*
X63962000Y-94716000D02*
X63962000Y-91658000D01*
X63962000Y-89698000D02*
X63962000Y-86640000D01*
X63922000Y-94713000D02*
X63922000Y-91658000D01*
X63922000Y-89698000D02*
X63922000Y-86643000D01*
X63882000Y-94709000D02*
X63882000Y-91658000D01*
X63882000Y-89698000D02*
X63882000Y-86647000D01*
X63842000Y-94705000D02*
X63842000Y-91658000D01*
X63842000Y-89698000D02*
X63842000Y-86651000D01*
X63802000Y-94700000D02*
X63802000Y-91658000D01*
X63802000Y-89698000D02*
X63802000Y-86656000D01*
X63762000Y-94695000D02*
X63762000Y-91658000D01*
X63762000Y-89698000D02*
X63762000Y-86661000D01*
X63722000Y-94690000D02*
X63722000Y-91658000D01*
X63722000Y-89698000D02*
X63722000Y-86666000D01*
X63682000Y-94684000D02*
X63682000Y-91658000D01*
X63682000Y-89698000D02*
X63682000Y-86672000D01*
X63642000Y-94678000D02*
X63642000Y-91658000D01*
X63642000Y-89698000D02*
X63642000Y-86678000D01*
X63602000Y-94672000D02*
X63602000Y-91658000D01*
X63602000Y-89698000D02*
X63602000Y-86684000D01*
X63561000Y-94665000D02*
X63561000Y-91658000D01*
X63561000Y-89698000D02*
X63561000Y-86691000D01*
X63521000Y-94657000D02*
X63521000Y-91658000D01*
X63521000Y-89698000D02*
X63521000Y-86699000D01*
X63481000Y-94649000D02*
X63481000Y-91658000D01*
X63481000Y-89698000D02*
X63481000Y-86707000D01*
X63441000Y-94641000D02*
X63441000Y-91658000D01*
X63441000Y-89698000D02*
X63441000Y-86715000D01*
X63401000Y-94633000D02*
X63401000Y-91658000D01*
X63401000Y-89698000D02*
X63401000Y-86723000D01*
X63361000Y-94624000D02*
X63361000Y-91658000D01*
X63361000Y-89698000D02*
X63361000Y-86732000D01*
X63321000Y-94614000D02*
X63321000Y-91658000D01*
X63321000Y-89698000D02*
X63321000Y-86742000D01*
X63281000Y-94604000D02*
X63281000Y-91658000D01*
X63281000Y-89698000D02*
X63281000Y-86752000D01*
X63241000Y-94594000D02*
X63241000Y-91658000D01*
X63241000Y-89698000D02*
X63241000Y-86762000D01*
X63201000Y-94583000D02*
X63201000Y-91658000D01*
X63201000Y-89698000D02*
X63201000Y-86773000D01*
X63161000Y-94572000D02*
X63161000Y-91658000D01*
X63161000Y-89698000D02*
X63161000Y-86784000D01*
X63121000Y-94561000D02*
X63121000Y-91658000D01*
X63121000Y-89698000D02*
X63121000Y-86795000D01*
X63081000Y-94548000D02*
X63081000Y-91658000D01*
X63081000Y-89698000D02*
X63081000Y-86808000D01*
X63041000Y-94536000D02*
X63041000Y-91658000D01*
X63041000Y-89698000D02*
X63041000Y-86820000D01*
X63001000Y-94523000D02*
X63001000Y-91658000D01*
X63001000Y-89698000D02*
X63001000Y-86833000D01*
X62961000Y-94510000D02*
X62961000Y-91658000D01*
X62961000Y-89698000D02*
X62961000Y-86846000D01*
X62921000Y-94496000D02*
X62921000Y-91658000D01*
X62921000Y-89698000D02*
X62921000Y-86860000D01*
X62881000Y-94481000D02*
X62881000Y-91658000D01*
X62881000Y-89698000D02*
X62881000Y-86875000D01*
X62841000Y-94467000D02*
X62841000Y-91658000D01*
X62841000Y-89698000D02*
X62841000Y-86889000D01*
X62801000Y-94451000D02*
X62801000Y-91658000D01*
X62801000Y-89698000D02*
X62801000Y-86905000D01*
X62761000Y-94436000D02*
X62761000Y-91658000D01*
X62761000Y-89698000D02*
X62761000Y-86920000D01*
X62721000Y-94419000D02*
X62721000Y-91658000D01*
X62721000Y-89698000D02*
X62721000Y-86937000D01*
X62681000Y-94403000D02*
X62681000Y-91658000D01*
X62681000Y-89698000D02*
X62681000Y-86953000D01*
X62641000Y-94385000D02*
X62641000Y-91658000D01*
X62641000Y-89698000D02*
X62641000Y-86971000D01*
X62601000Y-94368000D02*
X62601000Y-91658000D01*
X62601000Y-89698000D02*
X62601000Y-86988000D01*
X62561000Y-94349000D02*
X62561000Y-91658000D01*
X62561000Y-89698000D02*
X62561000Y-87007000D01*
X62521000Y-94330000D02*
X62521000Y-91658000D01*
X62521000Y-89698000D02*
X62521000Y-87026000D01*
X62481000Y-94311000D02*
X62481000Y-91658000D01*
X62481000Y-89698000D02*
X62481000Y-87045000D01*
X62441000Y-94291000D02*
X62441000Y-91658000D01*
X62441000Y-89698000D02*
X62441000Y-87065000D01*
X62401000Y-94271000D02*
X62401000Y-91658000D01*
X62401000Y-89698000D02*
X62401000Y-87085000D01*
X62361000Y-94250000D02*
X62361000Y-91658000D01*
X62361000Y-89698000D02*
X62361000Y-87106000D01*
X62321000Y-94228000D02*
X62321000Y-91658000D01*
X62321000Y-89698000D02*
X62321000Y-87128000D01*
X62281000Y-94206000D02*
X62281000Y-91658000D01*
X62281000Y-89698000D02*
X62281000Y-87150000D01*
X62241000Y-94183000D02*
X62241000Y-91658000D01*
X62241000Y-89698000D02*
X62241000Y-87173000D01*
X62201000Y-94160000D02*
X62201000Y-91658000D01*
X62201000Y-89698000D02*
X62201000Y-87196000D01*
X62161000Y-94136000D02*
X62161000Y-91658000D01*
X62161000Y-89698000D02*
X62161000Y-87220000D01*
X62121000Y-94112000D02*
X62121000Y-91658000D01*
X62121000Y-89698000D02*
X62121000Y-87244000D01*
X62081000Y-94086000D02*
X62081000Y-91658000D01*
X62081000Y-89698000D02*
X62081000Y-87270000D01*
X62041000Y-94061000D02*
X62041000Y-87295000D01*
X62001000Y-94034000D02*
X62001000Y-87322000D01*
X61961000Y-94007000D02*
X61961000Y-87349000D01*
X61921000Y-93979000D02*
X61921000Y-87377000D01*
X61881000Y-93950000D02*
X61881000Y-87406000D01*
X61841000Y-93921000D02*
X61841000Y-87435000D01*
X61801000Y-93891000D02*
X61801000Y-87465000D01*
X61761000Y-93860000D02*
X61761000Y-87496000D01*
X61721000Y-93828000D02*
X61721000Y-87528000D01*
X61681000Y-93796000D02*
X61681000Y-87560000D01*
X61641000Y-93762000D02*
X61641000Y-87594000D01*
X61601000Y-93728000D02*
X61601000Y-87628000D01*
X61561000Y-93693000D02*
X61561000Y-87663000D01*
X61521000Y-93657000D02*
X61521000Y-87699000D01*
X61481000Y-93620000D02*
X61481000Y-87736000D01*
X61441000Y-93582000D02*
X61441000Y-87774000D01*
X61401000Y-93543000D02*
X61401000Y-87813000D01*
X61361000Y-93502000D02*
X61361000Y-87854000D01*
X61321000Y-93461000D02*
X61321000Y-87895000D01*
X61281000Y-93418000D02*
X61281000Y-87938000D01*
X61241000Y-93375000D02*
X61241000Y-87981000D01*
X61201000Y-93330000D02*
X61201000Y-88026000D01*
X61161000Y-93283000D02*
X61161000Y-88073000D01*
X61121000Y-93235000D02*
X61121000Y-88121000D01*
X61081000Y-93186000D02*
X61081000Y-88170000D01*
X61041000Y-93135000D02*
X61041000Y-88221000D01*
X61001000Y-93082000D02*
X61001000Y-88274000D01*
X60961000Y-93027000D02*
X60961000Y-88329000D01*
X60921000Y-92971000D02*
X60921000Y-88385000D01*
X60881000Y-92912000D02*
X60881000Y-88444000D01*
X60841000Y-92851000D02*
X60841000Y-88505000D01*
X60801000Y-92787000D02*
X60801000Y-88569000D01*
X60761000Y-92721000D02*
X60761000Y-88635000D01*
X60721000Y-92652000D02*
X60721000Y-88704000D01*
X60681000Y-92580000D02*
X60681000Y-88776000D01*
X60641000Y-92504000D02*
X60641000Y-88852000D01*
X60601000Y-92423000D02*
X60601000Y-88933000D01*
X60561000Y-92338000D02*
X60561000Y-89018000D01*
X60521000Y-92248000D02*
X60521000Y-89108000D01*
X60481000Y-92151000D02*
X60481000Y-89205000D01*
X60441000Y-92047000D02*
X60441000Y-89309000D01*
X60401000Y-91932000D02*
X60401000Y-89424000D01*
X60361000Y-91805000D02*
X60361000Y-89551000D01*
X60321000Y-91661000D02*
X60321000Y-89695000D01*
X60281000Y-91492000D02*
X60281000Y-89864000D01*
X60241000Y-91276000D02*
X60241000Y-90080000D01*
X60201000Y-90924000D02*
X60201000Y-90432000D01*
X67732000Y-90678000D02*
X66532000Y-90678000D01*
X67132000Y-91328000D02*
X67132000Y-90028000D01*
X42507500Y-45065000D02*
G75*
G03X42507500Y-45065000I-4090000J0D01*
G01*
X42467500Y-45065000D02*
X34367500Y-45065000D01*
X42467500Y-45105000D02*
X34367500Y-45105000D01*
X42467500Y-45145000D02*
X34367500Y-45145000D01*
X42466500Y-45185000D02*
X34368500Y-45185000D01*
X42464500Y-45225000D02*
X34370500Y-45225000D01*
X42463500Y-45265000D02*
X34371500Y-45265000D01*
X42460500Y-45305000D02*
X34374500Y-45305000D01*
X42458500Y-45345000D02*
X39397500Y-45345000D01*
X37437500Y-45345000D02*
X34376500Y-45345000D01*
X42455500Y-45385000D02*
X39397500Y-45385000D01*
X37437500Y-45385000D02*
X34379500Y-45385000D01*
X42452500Y-45425000D02*
X39397500Y-45425000D01*
X37437500Y-45425000D02*
X34382500Y-45425000D01*
X42448500Y-45465000D02*
X39397500Y-45465000D01*
X37437500Y-45465000D02*
X34386500Y-45465000D01*
X42444500Y-45505000D02*
X39397500Y-45505000D01*
X37437500Y-45505000D02*
X34390500Y-45505000D01*
X42439500Y-45545000D02*
X39397500Y-45545000D01*
X37437500Y-45545000D02*
X34395500Y-45545000D01*
X42434500Y-45585000D02*
X39397500Y-45585000D01*
X37437500Y-45585000D02*
X34400500Y-45585000D01*
X42429500Y-45625000D02*
X39397500Y-45625000D01*
X37437500Y-45625000D02*
X34405500Y-45625000D01*
X42423500Y-45665000D02*
X39397500Y-45665000D01*
X37437500Y-45665000D02*
X34411500Y-45665000D01*
X42417500Y-45705000D02*
X39397500Y-45705000D01*
X37437500Y-45705000D02*
X34417500Y-45705000D01*
X42411500Y-45745000D02*
X39397500Y-45745000D01*
X37437500Y-45745000D02*
X34423500Y-45745000D01*
X42404500Y-45786000D02*
X39397500Y-45786000D01*
X37437500Y-45786000D02*
X34430500Y-45786000D01*
X42396500Y-45826000D02*
X39397500Y-45826000D01*
X37437500Y-45826000D02*
X34438500Y-45826000D01*
X42388500Y-45866000D02*
X39397500Y-45866000D01*
X37437500Y-45866000D02*
X34446500Y-45866000D01*
X42380500Y-45906000D02*
X39397500Y-45906000D01*
X37437500Y-45906000D02*
X34454500Y-45906000D01*
X42372500Y-45946000D02*
X39397500Y-45946000D01*
X37437500Y-45946000D02*
X34462500Y-45946000D01*
X42363500Y-45986000D02*
X39397500Y-45986000D01*
X37437500Y-45986000D02*
X34471500Y-45986000D01*
X42353500Y-46026000D02*
X39397500Y-46026000D01*
X37437500Y-46026000D02*
X34481500Y-46026000D01*
X42343500Y-46066000D02*
X39397500Y-46066000D01*
X37437500Y-46066000D02*
X34491500Y-46066000D01*
X42333500Y-46106000D02*
X39397500Y-46106000D01*
X37437500Y-46106000D02*
X34501500Y-46106000D01*
X42322500Y-46146000D02*
X39397500Y-46146000D01*
X37437500Y-46146000D02*
X34512500Y-46146000D01*
X42311500Y-46186000D02*
X39397500Y-46186000D01*
X37437500Y-46186000D02*
X34523500Y-46186000D01*
X42300500Y-46226000D02*
X39397500Y-46226000D01*
X37437500Y-46226000D02*
X34534500Y-46226000D01*
X42287500Y-46266000D02*
X39397500Y-46266000D01*
X37437500Y-46266000D02*
X34547500Y-46266000D01*
X42275500Y-46306000D02*
X39397500Y-46306000D01*
X37437500Y-46306000D02*
X34559500Y-46306000D01*
X42262500Y-46346000D02*
X39397500Y-46346000D01*
X37437500Y-46346000D02*
X34572500Y-46346000D01*
X42249500Y-46386000D02*
X39397500Y-46386000D01*
X37437500Y-46386000D02*
X34585500Y-46386000D01*
X42235500Y-46426000D02*
X39397500Y-46426000D01*
X37437500Y-46426000D02*
X34599500Y-46426000D01*
X42220500Y-46466000D02*
X39397500Y-46466000D01*
X37437500Y-46466000D02*
X34614500Y-46466000D01*
X42206500Y-46506000D02*
X39397500Y-46506000D01*
X37437500Y-46506000D02*
X34628500Y-46506000D01*
X42190500Y-46546000D02*
X39397500Y-46546000D01*
X37437500Y-46546000D02*
X34644500Y-46546000D01*
X42175500Y-46586000D02*
X39397500Y-46586000D01*
X37437500Y-46586000D02*
X34659500Y-46586000D01*
X42158500Y-46626000D02*
X39397500Y-46626000D01*
X37437500Y-46626000D02*
X34676500Y-46626000D01*
X42142500Y-46666000D02*
X39397500Y-46666000D01*
X37437500Y-46666000D02*
X34692500Y-46666000D01*
X42124500Y-46706000D02*
X39397500Y-46706000D01*
X37437500Y-46706000D02*
X34710500Y-46706000D01*
X42107500Y-46746000D02*
X39397500Y-46746000D01*
X37437500Y-46746000D02*
X34727500Y-46746000D01*
X42088500Y-46786000D02*
X39397500Y-46786000D01*
X37437500Y-46786000D02*
X34746500Y-46786000D01*
X42069500Y-46826000D02*
X39397500Y-46826000D01*
X37437500Y-46826000D02*
X34765500Y-46826000D01*
X42050500Y-46866000D02*
X39397500Y-46866000D01*
X37437500Y-46866000D02*
X34784500Y-46866000D01*
X42030500Y-46906000D02*
X39397500Y-46906000D01*
X37437500Y-46906000D02*
X34804500Y-46906000D01*
X42010500Y-46946000D02*
X39397500Y-46946000D01*
X37437500Y-46946000D02*
X34824500Y-46946000D01*
X41989500Y-46986000D02*
X39397500Y-46986000D01*
X37437500Y-46986000D02*
X34845500Y-46986000D01*
X41967500Y-47026000D02*
X39397500Y-47026000D01*
X37437500Y-47026000D02*
X34867500Y-47026000D01*
X41945500Y-47066000D02*
X39397500Y-47066000D01*
X37437500Y-47066000D02*
X34889500Y-47066000D01*
X41922500Y-47106000D02*
X39397500Y-47106000D01*
X37437500Y-47106000D02*
X34912500Y-47106000D01*
X41899500Y-47146000D02*
X39397500Y-47146000D01*
X37437500Y-47146000D02*
X34935500Y-47146000D01*
X41875500Y-47186000D02*
X39397500Y-47186000D01*
X37437500Y-47186000D02*
X34959500Y-47186000D01*
X41851500Y-47226000D02*
X39397500Y-47226000D01*
X37437500Y-47226000D02*
X34983500Y-47226000D01*
X41825500Y-47266000D02*
X39397500Y-47266000D01*
X37437500Y-47266000D02*
X35009500Y-47266000D01*
X41800500Y-47306000D02*
X35034500Y-47306000D01*
X41773500Y-47346000D02*
X35061500Y-47346000D01*
X41746500Y-47386000D02*
X35088500Y-47386000D01*
X41718500Y-47426000D02*
X35116500Y-47426000D01*
X41689500Y-47466000D02*
X35145500Y-47466000D01*
X41660500Y-47506000D02*
X35174500Y-47506000D01*
X41630500Y-47546000D02*
X35204500Y-47546000D01*
X41599500Y-47586000D02*
X35235500Y-47586000D01*
X41567500Y-47626000D02*
X35267500Y-47626000D01*
X41535500Y-47666000D02*
X35299500Y-47666000D01*
X41501500Y-47706000D02*
X35333500Y-47706000D01*
X41467500Y-47746000D02*
X35367500Y-47746000D01*
X41432500Y-47786000D02*
X35402500Y-47786000D01*
X41396500Y-47826000D02*
X35438500Y-47826000D01*
X41359500Y-47866000D02*
X35475500Y-47866000D01*
X41321500Y-47906000D02*
X35513500Y-47906000D01*
X41282500Y-47946000D02*
X35552500Y-47946000D01*
X41241500Y-47986000D02*
X35593500Y-47986000D01*
X41200500Y-48026000D02*
X35634500Y-48026000D01*
X41157500Y-48066000D02*
X35677500Y-48066000D01*
X41114500Y-48106000D02*
X35720500Y-48106000D01*
X41069500Y-48146000D02*
X35765500Y-48146000D01*
X41022500Y-48186000D02*
X35812500Y-48186000D01*
X40974500Y-48226000D02*
X35860500Y-48226000D01*
X40925500Y-48266000D02*
X35909500Y-48266000D01*
X40874500Y-48306000D02*
X35960500Y-48306000D01*
X40821500Y-48346000D02*
X36013500Y-48346000D01*
X40766500Y-48386000D02*
X36068500Y-48386000D01*
X40710500Y-48426000D02*
X36124500Y-48426000D01*
X40651500Y-48466000D02*
X36183500Y-48466000D01*
X40590500Y-48506000D02*
X36244500Y-48506000D01*
X40526500Y-48546000D02*
X36308500Y-48546000D01*
X40460500Y-48586000D02*
X36374500Y-48586000D01*
X40391500Y-48626000D02*
X36443500Y-48626000D01*
X40319500Y-48666000D02*
X36515500Y-48666000D01*
X40243500Y-48706000D02*
X36591500Y-48706000D01*
X40162500Y-48746000D02*
X36672500Y-48746000D01*
X40077500Y-48786000D02*
X36757500Y-48786000D01*
X39987500Y-48826000D02*
X36847500Y-48826000D01*
X39890500Y-48866000D02*
X36944500Y-48866000D01*
X39786500Y-48906000D02*
X37048500Y-48906000D01*
X39671500Y-48946000D02*
X37163500Y-48946000D01*
X39544500Y-48986000D02*
X37290500Y-48986000D01*
X39400500Y-49026000D02*
X37434500Y-49026000D01*
X39231500Y-49066000D02*
X37603500Y-49066000D01*
X39015500Y-49106000D02*
X37819500Y-49106000D01*
X38663500Y-49146000D02*
X38171500Y-49146000D01*
X38417500Y-41615000D02*
X38417500Y-42815000D01*
X39067500Y-42215000D02*
X37767500Y-42215000D01*
X72557000Y-61678000D02*
X72557000Y-68798000D01*
X69937000Y-61678000D02*
X69937000Y-68798000D01*
X72557000Y-61678000D02*
X69937000Y-61678000D01*
X72557000Y-68798000D02*
X69937000Y-68798000D01*
X60789000Y-79843000D02*
X67909000Y-79843000D01*
X60789000Y-82463000D02*
X67909000Y-82463000D01*
X60789000Y-79843000D02*
X60789000Y-82463000D01*
X67909000Y-79843000D02*
X67909000Y-82463000D01*
X60662000Y-33678500D02*
X67782000Y-33678500D01*
X60662000Y-36298500D02*
X67782000Y-36298500D01*
X60662000Y-33678500D02*
X60662000Y-36298500D01*
X67782000Y-33678500D02*
X67782000Y-36298500D01*
X99224000Y-45329000D02*
X93274000Y-45329000D01*
X93274000Y-45329000D02*
X93274000Y-52929000D01*
X93274000Y-52929000D02*
X99224000Y-52929000D01*
X99224000Y-52929000D02*
X99224000Y-45329000D01*
X99224000Y-48629000D02*
X98474000Y-48629000D01*
X98474000Y-48629000D02*
X98474000Y-49629000D01*
X98474000Y-49629000D02*
X99224000Y-49629000D01*
X99224000Y-49629000D02*
X99224000Y-48629000D01*
X99224000Y-45329000D02*
X98474000Y-45329000D01*
X98474000Y-45329000D02*
X98474000Y-47129000D01*
X98474000Y-47129000D02*
X99224000Y-47129000D01*
X99224000Y-47129000D02*
X99224000Y-45329000D01*
X99224000Y-51129000D02*
X98474000Y-51129000D01*
X98474000Y-51129000D02*
X98474000Y-52929000D01*
X98474000Y-52929000D02*
X99224000Y-52929000D01*
X99224000Y-52929000D02*
X99224000Y-51129000D01*
X96974000Y-45329000D02*
X96974000Y-46079000D01*
X96974000Y-46079000D02*
X94024000Y-46079000D01*
X94024000Y-46079000D02*
X94024000Y-49129000D01*
X96974000Y-52929000D02*
X96974000Y-52179000D01*
X96974000Y-52179000D02*
X94024000Y-52179000D01*
X94024000Y-52179000D02*
X94024000Y-49129000D01*
X99524000Y-47529000D02*
X99524000Y-45029000D01*
X99524000Y-45029000D02*
X97024000Y-45029000D01*
X98943000Y-79666000D02*
X98943000Y-73716000D01*
X98943000Y-73716000D02*
X91343000Y-73716000D01*
X91343000Y-73716000D02*
X91343000Y-79666000D01*
X91343000Y-79666000D02*
X98943000Y-79666000D01*
X95643000Y-79666000D02*
X95643000Y-78916000D01*
X95643000Y-78916000D02*
X94643000Y-78916000D01*
X94643000Y-78916000D02*
X94643000Y-79666000D01*
X94643000Y-79666000D02*
X95643000Y-79666000D01*
X98943000Y-79666000D02*
X98943000Y-78916000D01*
X98943000Y-78916000D02*
X97143000Y-78916000D01*
X97143000Y-78916000D02*
X97143000Y-79666000D01*
X97143000Y-79666000D02*
X98943000Y-79666000D01*
X93143000Y-79666000D02*
X93143000Y-78916000D01*
X93143000Y-78916000D02*
X91343000Y-78916000D01*
X91343000Y-78916000D02*
X91343000Y-79666000D01*
X91343000Y-79666000D02*
X93143000Y-79666000D01*
X98943000Y-77416000D02*
X98193000Y-77416000D01*
X98193000Y-77416000D02*
X98193000Y-74466000D01*
X98193000Y-74466000D02*
X95143000Y-74466000D01*
X91343000Y-77416000D02*
X92093000Y-77416000D01*
X92093000Y-77416000D02*
X92093000Y-74466000D01*
X92093000Y-74466000D02*
X95143000Y-74466000D01*
X96743000Y-79966000D02*
X99243000Y-79966000D01*
X99243000Y-79966000D02*
X99243000Y-77466000D01*
X106436000Y-32549000D02*
X106436000Y-26599000D01*
X106436000Y-26599000D02*
X78836000Y-26599000D01*
X78836000Y-26599000D02*
X78836000Y-32549000D01*
X78836000Y-32549000D02*
X106436000Y-32549000D01*
X103136000Y-32549000D02*
X103136000Y-31799000D01*
X103136000Y-31799000D02*
X82136000Y-31799000D01*
X82136000Y-31799000D02*
X82136000Y-32549000D01*
X82136000Y-32549000D02*
X103136000Y-32549000D01*
X106436000Y-32549000D02*
X106436000Y-31799000D01*
X106436000Y-31799000D02*
X104636000Y-31799000D01*
X104636000Y-31799000D02*
X104636000Y-32549000D01*
X104636000Y-32549000D02*
X106436000Y-32549000D01*
X80636000Y-32549000D02*
X80636000Y-31799000D01*
X80636000Y-31799000D02*
X78836000Y-31799000D01*
X78836000Y-31799000D02*
X78836000Y-32549000D01*
X78836000Y-32549000D02*
X80636000Y-32549000D01*
X106436000Y-30299000D02*
X105686000Y-30299000D01*
X105686000Y-30299000D02*
X105686000Y-27349000D01*
X105686000Y-27349000D02*
X92636000Y-27349000D01*
X78836000Y-30299000D02*
X79586000Y-30299000D01*
X79586000Y-30299000D02*
X79586000Y-27349000D01*
X79586000Y-27349000D02*
X92636000Y-27349000D01*
X104236000Y-32849000D02*
X106736000Y-32849000D01*
X106736000Y-32849000D02*
X106736000Y-30349000D01*
X34851500Y-26633000D02*
X34851500Y-32583000D01*
X34851500Y-32583000D02*
X47451500Y-32583000D01*
X47451500Y-32583000D02*
X47451500Y-26633000D01*
X47451500Y-26633000D02*
X34851500Y-26633000D01*
X38151500Y-26633000D02*
X38151500Y-27383000D01*
X38151500Y-27383000D02*
X44151500Y-27383000D01*
X44151500Y-27383000D02*
X44151500Y-26633000D01*
X44151500Y-26633000D02*
X38151500Y-26633000D01*
X34851500Y-26633000D02*
X34851500Y-27383000D01*
X34851500Y-27383000D02*
X36651500Y-27383000D01*
X36651500Y-27383000D02*
X36651500Y-26633000D01*
X36651500Y-26633000D02*
X34851500Y-26633000D01*
X45651500Y-26633000D02*
X45651500Y-27383000D01*
X45651500Y-27383000D02*
X47451500Y-27383000D01*
X47451500Y-27383000D02*
X47451500Y-26633000D01*
X47451500Y-26633000D02*
X45651500Y-26633000D01*
X34851500Y-28883000D02*
X35601500Y-28883000D01*
X35601500Y-28883000D02*
X35601500Y-31833000D01*
X35601500Y-31833000D02*
X41151500Y-31833000D01*
X47451500Y-28883000D02*
X46701500Y-28883000D01*
X46701500Y-28883000D02*
X46701500Y-31833000D01*
X46701500Y-31833000D02*
X41151500Y-31833000D01*
X37051500Y-26333000D02*
X34551500Y-26333000D01*
X34551500Y-26333000D02*
X34551500Y-28833000D01*
D12*
X62314000Y-39144500D02*
X62314000Y-39194500D01*
X66464000Y-39144500D02*
X66464000Y-39289500D01*
X66464000Y-44294500D02*
X66464000Y-44149500D01*
X62314000Y-44294500D02*
X62314000Y-44149500D01*
X62314000Y-39144500D02*
X66464000Y-39144500D01*
X62314000Y-44294500D02*
X66464000Y-44294500D01*
X62314000Y-39194500D02*
X60914000Y-39194500D01*
D11*
X28074000Y-66024000D02*
X33394000Y-66024000D01*
X33394000Y-66024000D02*
X33394000Y-56404000D01*
X33394000Y-56404000D02*
X28074000Y-56404000D01*
X28074000Y-56404000D02*
X28074000Y-66024000D01*
X30734000Y-67054000D02*
X30734000Y-66024000D01*
X30734000Y-55374000D02*
X30734000Y-56404000D01*
X28074000Y-64539000D02*
X33394000Y-64539000D01*
X58987204Y-49250309D02*
G75*
G02X61296500Y-49210000I1154296J40309D01*
G01*
X61295552Y-49189879D02*
G75*
G02X59901500Y-50339000I-1154052J-20121D01*
G01*
X56521500Y-57530000D02*
X56521500Y-47880000D01*
X61472500Y-57530000D02*
X61472500Y-47880000D01*
X56521500Y-57530000D02*
X61472500Y-57530000D01*
X56521500Y-47880000D02*
X61472500Y-47880000D01*
X59407500Y-48334000D02*
X61017500Y-49945000D01*
X59266500Y-48474000D02*
X60876500Y-50086000D01*
X70706000Y-47923000D02*
X65986000Y-47923000D01*
X70706000Y-45803000D02*
X65986000Y-45803000D01*
X70706000Y-47923000D02*
X70706000Y-45803000D01*
X65986000Y-47923000D02*
X65986000Y-45803000D01*
X29247000Y-88890000D02*
X23297000Y-88890000D01*
X23297000Y-88890000D02*
X23297000Y-98990000D01*
X23297000Y-98990000D02*
X29247000Y-98990000D01*
X29247000Y-98990000D02*
X29247000Y-88890000D01*
X29247000Y-92190000D02*
X28497000Y-92190000D01*
X28497000Y-92190000D02*
X28497000Y-95690000D01*
X28497000Y-95690000D02*
X29247000Y-95690000D01*
X29247000Y-95690000D02*
X29247000Y-92190000D01*
X29247000Y-88890000D02*
X28497000Y-88890000D01*
X28497000Y-88890000D02*
X28497000Y-90690000D01*
X28497000Y-90690000D02*
X29247000Y-90690000D01*
X29247000Y-90690000D02*
X29247000Y-88890000D01*
X29247000Y-97190000D02*
X28497000Y-97190000D01*
X28497000Y-97190000D02*
X28497000Y-98990000D01*
X28497000Y-98990000D02*
X29247000Y-98990000D01*
X29247000Y-98990000D02*
X29247000Y-97190000D01*
X26997000Y-88890000D02*
X26997000Y-89640000D01*
X26997000Y-89640000D02*
X24047000Y-89640000D01*
X24047000Y-89640000D02*
X24047000Y-93940000D01*
X26997000Y-98990000D02*
X26997000Y-98240000D01*
X26997000Y-98240000D02*
X24047000Y-98240000D01*
X24047000Y-98240000D02*
X24047000Y-93940000D01*
X29547000Y-91090000D02*
X29547000Y-88590000D01*
X29547000Y-88590000D02*
X27047000Y-88590000D01*
X43253500Y-91350000D02*
X43253500Y-85400000D01*
X43253500Y-85400000D02*
X35653500Y-85400000D01*
X35653500Y-85400000D02*
X35653500Y-91350000D01*
X35653500Y-91350000D02*
X43253500Y-91350000D01*
X39953500Y-91350000D02*
X39953500Y-90600000D01*
X39953500Y-90600000D02*
X38953500Y-90600000D01*
X38953500Y-90600000D02*
X38953500Y-91350000D01*
X38953500Y-91350000D02*
X39953500Y-91350000D01*
X43253500Y-91350000D02*
X43253500Y-90600000D01*
X43253500Y-90600000D02*
X41453500Y-90600000D01*
X41453500Y-90600000D02*
X41453500Y-91350000D01*
X41453500Y-91350000D02*
X43253500Y-91350000D01*
X37453500Y-91350000D02*
X37453500Y-90600000D01*
X37453500Y-90600000D02*
X35653500Y-90600000D01*
X35653500Y-90600000D02*
X35653500Y-91350000D01*
X35653500Y-91350000D02*
X37453500Y-91350000D01*
X43253500Y-89100000D02*
X42503500Y-89100000D01*
X42503500Y-89100000D02*
X42503500Y-86150000D01*
X42503500Y-86150000D02*
X39453500Y-86150000D01*
X35653500Y-89100000D02*
X36403500Y-89100000D01*
X36403500Y-89100000D02*
X36403500Y-86150000D01*
X36403500Y-86150000D02*
X39453500Y-86150000D01*
X41053500Y-91650000D02*
X43553500Y-91650000D01*
X43553500Y-91650000D02*
X43553500Y-89150000D01*
X119253000Y-25400000D02*
G75*
G03X119253000Y-25400000I-2286000J0D01*
G01*
X119253000Y-105156000D02*
G75*
G03X119253000Y-105156000I-2286000J0D01*
G01*
X26797000Y-105156000D02*
G75*
G03X26797000Y-105156000I-2286000J0D01*
G01*
X26797000Y-25400000D02*
G75*
G03X26797000Y-25400000I-2286000J0D01*
G01*
D12*
X101123077Y-42984729D02*
X101884982Y-42984729D01*
X102361172Y-42984729D02*
X103123077Y-42984729D01*
X103599267Y-42984729D02*
X104361172Y-42984729D01*
X104837362Y-42984729D02*
X105599267Y-42984729D01*
X106075457Y-42984729D02*
X106837362Y-42984729D01*
X107599267Y-42365681D02*
X107599267Y-43079967D01*
X107551647Y-43222824D01*
X107456409Y-43318062D01*
X107313552Y-43365681D01*
X107218314Y-43365681D01*
X108075457Y-43365681D02*
X108075457Y-42365681D01*
X108456410Y-42365681D01*
X108551648Y-42413300D01*
X108599267Y-42460919D01*
X108646886Y-42556157D01*
X108646886Y-42699014D01*
X108599267Y-42794252D01*
X108551648Y-42841871D01*
X108456410Y-42889490D01*
X108075457Y-42889490D01*
X109599267Y-43365681D02*
X109027838Y-43365681D01*
X109313552Y-43365681D02*
X109313552Y-42365681D01*
X109218314Y-42508538D01*
X109123076Y-42603776D01*
X109027838Y-42651395D01*
X110027838Y-42984729D02*
X110789743Y-42984729D01*
X111265933Y-42984729D02*
X112027838Y-42984729D01*
X112504028Y-42984729D02*
X113265933Y-42984729D01*
X113742123Y-42984729D02*
X114504028Y-42984729D01*
X114980218Y-42984729D02*
X115742123Y-42984729D01*
X54570334Y-71540643D02*
X54522715Y-71588262D01*
X54379858Y-71635881D01*
X54284620Y-71635881D01*
X54141762Y-71588262D01*
X54046524Y-71493024D01*
X53998905Y-71397786D01*
X53951286Y-71207310D01*
X53951286Y-71064452D01*
X53998905Y-70873976D01*
X54046524Y-70778738D01*
X54141762Y-70683500D01*
X54284620Y-70635881D01*
X54379858Y-70635881D01*
X54522715Y-70683500D01*
X54570334Y-70731119D01*
X54951286Y-70731119D02*
X54998905Y-70683500D01*
X55094143Y-70635881D01*
X55332239Y-70635881D01*
X55427477Y-70683500D01*
X55475096Y-70731119D01*
X55522715Y-70826357D01*
X55522715Y-70921595D01*
X55475096Y-71064452D01*
X54903667Y-71635881D01*
X55522715Y-71635881D01*
X33972643Y-75708166D02*
X34020262Y-75755785D01*
X34067881Y-75898642D01*
X34067881Y-75993880D01*
X34020262Y-76136738D01*
X33925024Y-76231976D01*
X33829786Y-76279595D01*
X33639310Y-76327214D01*
X33496452Y-76327214D01*
X33305976Y-76279595D01*
X33210738Y-76231976D01*
X33115500Y-76136738D01*
X33067881Y-75993880D01*
X33067881Y-75898642D01*
X33115500Y-75755785D01*
X33163119Y-75708166D01*
X33067881Y-75374833D02*
X33067881Y-74755785D01*
X33448833Y-75089119D01*
X33448833Y-74946261D01*
X33496452Y-74851023D01*
X33544071Y-74803404D01*
X33639310Y-74755785D01*
X33877405Y-74755785D01*
X33972643Y-74803404D01*
X34020262Y-74851023D01*
X34067881Y-74946261D01*
X34067881Y-75231976D01*
X34020262Y-75327214D01*
X33972643Y-75374833D01*
X80645334Y-78355143D02*
X80597715Y-78402762D01*
X80454858Y-78450381D01*
X80359620Y-78450381D01*
X80216762Y-78402762D01*
X80121524Y-78307524D01*
X80073905Y-78212286D01*
X80026286Y-78021810D01*
X80026286Y-77878952D01*
X80073905Y-77688476D01*
X80121524Y-77593238D01*
X80216762Y-77498000D01*
X80359620Y-77450381D01*
X80454858Y-77450381D01*
X80597715Y-77498000D01*
X80645334Y-77545619D01*
X81502477Y-77783714D02*
X81502477Y-78450381D01*
X81264381Y-77402762D02*
X81026286Y-78117048D01*
X81645334Y-78117048D01*
X34059834Y-82843643D02*
X34012215Y-82891262D01*
X33869358Y-82938881D01*
X33774120Y-82938881D01*
X33631262Y-82891262D01*
X33536024Y-82796024D01*
X33488405Y-82700786D01*
X33440786Y-82510310D01*
X33440786Y-82367452D01*
X33488405Y-82176976D01*
X33536024Y-82081738D01*
X33631262Y-81986500D01*
X33774120Y-81938881D01*
X33869358Y-81938881D01*
X34012215Y-81986500D01*
X34059834Y-82034119D01*
X34964596Y-81938881D02*
X34488405Y-81938881D01*
X34440786Y-82415071D01*
X34488405Y-82367452D01*
X34583643Y-82319833D01*
X34821739Y-82319833D01*
X34916977Y-82367452D01*
X34964596Y-82415071D01*
X35012215Y-82510310D01*
X35012215Y-82748405D01*
X34964596Y-82843643D01*
X34916977Y-82891262D01*
X34821739Y-82938881D01*
X34583643Y-82938881D01*
X34488405Y-82891262D01*
X34440786Y-82843643D01*
X71731143Y-82081666D02*
X71778762Y-82129285D01*
X71826381Y-82272142D01*
X71826381Y-82367380D01*
X71778762Y-82510238D01*
X71683524Y-82605476D01*
X71588286Y-82653095D01*
X71397810Y-82700714D01*
X71254952Y-82700714D01*
X71064476Y-82653095D01*
X70969238Y-82605476D01*
X70874000Y-82510238D01*
X70826381Y-82367380D01*
X70826381Y-82272142D01*
X70874000Y-82129285D01*
X70921619Y-82081666D01*
X70826381Y-81224523D02*
X70826381Y-81415000D01*
X70874000Y-81510238D01*
X70921619Y-81557857D01*
X71064476Y-81653095D01*
X71254952Y-81700714D01*
X71635905Y-81700714D01*
X71731143Y-81653095D01*
X71778762Y-81605476D01*
X71826381Y-81510238D01*
X71826381Y-81319761D01*
X71778762Y-81224523D01*
X71731143Y-81176904D01*
X71635905Y-81129285D01*
X71397810Y-81129285D01*
X71302571Y-81176904D01*
X71254952Y-81224523D01*
X71207333Y-81319761D01*
X71207333Y-81510238D01*
X71254952Y-81605476D01*
X71302571Y-81653095D01*
X71397810Y-81700714D01*
X40473334Y-56300643D02*
X40425715Y-56348262D01*
X40282858Y-56395881D01*
X40187620Y-56395881D01*
X40044762Y-56348262D01*
X39949524Y-56253024D01*
X39901905Y-56157786D01*
X39854286Y-55967310D01*
X39854286Y-55824452D01*
X39901905Y-55633976D01*
X39949524Y-55538738D01*
X40044762Y-55443500D01*
X40187620Y-55395881D01*
X40282858Y-55395881D01*
X40425715Y-55443500D01*
X40473334Y-55491119D01*
X41044762Y-55824452D02*
X40949524Y-55776833D01*
X40901905Y-55729214D01*
X40854286Y-55633976D01*
X40854286Y-55586357D01*
X40901905Y-55491119D01*
X40949524Y-55443500D01*
X41044762Y-55395881D01*
X41235239Y-55395881D01*
X41330477Y-55443500D01*
X41378096Y-55491119D01*
X41425715Y-55586357D01*
X41425715Y-55633976D01*
X41378096Y-55729214D01*
X41330477Y-55776833D01*
X41235239Y-55824452D01*
X41044762Y-55824452D01*
X40949524Y-55872071D01*
X40901905Y-55919690D01*
X40854286Y-56014929D01*
X40854286Y-56205405D01*
X40901905Y-56300643D01*
X40949524Y-56348262D01*
X41044762Y-56395881D01*
X41235239Y-56395881D01*
X41330477Y-56348262D01*
X41378096Y-56300643D01*
X41425715Y-56205405D01*
X41425715Y-56014929D01*
X41378096Y-55919690D01*
X41330477Y-55872071D01*
X41235239Y-55824452D01*
X70254834Y-99099643D02*
X70207215Y-99147262D01*
X70064358Y-99194881D01*
X69969120Y-99194881D01*
X69826262Y-99147262D01*
X69731024Y-99052024D01*
X69683405Y-98956786D01*
X69635786Y-98766310D01*
X69635786Y-98623452D01*
X69683405Y-98432976D01*
X69731024Y-98337738D01*
X69826262Y-98242500D01*
X69969120Y-98194881D01*
X70064358Y-98194881D01*
X70207215Y-98242500D01*
X70254834Y-98290119D01*
X70731024Y-99194881D02*
X70921500Y-99194881D01*
X71016739Y-99147262D01*
X71064358Y-99099643D01*
X71159596Y-98956786D01*
X71207215Y-98766310D01*
X71207215Y-98385357D01*
X71159596Y-98290119D01*
X71111977Y-98242500D01*
X71016739Y-98194881D01*
X70826262Y-98194881D01*
X70731024Y-98242500D01*
X70683405Y-98290119D01*
X70635786Y-98385357D01*
X70635786Y-98623452D01*
X70683405Y-98718690D01*
X70731024Y-98766310D01*
X70826262Y-98813929D01*
X71016739Y-98813929D01*
X71111977Y-98766310D01*
X71159596Y-98718690D01*
X71207215Y-98623452D01*
X56761143Y-63730143D02*
X56713524Y-63777762D01*
X56570667Y-63825381D01*
X56475429Y-63825381D01*
X56332571Y-63777762D01*
X56237333Y-63682524D01*
X56189714Y-63587286D01*
X56142095Y-63396810D01*
X56142095Y-63253952D01*
X56189714Y-63063476D01*
X56237333Y-62968238D01*
X56332571Y-62873000D01*
X56475429Y-62825381D01*
X56570667Y-62825381D01*
X56713524Y-62873000D01*
X56761143Y-62920619D01*
X57713524Y-63825381D02*
X57142095Y-63825381D01*
X57427809Y-63825381D02*
X57427809Y-62825381D01*
X57332571Y-62968238D01*
X57237333Y-63063476D01*
X57142095Y-63111095D01*
X58570667Y-63158714D02*
X58570667Y-63825381D01*
X58332571Y-62777762D02*
X58094476Y-63492048D01*
X58713524Y-63492048D01*
X35361643Y-54840143D02*
X35314024Y-54887762D01*
X35171167Y-54935381D01*
X35075929Y-54935381D01*
X34933071Y-54887762D01*
X34837833Y-54792524D01*
X34790214Y-54697286D01*
X34742595Y-54506810D01*
X34742595Y-54363952D01*
X34790214Y-54173476D01*
X34837833Y-54078238D01*
X34933071Y-53983000D01*
X35075929Y-53935381D01*
X35171167Y-53935381D01*
X35314024Y-53983000D01*
X35361643Y-54030619D01*
X36314024Y-54935381D02*
X35742595Y-54935381D01*
X36028309Y-54935381D02*
X36028309Y-53935381D01*
X35933071Y-54078238D01*
X35837833Y-54173476D01*
X35742595Y-54221095D01*
X37218786Y-53935381D02*
X36742595Y-53935381D01*
X36694976Y-54411571D01*
X36742595Y-54363952D01*
X36837833Y-54316333D01*
X37075929Y-54316333D01*
X37171167Y-54363952D01*
X37218786Y-54411571D01*
X37266405Y-54506810D01*
X37266405Y-54744905D01*
X37218786Y-54840143D01*
X37171167Y-54887762D01*
X37075929Y-54935381D01*
X36837833Y-54935381D01*
X36742595Y-54887762D01*
X36694976Y-54840143D01*
X67794143Y-59062857D02*
X67841762Y-59110476D01*
X67889381Y-59253333D01*
X67889381Y-59348571D01*
X67841762Y-59491429D01*
X67746524Y-59586667D01*
X67651286Y-59634286D01*
X67460810Y-59681905D01*
X67317952Y-59681905D01*
X67127476Y-59634286D01*
X67032238Y-59586667D01*
X66937000Y-59491429D01*
X66889381Y-59348571D01*
X66889381Y-59253333D01*
X66937000Y-59110476D01*
X66984619Y-59062857D01*
X67889381Y-58110476D02*
X67889381Y-58681905D01*
X67889381Y-58396191D02*
X66889381Y-58396191D01*
X67032238Y-58491429D01*
X67127476Y-58586667D01*
X67175095Y-58681905D01*
X67317952Y-57539048D02*
X67270333Y-57634286D01*
X67222714Y-57681905D01*
X67127476Y-57729524D01*
X67079857Y-57729524D01*
X66984619Y-57681905D01*
X66937000Y-57634286D01*
X66889381Y-57539048D01*
X66889381Y-57348571D01*
X66937000Y-57253333D01*
X66984619Y-57205714D01*
X67079857Y-57158095D01*
X67127476Y-57158095D01*
X67222714Y-57205714D01*
X67270333Y-57253333D01*
X67317952Y-57348571D01*
X67317952Y-57539048D01*
X67365571Y-57634286D01*
X67413190Y-57681905D01*
X67508429Y-57729524D01*
X67698905Y-57729524D01*
X67794143Y-57681905D01*
X67841762Y-57634286D01*
X67889381Y-57539048D01*
X67889381Y-57348571D01*
X67841762Y-57253333D01*
X67794143Y-57205714D01*
X67698905Y-57158095D01*
X67508429Y-57158095D01*
X67413190Y-57205714D01*
X67365571Y-57253333D01*
X67317952Y-57348571D01*
X35440881Y-93384595D02*
X34440881Y-93384595D01*
X34440881Y-93146500D01*
X34488500Y-93003642D01*
X34583738Y-92908404D01*
X34678976Y-92860785D01*
X34869452Y-92813166D01*
X35012310Y-92813166D01*
X35202786Y-92860785D01*
X35298024Y-92908404D01*
X35393262Y-93003642D01*
X35440881Y-93146500D01*
X35440881Y-93384595D01*
X35440881Y-91860785D02*
X35440881Y-92432214D01*
X35440881Y-92146500D02*
X34440881Y-92146500D01*
X34583738Y-92241738D01*
X34678976Y-92336976D01*
X34726595Y-92432214D01*
X45934381Y-94567333D02*
X46648667Y-94567333D01*
X46791524Y-94614953D01*
X46886762Y-94710191D01*
X46934381Y-94853048D01*
X46934381Y-94948286D01*
X46934381Y-93567333D02*
X46934381Y-94138762D01*
X46934381Y-93853048D02*
X45934381Y-93853048D01*
X46077238Y-93948286D01*
X46172476Y-94043524D01*
X46220095Y-94138762D01*
X97393167Y-41362381D02*
X97393167Y-42076667D01*
X97345547Y-42219524D01*
X97250309Y-42314762D01*
X97107452Y-42362381D01*
X97012214Y-42362381D01*
X97774119Y-41362381D02*
X98393167Y-41362381D01*
X98059833Y-41743333D01*
X98202691Y-41743333D01*
X98297929Y-41790952D01*
X98345548Y-41838571D01*
X98393167Y-41933810D01*
X98393167Y-42171905D01*
X98345548Y-42267143D01*
X98297929Y-42314762D01*
X98202691Y-42362381D01*
X97916976Y-42362381D01*
X97821738Y-42314762D01*
X97774119Y-42267143D01*
X72877881Y-67627405D02*
X73687405Y-67627405D01*
X73782643Y-67579786D01*
X73830262Y-67532167D01*
X73877881Y-67436929D01*
X73877881Y-67246452D01*
X73830262Y-67151214D01*
X73782643Y-67103595D01*
X73687405Y-67055976D01*
X72877881Y-67055976D01*
X73877881Y-66055976D02*
X73877881Y-66627405D01*
X73877881Y-66341691D02*
X72877881Y-66341691D01*
X73020738Y-66436929D01*
X73115976Y-66532167D01*
X73163595Y-66627405D01*
X88625881Y-67627405D02*
X89435405Y-67627405D01*
X89530643Y-67579786D01*
X89578262Y-67532167D01*
X89625881Y-67436929D01*
X89625881Y-67246452D01*
X89578262Y-67151214D01*
X89530643Y-67103595D01*
X89435405Y-67055976D01*
X88625881Y-67055976D01*
X88721119Y-66627405D02*
X88673500Y-66579786D01*
X88625881Y-66484548D01*
X88625881Y-66246452D01*
X88673500Y-66151214D01*
X88721119Y-66103595D01*
X88816357Y-66055976D01*
X88911595Y-66055976D01*
X89054452Y-66103595D01*
X89625881Y-66675024D01*
X89625881Y-66055976D01*
X57916381Y-81660905D02*
X58725905Y-81660905D01*
X58821143Y-81613286D01*
X58868762Y-81565667D01*
X58916381Y-81470429D01*
X58916381Y-81279952D01*
X58868762Y-81184714D01*
X58821143Y-81137095D01*
X58725905Y-81089476D01*
X57916381Y-81089476D01*
X57916381Y-80708524D02*
X57916381Y-80089476D01*
X58297333Y-80422810D01*
X58297333Y-80279952D01*
X58344952Y-80184714D01*
X58392571Y-80137095D01*
X58487810Y-80089476D01*
X58725905Y-80089476D01*
X58821143Y-80137095D01*
X58868762Y-80184714D01*
X58916381Y-80279952D01*
X58916381Y-80565667D01*
X58868762Y-80660905D01*
X58821143Y-80708524D01*
X72814381Y-88010905D02*
X73623905Y-88010905D01*
X73719143Y-87963286D01*
X73766762Y-87915667D01*
X73814381Y-87820429D01*
X73814381Y-87629952D01*
X73766762Y-87534714D01*
X73719143Y-87487095D01*
X73623905Y-87439476D01*
X72814381Y-87439476D01*
X72814381Y-86487095D02*
X72814381Y-86963286D01*
X73290571Y-87010905D01*
X73242952Y-86963286D01*
X73195333Y-86868048D01*
X73195333Y-86629952D01*
X73242952Y-86534714D01*
X73290571Y-86487095D01*
X73385810Y-86439476D01*
X73623905Y-86439476D01*
X73719143Y-86487095D01*
X73766762Y-86534714D01*
X73814381Y-86629952D01*
X73814381Y-86868048D01*
X73766762Y-86963286D01*
X73719143Y-87010905D01*
X88562381Y-87883905D02*
X89371905Y-87883905D01*
X89467143Y-87836286D01*
X89514762Y-87788667D01*
X89562381Y-87693429D01*
X89562381Y-87502952D01*
X89514762Y-87407714D01*
X89467143Y-87360095D01*
X89371905Y-87312476D01*
X88562381Y-87312476D01*
X88562381Y-86407714D02*
X88562381Y-86598191D01*
X88610000Y-86693429D01*
X88657619Y-86741048D01*
X88800476Y-86836286D01*
X88990952Y-86883905D01*
X89371905Y-86883905D01*
X89467143Y-86836286D01*
X89514762Y-86788667D01*
X89562381Y-86693429D01*
X89562381Y-86502952D01*
X89514762Y-86407714D01*
X89467143Y-86360095D01*
X89371905Y-86312476D01*
X89133810Y-86312476D01*
X89038571Y-86360095D01*
X88990952Y-86407714D01*
X88943333Y-86502952D01*
X88943333Y-86693429D01*
X88990952Y-86788667D01*
X89038571Y-86836286D01*
X89133810Y-86883905D01*
X84328095Y-36111381D02*
X84328095Y-36920905D01*
X84375714Y-37016143D01*
X84423333Y-37063762D01*
X84518571Y-37111381D01*
X84709048Y-37111381D01*
X84804286Y-37063762D01*
X84851905Y-37016143D01*
X84899524Y-36920905D01*
X84899524Y-36111381D01*
X85423333Y-37111381D02*
X85613809Y-37111381D01*
X85709048Y-37063762D01*
X85756667Y-37016143D01*
X85851905Y-36873286D01*
X85899524Y-36682810D01*
X85899524Y-36301857D01*
X85851905Y-36206619D01*
X85804286Y-36159000D01*
X85709048Y-36111381D01*
X85518571Y-36111381D01*
X85423333Y-36159000D01*
X85375714Y-36206619D01*
X85328095Y-36301857D01*
X85328095Y-36539952D01*
X85375714Y-36635190D01*
X85423333Y-36682810D01*
X85518571Y-36730429D01*
X85709048Y-36730429D01*
X85804286Y-36682810D01*
X85851905Y-36635190D01*
X85899524Y-36539952D01*
X43540881Y-55086095D02*
X44350405Y-55086095D01*
X44445643Y-55038476D01*
X44493262Y-54990857D01*
X44540881Y-54895619D01*
X44540881Y-54705142D01*
X44493262Y-54609904D01*
X44445643Y-54562285D01*
X44350405Y-54514666D01*
X43540881Y-54514666D01*
X44540881Y-53514666D02*
X44540881Y-54086095D01*
X44540881Y-53800381D02*
X43540881Y-53800381D01*
X43683738Y-53895619D01*
X43778976Y-53990857D01*
X43826595Y-54086095D01*
X43540881Y-52895619D02*
X43540881Y-52800380D01*
X43588500Y-52705142D01*
X43636119Y-52657523D01*
X43731357Y-52609904D01*
X43921833Y-52562285D01*
X44159929Y-52562285D01*
X44350405Y-52609904D01*
X44445643Y-52657523D01*
X44493262Y-52705142D01*
X44540881Y-52800380D01*
X44540881Y-52895619D01*
X44493262Y-52990857D01*
X44445643Y-53038476D01*
X44350405Y-53086095D01*
X44159929Y-53133714D01*
X43921833Y-53133714D01*
X43731357Y-53086095D01*
X43636119Y-53038476D01*
X43588500Y-52990857D01*
X43540881Y-52895619D01*
X22185381Y-78612905D02*
X22994905Y-78612905D01*
X23090143Y-78565286D01*
X23137762Y-78517667D01*
X23185381Y-78422429D01*
X23185381Y-78231952D01*
X23137762Y-78136714D01*
X23090143Y-78089095D01*
X22994905Y-78041476D01*
X22185381Y-78041476D01*
X22518714Y-77136714D02*
X23185381Y-77136714D01*
X22137762Y-77374810D02*
X22852048Y-77612905D01*
X22852048Y-76993857D01*
X60134595Y-106449881D02*
X60134595Y-107259405D01*
X60182214Y-107354643D01*
X60229833Y-107402262D01*
X60325071Y-107449881D01*
X60515548Y-107449881D01*
X60610786Y-107402262D01*
X60658405Y-107354643D01*
X60706024Y-107259405D01*
X60706024Y-106449881D01*
X61086976Y-106449881D02*
X61753643Y-106449881D01*
X61325071Y-107449881D01*
X22058381Y-45719905D02*
X22867905Y-45719905D01*
X22963143Y-45672286D01*
X23010762Y-45624667D01*
X23058381Y-45529429D01*
X23058381Y-45338952D01*
X23010762Y-45243714D01*
X22963143Y-45196095D01*
X22867905Y-45148476D01*
X22058381Y-45148476D01*
X22486952Y-44529429D02*
X22439333Y-44624667D01*
X22391714Y-44672286D01*
X22296476Y-44719905D01*
X22248857Y-44719905D01*
X22153619Y-44672286D01*
X22106000Y-44624667D01*
X22058381Y-44529429D01*
X22058381Y-44338952D01*
X22106000Y-44243714D01*
X22153619Y-44196095D01*
X22248857Y-44148476D01*
X22296476Y-44148476D01*
X22391714Y-44196095D01*
X22439333Y-44243714D01*
X22486952Y-44338952D01*
X22486952Y-44529429D01*
X22534571Y-44624667D01*
X22582190Y-44672286D01*
X22677429Y-44719905D01*
X22867905Y-44719905D01*
X22963143Y-44672286D01*
X23010762Y-44624667D01*
X23058381Y-44529429D01*
X23058381Y-44338952D01*
X23010762Y-44243714D01*
X22963143Y-44196095D01*
X22867905Y-44148476D01*
X22677429Y-44148476D01*
X22582190Y-44196095D01*
X22534571Y-44243714D01*
X22486952Y-44338952D01*
X53887643Y-98020166D02*
X53935262Y-98067785D01*
X53982881Y-98210642D01*
X53982881Y-98305880D01*
X53935262Y-98448738D01*
X53840024Y-98543976D01*
X53744786Y-98591595D01*
X53554310Y-98639214D01*
X53411452Y-98639214D01*
X53220976Y-98591595D01*
X53125738Y-98543976D01*
X53030500Y-98448738D01*
X52982881Y-98305880D01*
X52982881Y-98210642D01*
X53030500Y-98067785D01*
X53078119Y-98020166D01*
X52982881Y-97686833D02*
X52982881Y-97020166D01*
X53982881Y-97448738D01*
X80169143Y-105660143D02*
X80121524Y-105707762D01*
X79978667Y-105755381D01*
X79883429Y-105755381D01*
X79740571Y-105707762D01*
X79645333Y-105612524D01*
X79597714Y-105517286D01*
X79550095Y-105326810D01*
X79550095Y-105183952D01*
X79597714Y-104993476D01*
X79645333Y-104898238D01*
X79740571Y-104803000D01*
X79883429Y-104755381D01*
X79978667Y-104755381D01*
X80121524Y-104803000D01*
X80169143Y-104850619D01*
X81121524Y-105755381D02*
X80550095Y-105755381D01*
X80835809Y-105755381D02*
X80835809Y-104755381D01*
X80740571Y-104898238D01*
X80645333Y-104993476D01*
X80550095Y-105041095D01*
X82073905Y-105755381D02*
X81502476Y-105755381D01*
X81788190Y-105755381D02*
X81788190Y-104755381D01*
X81692952Y-104898238D01*
X81597714Y-104993476D01*
X81502476Y-105041095D01*
X78101143Y-37432857D02*
X78148762Y-37480476D01*
X78196381Y-37623333D01*
X78196381Y-37718571D01*
X78148762Y-37861429D01*
X78053524Y-37956667D01*
X77958286Y-38004286D01*
X77767810Y-38051905D01*
X77624952Y-38051905D01*
X77434476Y-38004286D01*
X77339238Y-37956667D01*
X77244000Y-37861429D01*
X77196381Y-37718571D01*
X77196381Y-37623333D01*
X77244000Y-37480476D01*
X77291619Y-37432857D01*
X78196381Y-36480476D02*
X78196381Y-37051905D01*
X78196381Y-36766191D02*
X77196381Y-36766191D01*
X77339238Y-36861429D01*
X77434476Y-36956667D01*
X77482095Y-37051905D01*
X77196381Y-36147143D02*
X77196381Y-35480476D01*
X78196381Y-35909048D01*
X44592643Y-66408857D02*
X44640262Y-66456476D01*
X44687881Y-66599333D01*
X44687881Y-66694571D01*
X44640262Y-66837429D01*
X44545024Y-66932667D01*
X44449786Y-66980286D01*
X44259310Y-67027905D01*
X44116452Y-67027905D01*
X43925976Y-66980286D01*
X43830738Y-66932667D01*
X43735500Y-66837429D01*
X43687881Y-66694571D01*
X43687881Y-66599333D01*
X43735500Y-66456476D01*
X43783119Y-66408857D01*
X44687881Y-65456476D02*
X44687881Y-66027905D01*
X44687881Y-65742191D02*
X43687881Y-65742191D01*
X43830738Y-65837429D01*
X43925976Y-65932667D01*
X43973595Y-66027905D01*
X43687881Y-64837429D02*
X43687881Y-64742190D01*
X43735500Y-64646952D01*
X43783119Y-64599333D01*
X43878357Y-64551714D01*
X44068833Y-64504095D01*
X44306929Y-64504095D01*
X44497405Y-64551714D01*
X44592643Y-64599333D01*
X44640262Y-64646952D01*
X44687881Y-64742190D01*
X44687881Y-64837429D01*
X44640262Y-64932667D01*
X44592643Y-64980286D01*
X44497405Y-65027905D01*
X44306929Y-65075524D01*
X44068833Y-65075524D01*
X43878357Y-65027905D01*
X43783119Y-64980286D01*
X43735500Y-64932667D01*
X43687881Y-64837429D01*
X63682643Y-85764643D02*
X63635024Y-85812262D01*
X63492167Y-85859881D01*
X63396929Y-85859881D01*
X63254071Y-85812262D01*
X63158833Y-85717024D01*
X63111214Y-85621786D01*
X63063595Y-85431310D01*
X63063595Y-85288452D01*
X63111214Y-85097976D01*
X63158833Y-85002738D01*
X63254071Y-84907500D01*
X63396929Y-84859881D01*
X63492167Y-84859881D01*
X63635024Y-84907500D01*
X63682643Y-84955119D01*
X64635024Y-85859881D02*
X64063595Y-85859881D01*
X64349309Y-85859881D02*
X64349309Y-84859881D01*
X64254071Y-85002738D01*
X64158833Y-85097976D01*
X64063595Y-85145595D01*
X64968357Y-84859881D02*
X65587405Y-84859881D01*
X65254071Y-85240833D01*
X65396929Y-85240833D01*
X65492167Y-85288452D01*
X65539786Y-85336071D01*
X65587405Y-85431310D01*
X65587405Y-85669405D01*
X65539786Y-85764643D01*
X65492167Y-85812262D01*
X65396929Y-85859881D01*
X65111214Y-85859881D01*
X65015976Y-85812262D01*
X64968357Y-85764643D01*
X44084643Y-45707857D02*
X44132262Y-45755476D01*
X44179881Y-45898333D01*
X44179881Y-45993571D01*
X44132262Y-46136429D01*
X44037024Y-46231667D01*
X43941786Y-46279286D01*
X43751310Y-46326905D01*
X43608452Y-46326905D01*
X43417976Y-46279286D01*
X43322738Y-46231667D01*
X43227500Y-46136429D01*
X43179881Y-45993571D01*
X43179881Y-45898333D01*
X43227500Y-45755476D01*
X43275119Y-45707857D01*
X44179881Y-44755476D02*
X44179881Y-45326905D01*
X44179881Y-45041191D02*
X43179881Y-45041191D01*
X43322738Y-45136429D01*
X43417976Y-45231667D01*
X43465595Y-45326905D01*
X43179881Y-43898333D02*
X43179881Y-44088810D01*
X43227500Y-44184048D01*
X43275119Y-44231667D01*
X43417976Y-44326905D01*
X43608452Y-44374524D01*
X43989405Y-44374524D01*
X44084643Y-44326905D01*
X44132262Y-44279286D01*
X44179881Y-44184048D01*
X44179881Y-43993571D01*
X44132262Y-43898333D01*
X44084643Y-43850714D01*
X43989405Y-43803095D01*
X43751310Y-43803095D01*
X43656071Y-43850714D01*
X43608452Y-43898333D01*
X43560833Y-43993571D01*
X43560833Y-44184048D01*
X43608452Y-44279286D01*
X43656071Y-44326905D01*
X43751310Y-44374524D01*
X71604143Y-60174166D02*
X71651762Y-60221785D01*
X71699381Y-60364642D01*
X71699381Y-60459880D01*
X71651762Y-60602738D01*
X71556524Y-60697976D01*
X71461286Y-60745595D01*
X71270810Y-60793214D01*
X71127952Y-60793214D01*
X70937476Y-60745595D01*
X70842238Y-60697976D01*
X70747000Y-60602738D01*
X70699381Y-60459880D01*
X70699381Y-60364642D01*
X70747000Y-60221785D01*
X70794619Y-60174166D01*
X71699381Y-59221785D02*
X71699381Y-59793214D01*
X71699381Y-59507500D02*
X70699381Y-59507500D01*
X70842238Y-59602738D01*
X70937476Y-59697976D01*
X70985095Y-59793214D01*
X63706143Y-78950143D02*
X63658524Y-78997762D01*
X63515667Y-79045381D01*
X63420429Y-79045381D01*
X63277571Y-78997762D01*
X63182333Y-78902524D01*
X63134714Y-78807286D01*
X63087095Y-78616810D01*
X63087095Y-78473952D01*
X63134714Y-78283476D01*
X63182333Y-78188238D01*
X63277571Y-78093000D01*
X63420429Y-78045381D01*
X63515667Y-78045381D01*
X63658524Y-78093000D01*
X63706143Y-78140619D01*
X64658524Y-79045381D02*
X64087095Y-79045381D01*
X64372809Y-79045381D02*
X64372809Y-78045381D01*
X64277571Y-78188238D01*
X64182333Y-78283476D01*
X64087095Y-78331095D01*
X65039476Y-78140619D02*
X65087095Y-78093000D01*
X65182333Y-78045381D01*
X65420429Y-78045381D01*
X65515667Y-78093000D01*
X65563286Y-78140619D01*
X65610905Y-78235857D01*
X65610905Y-78331095D01*
X65563286Y-78473952D01*
X64991857Y-79045381D01*
X65610905Y-79045381D01*
X63579143Y-32785643D02*
X63531524Y-32833262D01*
X63388667Y-32880881D01*
X63293429Y-32880881D01*
X63150571Y-32833262D01*
X63055333Y-32738024D01*
X63007714Y-32642786D01*
X62960095Y-32452310D01*
X62960095Y-32309452D01*
X63007714Y-32118976D01*
X63055333Y-32023738D01*
X63150571Y-31928500D01*
X63293429Y-31880881D01*
X63388667Y-31880881D01*
X63531524Y-31928500D01*
X63579143Y-31976119D01*
X64531524Y-32880881D02*
X63960095Y-32880881D01*
X64245809Y-32880881D02*
X64245809Y-31880881D01*
X64150571Y-32023738D01*
X64055333Y-32118976D01*
X63960095Y-32166595D01*
X65007714Y-32880881D02*
X65198190Y-32880881D01*
X65293429Y-32833262D01*
X65341048Y-32785643D01*
X65436286Y-32642786D01*
X65483905Y-32452310D01*
X65483905Y-32071357D01*
X65436286Y-31976119D01*
X65388667Y-31928500D01*
X65293429Y-31880881D01*
X65102952Y-31880881D01*
X65007714Y-31928500D01*
X64960095Y-31976119D01*
X64912476Y-32071357D01*
X64912476Y-32309452D01*
X64960095Y-32404690D01*
X65007714Y-32452310D01*
X65102952Y-32499929D01*
X65293429Y-32499929D01*
X65388667Y-32452310D01*
X65436286Y-32404690D01*
X65483905Y-32309452D01*
X100163381Y-49482333D02*
X100877667Y-49482333D01*
X101020524Y-49529953D01*
X101115762Y-49625191D01*
X101163381Y-49768048D01*
X101163381Y-49863286D01*
X100496714Y-48577571D02*
X101163381Y-48577571D01*
X100115762Y-48815667D02*
X100830048Y-49053762D01*
X100830048Y-48434714D01*
X100314167Y-76541381D02*
X100314167Y-77255667D01*
X100266547Y-77398524D01*
X100171309Y-77493762D01*
X100028452Y-77541381D01*
X99933214Y-77541381D01*
X101266548Y-76541381D02*
X100790357Y-76541381D01*
X100742738Y-77017571D01*
X100790357Y-76969952D01*
X100885595Y-76922333D01*
X101123691Y-76922333D01*
X101218929Y-76969952D01*
X101266548Y-77017571D01*
X101314167Y-77112810D01*
X101314167Y-77350905D01*
X101266548Y-77446143D01*
X101218929Y-77493762D01*
X101123691Y-77541381D01*
X100885595Y-77541381D01*
X100790357Y-77493762D01*
X100742738Y-77446143D01*
X92567167Y-33551881D02*
X92567167Y-34266167D01*
X92519547Y-34409024D01*
X92424309Y-34504262D01*
X92281452Y-34551881D01*
X92186214Y-34551881D01*
X92948119Y-33551881D02*
X93614786Y-33551881D01*
X93186214Y-34551881D01*
X40433667Y-24344381D02*
X40433667Y-25058667D01*
X40386047Y-25201524D01*
X40290809Y-25296762D01*
X40147952Y-25344381D01*
X40052714Y-25344381D01*
X41052714Y-24772952D02*
X40957476Y-24725333D01*
X40909857Y-24677714D01*
X40862238Y-24582476D01*
X40862238Y-24534857D01*
X40909857Y-24439619D01*
X40957476Y-24392000D01*
X41052714Y-24344381D01*
X41243191Y-24344381D01*
X41338429Y-24392000D01*
X41386048Y-24439619D01*
X41433667Y-24534857D01*
X41433667Y-24582476D01*
X41386048Y-24677714D01*
X41338429Y-24725333D01*
X41243191Y-24772952D01*
X41052714Y-24772952D01*
X40957476Y-24820571D01*
X40909857Y-24868190D01*
X40862238Y-24963429D01*
X40862238Y-25153905D01*
X40909857Y-25249143D01*
X40957476Y-25296762D01*
X41052714Y-25344381D01*
X41243191Y-25344381D01*
X41338429Y-25296762D01*
X41386048Y-25249143D01*
X41433667Y-25153905D01*
X41433667Y-24963429D01*
X41386048Y-24868190D01*
X41338429Y-24820571D01*
X41243191Y-24772952D01*
X63150905Y-37671881D02*
X63150905Y-38481405D01*
X63198524Y-38576643D01*
X63246143Y-38624262D01*
X63341381Y-38671881D01*
X63531858Y-38671881D01*
X63627096Y-38624262D01*
X63674715Y-38576643D01*
X63722334Y-38481405D01*
X63722334Y-37671881D01*
X64722334Y-38671881D02*
X64150905Y-38671881D01*
X64436619Y-38671881D02*
X64436619Y-37671881D01*
X64341381Y-37814738D01*
X64246143Y-37909976D01*
X64150905Y-37957595D01*
X65674715Y-38671881D02*
X65103286Y-38671881D01*
X65389000Y-38671881D02*
X65389000Y-37671881D01*
X65293762Y-37814738D01*
X65198524Y-37909976D01*
X65103286Y-37957595D01*
X27526381Y-61952095D02*
X26526381Y-61952095D01*
X26526381Y-61714000D01*
X26574000Y-61571142D01*
X26669238Y-61475904D01*
X26764476Y-61428285D01*
X26954952Y-61380666D01*
X27097810Y-61380666D01*
X27288286Y-61428285D01*
X27383524Y-61475904D01*
X27478762Y-61571142D01*
X27526381Y-61714000D01*
X27526381Y-61952095D01*
X26621619Y-60999714D02*
X26574000Y-60952095D01*
X26526381Y-60856857D01*
X26526381Y-60618761D01*
X26574000Y-60523523D01*
X26621619Y-60475904D01*
X26716857Y-60428285D01*
X26812095Y-60428285D01*
X26954952Y-60475904D01*
X27526381Y-61047333D01*
X27526381Y-60428285D01*
X58586762Y-58935881D02*
X58253428Y-58459690D01*
X58015333Y-58935881D02*
X58015333Y-57935881D01*
X58396286Y-57935881D01*
X58491524Y-57983500D01*
X58539143Y-58031119D01*
X58586762Y-58126357D01*
X58586762Y-58269214D01*
X58539143Y-58364452D01*
X58491524Y-58412071D01*
X58396286Y-58459690D01*
X58015333Y-58459690D01*
X58872476Y-57935881D02*
X59205809Y-58935881D01*
X59539143Y-57935881D01*
X60396286Y-58935881D02*
X59824857Y-58935881D01*
X60110571Y-58935881D02*
X60110571Y-57935881D01*
X60015333Y-58078738D01*
X59920095Y-58173976D01*
X59824857Y-58221595D01*
X67703143Y-49530143D02*
X67655524Y-49577762D01*
X67512667Y-49625381D01*
X67417429Y-49625381D01*
X67274571Y-49577762D01*
X67179333Y-49482524D01*
X67131714Y-49387286D01*
X67084095Y-49196810D01*
X67084095Y-49053952D01*
X67131714Y-48863476D01*
X67179333Y-48768238D01*
X67274571Y-48673000D01*
X67417429Y-48625381D01*
X67512667Y-48625381D01*
X67655524Y-48673000D01*
X67703143Y-48720619D01*
X68084095Y-48720619D02*
X68131714Y-48673000D01*
X68226952Y-48625381D01*
X68465048Y-48625381D01*
X68560286Y-48673000D01*
X68607905Y-48720619D01*
X68655524Y-48815857D01*
X68655524Y-48911095D01*
X68607905Y-49053952D01*
X68036476Y-49625381D01*
X68655524Y-49625381D01*
X69274571Y-48625381D02*
X69369810Y-48625381D01*
X69465048Y-48673000D01*
X69512667Y-48720619D01*
X69560286Y-48815857D01*
X69607905Y-49006333D01*
X69607905Y-49244429D01*
X69560286Y-49434905D01*
X69512667Y-49530143D01*
X69465048Y-49577762D01*
X69369810Y-49625381D01*
X69274571Y-49625381D01*
X69179333Y-49577762D01*
X69131714Y-49530143D01*
X69084095Y-49434905D01*
X69036476Y-49244429D01*
X69036476Y-49006333D01*
X69084095Y-48815857D01*
X69131714Y-48720619D01*
X69179333Y-48673000D01*
X69274571Y-48625381D01*
X29749381Y-94273333D02*
X30463667Y-94273333D01*
X30606524Y-94320953D01*
X30701762Y-94416191D01*
X30749381Y-94559048D01*
X30749381Y-94654286D01*
X29844619Y-93844762D02*
X29797000Y-93797143D01*
X29749381Y-93701905D01*
X29749381Y-93463809D01*
X29797000Y-93368571D01*
X29844619Y-93320952D01*
X29939857Y-93273333D01*
X30035095Y-93273333D01*
X30177952Y-93320952D01*
X30749381Y-93892381D01*
X30749381Y-93273333D01*
X44434167Y-88860381D02*
X44434167Y-89574667D01*
X44386547Y-89717524D01*
X44291309Y-89812762D01*
X44148452Y-89860381D01*
X44053214Y-89860381D01*
X45338929Y-88860381D02*
X45148452Y-88860381D01*
X45053214Y-88908000D01*
X45005595Y-88955619D01*
X44910357Y-89098476D01*
X44862738Y-89288952D01*
X44862738Y-89669905D01*
X44910357Y-89765143D01*
X44957976Y-89812762D01*
X45053214Y-89860381D01*
X45243691Y-89860381D01*
X45338929Y-89812762D01*
X45386548Y-89765143D01*
X45434167Y-89669905D01*
X45434167Y-89431810D01*
X45386548Y-89336571D01*
X45338929Y-89288952D01*
X45243691Y-89241333D01*
X45053214Y-89241333D01*
X44957976Y-89288952D01*
X44910357Y-89336571D01*
X44862738Y-89431810D01*
M02*
