G04 #@! TF.FileFunction,Soldermask,Top*
%FSLAX46Y46*%
G04 Gerber Fmt 4.6, Leading zero omitted, Abs format (unit mm)*
G04 Created by KiCad (PCBNEW 4.0.7) date 03/14/18 20:09:00*
%MOMM*%
%LPD*%
G01*
G04 APERTURE LIST*
%ADD10C,0.100000*%
%ADD11C,2.400000*%
%ADD12R,2.000000X2.800000*%
%ADD13O,2.000000X2.800000*%
%ADD14R,2.400000X2.400000*%
%ADD15R,2.000000X2.000000*%
%ADD16C,2.000000*%
%ADD17R,2.900000X2.900000*%
%ADD18O,2.400000X2.900000*%
%ADD19R,3.900000X3.900000*%
%ADD20R,2.800000X2.100000*%
%ADD21O,2.800000X2.100000*%
%ADD22R,2.800000X2.000000*%
%ADD23O,2.800000X2.000000*%
%ADD24O,2.940000X2.432000*%
%ADD25O,2.432000X2.940000*%
%ADD26R,3.900000X2.400000*%
%ADD27R,2.400000X2.150000*%
%ADD28O,2.400000X2.150000*%
%ADD29R,2.150000X2.400000*%
%ADD30O,2.150000X2.400000*%
%ADD31R,1.950000X1.000000*%
%ADD32R,3.600000X3.600000*%
%ADD33O,3.600000X3.600000*%
%ADD34C,2.100000*%
%ADD35R,2.200000X1.800000*%
%ADD36C,4.464000*%
G04 APERTURE END LIST*
D10*
D11*
X115824000Y-43116500D03*
X100584000Y-43116500D03*
D12*
X51435000Y-71247000D03*
D13*
X49435000Y-71247000D03*
D14*
X38925500Y-78041500D03*
D11*
X38925500Y-73041500D03*
X83312000Y-75438000D03*
X78312000Y-75438000D03*
X36639500Y-82423000D03*
X41639500Y-82423000D03*
X71374000Y-84709000D03*
X71374000Y-89709000D03*
X36258500Y-58229500D03*
X41258500Y-58229500D03*
X62928500Y-97599500D03*
X67928500Y-97599500D03*
D12*
X51879500Y-63690500D03*
D13*
X53879500Y-63690500D03*
D11*
X41211500Y-52197000D03*
X36211500Y-52197000D03*
D15*
X65722500Y-53594000D03*
D16*
X65722500Y-55594000D03*
D17*
X32575500Y-86423500D03*
D18*
X32575500Y-96583500D03*
D19*
X40132000Y-94742000D03*
X40132000Y-100742000D03*
X44832000Y-97742000D03*
D20*
X94805500Y-42608500D03*
D21*
X94805500Y-40068500D03*
D12*
X75755500Y-70675500D03*
D13*
X83375500Y-63055500D03*
X78295500Y-70675500D03*
X80835500Y-63055500D03*
X80835500Y-70675500D03*
X78295500Y-63055500D03*
X83375500Y-70675500D03*
X75755500Y-63055500D03*
D12*
X91503500Y-70675500D03*
D13*
X106743500Y-63055500D03*
X94043500Y-70675500D03*
X104203500Y-63055500D03*
X96583500Y-70675500D03*
X101663500Y-63055500D03*
X99123500Y-70675500D03*
X99123500Y-63055500D03*
X101663500Y-70675500D03*
X96583500Y-63055500D03*
X104203500Y-70675500D03*
X94043500Y-63055500D03*
X106743500Y-70675500D03*
X91503500Y-63055500D03*
D12*
X56134000Y-77089000D03*
D13*
X48514000Y-84709000D03*
X53594000Y-77089000D03*
X51054000Y-84709000D03*
X51054000Y-77089000D03*
X53594000Y-84709000D03*
X48514000Y-77089000D03*
X56134000Y-84709000D03*
D12*
X75692000Y-91059000D03*
D13*
X83312000Y-83439000D03*
X78232000Y-91059000D03*
X80772000Y-83439000D03*
X80772000Y-91059000D03*
X78232000Y-83439000D03*
X83312000Y-91059000D03*
X75692000Y-83439000D03*
D12*
X91440000Y-90932000D03*
D13*
X106680000Y-83312000D03*
X93980000Y-90932000D03*
X104140000Y-83312000D03*
X96520000Y-90932000D03*
X101600000Y-83312000D03*
X99060000Y-90932000D03*
X99060000Y-83312000D03*
X101600000Y-90932000D03*
X96520000Y-83312000D03*
X104140000Y-90932000D03*
X93980000Y-83312000D03*
X106680000Y-90932000D03*
X91440000Y-83312000D03*
D22*
X81280000Y-38989000D03*
D23*
X88900000Y-54229000D03*
X81280000Y-41529000D03*
X88900000Y-51689000D03*
X81280000Y-44069000D03*
X88900000Y-49149000D03*
X81280000Y-46609000D03*
X88900000Y-46609000D03*
X81280000Y-49149000D03*
X88900000Y-44069000D03*
X81280000Y-51689000D03*
X88900000Y-41529000D03*
X81280000Y-54229000D03*
X88900000Y-38989000D03*
D12*
X46418500Y-57658000D03*
D13*
X54038500Y-50038000D03*
X48958500Y-57658000D03*
X51498500Y-50038000D03*
X51498500Y-57658000D03*
X48958500Y-50038000D03*
X54038500Y-57658000D03*
X46418500Y-50038000D03*
D24*
X27051000Y-77851000D03*
X27051000Y-75311000D03*
X27051000Y-80391000D03*
D25*
X60896500Y-102679500D03*
X58356500Y-102679500D03*
X63436500Y-102679500D03*
D24*
X26924000Y-44958000D03*
X26924000Y-42418000D03*
X26924000Y-47498000D03*
D22*
X54673500Y-91059000D03*
D23*
X54673500Y-93559000D03*
D11*
X83312000Y-102743000D03*
X78312000Y-102743000D03*
X75184000Y-34290000D03*
X75184000Y-39290000D03*
D22*
X38925500Y-64516000D03*
D23*
X38925500Y-67016000D03*
D12*
X65532000Y-90678000D03*
D13*
X63032000Y-90678000D03*
D22*
X38417500Y-43815000D03*
D23*
X38417500Y-46315000D03*
D11*
X71247000Y-62738000D03*
X71247000Y-67738000D03*
X61849000Y-81153000D03*
X66849000Y-81153000D03*
D26*
X61722000Y-34988500D03*
X66722000Y-34988500D03*
D27*
X96774000Y-47879000D03*
D28*
X96774000Y-50379000D03*
D29*
X96393000Y-77216000D03*
D30*
X93893000Y-77216000D03*
D29*
X103886000Y-30099000D03*
D30*
X101386000Y-30099000D03*
X98886000Y-30099000D03*
X96386000Y-30099000D03*
X93886000Y-30099000D03*
X91386000Y-30099000D03*
X88886000Y-30099000D03*
X86386000Y-30099000D03*
X83886000Y-30099000D03*
X81386000Y-30099000D03*
D29*
X37401500Y-29083000D03*
D30*
X39901500Y-29083000D03*
X42401500Y-29083000D03*
X44901500Y-29083000D03*
D31*
X61689000Y-39814500D03*
X61689000Y-41084500D03*
X61689000Y-42354500D03*
X61689000Y-43624500D03*
X67089000Y-43624500D03*
X67089000Y-42354500D03*
X67089000Y-41084500D03*
X67089000Y-39814500D03*
D32*
X30734000Y-68834000D03*
D33*
X30734000Y-53594000D03*
D34*
X58991500Y-50165000D03*
X58991500Y-52705000D03*
X58991500Y-55245000D03*
D35*
X69596000Y-46863000D03*
X67096000Y-46863000D03*
D27*
X26797000Y-91440000D03*
D28*
X26797000Y-93940000D03*
X26797000Y-96440000D03*
D29*
X40703500Y-88900000D03*
D30*
X38203500Y-88900000D03*
D36*
X116967000Y-25400000D03*
X116967000Y-105156000D03*
X24511000Y-105156000D03*
X24511000Y-25400000D03*
M02*
