M48
INCH,TZ
T1C0.031
T2C0.035
T3C0.079
%
G90
G05
T1
X11200Y-16250
X11200Y-22250
X12200Y-16250
X12200Y-22250
X13200Y-16250
X13200Y-22250
X14200Y-16250
X14200Y-22250
X15200Y-16250
X15200Y-22250
X16200Y-16250
X16200Y-22250
X17200Y-16250
X17200Y-22250
X18200Y-16250
X18200Y-22250
X19200Y-16250
X19200Y-22250
X20200Y-16250
X20200Y-22250
X21200Y-16250
X21200Y-22250
X22200Y-16250
X22200Y-22250
X23200Y-16250
X23200Y-22250
X24200Y-16250
X24200Y-22250
X25200Y-16250
X25200Y-22250
X28525Y-10350
X32975Y-10175
X32975Y-11525
X32975Y-12850
X32975Y-14775
X32975Y-16075
X32975Y-18675
X32975Y-19975
X32975Y-21275
X32975Y-23925
X36975Y-10175
X36975Y-11525
X36975Y-12850
X36975Y-14775
X36975Y-16075
X36975Y-18675
X36975Y-19975
X36975Y-21275
X36975Y-23925
X40650Y-11250
X40650Y-12250
X40650Y-13250
X40650Y-14250
X40650Y-15250
X40650Y-16250
X40650Y-17250
X40650Y-18250
X40650Y-19250
X40650Y-20250
X40650Y-21250
X40650Y-22250
X40650Y-23250
X40650Y-24250
X42250Y-11175
X42250Y-15175
T2
X11691Y-25100
X12675Y-25100
X15200Y-13150
X15242Y-10350
X16184Y-13150
X16226Y-10350
X17169Y-13150
X17210Y-10350
X18194Y-10350
X19179Y-10350
X20163Y-10350
X21147Y-10350
X22131Y-10350
X23116Y-10350
X24100Y-10350
T3
X8950Y-26700
X9100Y-8750
T0
M30
